<?xml version="1.0" encoding="UTF-8" standalone="no"?><!DOCTYPE svg PUBLIC "-//W3C//DTD SVG 1.1//EN" "http://www.w3.org/Graphics/SVG/1.1/DTD/svg11.dtd"><svg width="100%" height="100%" viewBox="0 0 1001 859" version="1.1" xmlns="http://www.w3.org/2000/svg" xmlns:xlink="http://www.w3.org/1999/xlink" xml:space="preserve" xmlns:serif="http://www.serif.com/" style="fill-rule:evenodd;clip-rule:evenodd;stroke-linejoin:round;stroke-miterlimit:2;"><rect id="bg" x="0.246" y="0.885" width="1000" height="858.1" style="fill:none;"/><clipPath id="_clip1"><rect x="0.246" y="0.885" width="1000" height="858.1"/></clipPath><g clip-path="url(#_clip1)"><g><g><path id="path9187" d="M113.64,277.546l68.94,-9.898l-49.611,-56.293l-19.329,66.191Z" style="fill:#1f9869;fill-rule:nonzero;"/><path id="path9188" d="M310.795,250.327l75.383,-59.387l19.329,91.555l-94.712,-32.168Z" style="fill:#1f9869;fill-rule:nonzero;"/><path id="path9189" d="M407.512,243.983l1.818,-43.192l38.624,26.177l-40.442,17.015Z" style="fill:#17a644;fill-rule:nonzero;"/><path id="path91891" serif:id="path9189" d="M427.886,90.278l35.881,-24.114l1.779,46.626l-37.66,-22.512Z" style="fill:#17a644;fill-rule:nonzero;"/><path id="path9190" d="M78.204,217.541l23.839,75.47l-99.222,-6.804l75.383,-68.666Z" style="fill:#1f9869;fill-rule:nonzero;"/><path id="path9191" d="M387.467,341.263l67.007,-50.726l9.664,87.843l-76.671,-37.117Z" style="fill:#17a644;fill-rule:nonzero;"/><path id="path9192" d="M134.902,296.723l83.115,-1.237l-40.591,67.428l-42.524,-66.191Z" style="fill:#2fb630;fill-rule:nonzero;"/><path id="path9193" d="M208.352,356.11l57.987,-61.243l23.839,77.327l-81.826,-16.084Z" style="fill:#17a644;fill-rule:nonzero;"/><path id="path9194" d="M310.151,285.588l16.108,79.801l56.698,-51.345l-72.806,-28.456Z" style="fill:#2fb630;fill-rule:nonzero;"/><path id="path9195" d="M354.608,429.106l17.396,-67.429l57.987,64.336l-75.383,3.093Z" style="fill:#2fb630;fill-rule:nonzero;"/><path id="path9196" d="M330.124,430.344l3.222,-46.397l-49.611,27.838l46.389,18.559Z" style="fill:#1f9869;fill-rule:nonzero;"/><path id="path9197" d="M86.58,417.078l47.034,-58.769l32.214,69.904l-79.248,-11.135Z" style="fill:#2fb630;fill-rule:nonzero;"/><path id="path9206" d="M3.46,378.38l24.685,-31.874l-50.648,-5.313l25.963,37.187Z" style="fill:#1f9869;fill-rule:nonzero;"/><path id="path92061" serif:id="path9206" d="M500.749,378.38l24.686,-31.874l-50.648,-5.313l25.962,37.187Z" style="fill:#1f9869;fill-rule:nonzero;"/><path id="path9208" d="M226.159,209.263c-5.704,3.175 -11.785,5.855 -11.842,16.449c-4.139,-3.125 -8.278,-7.107 -12.417,-7.176l-1.38,6.513c5.386,2.032 10.934,3.931 14.242,7.672c-5.801,3.274 -12.632,4.924 -16.699,10.929c-3.677,5.427 -2.036,16.529 1.767,21.953c9.094,12.97 27.783,25.533 46.162,13.951c12.327,-8.175 23.674,-17.021 18.424,-37.326c-1.862,-7.203 -8.225,-18.095 -14.846,-21.815c-8.772,-4.929 -20.888,-5.854 -29.275,10.749l-3.449,-2.249c10.391,-6.341 5.582,-12.031 9.313,-19.649l0,-0.001Zm19.948,16.449c2.302,-0 4.196,1.843 4.196,4.084c0,2.241 -1.894,4.084 -4.196,4.084c-2.302,0 -4.197,-1.843 -4.197,-4.084c0,-2.241 1.895,-4.084 4.197,-4.084Z" style="fill:#17a644;fill-rule:nonzero;"/><path id="path9209" d="M12.044,324.309c8.542,8.33 17.373,9.537 26.604,0.88c1.005,1.749 1.079,4.557 4.495,5.616c-2.906,6.005 -2.39,13.721 -0.955,21.356c1.212,6.448 1.925,17.09 3.895,23.32c2.541,8.036 8.437,14.682 16.524,18.018c15.395,6.348 33.572,-1.25 40.598,-16.967c7.034,-15.721 0.247,-33.614 -15.156,-39.956c-3.227,-1.327 -6.673,-2.066 -10.181,-2.199c-2.757,-0.106 -6.957,-0.81 -9.382,-2.081c-5.901,-3.093 -11.944,-5.818 -19.737,-4.271c-1.857,0.371 -3.944,-0.481 -4.562,-2.225c-2.009,-5.665 -2.319,-10.954 -0.167,-15.681c-2.432,-0.111 -4.86,-0.238 -7.569,1.071c-0.167,2.771 -1.028,5.504 0.621,8.373c-10.26,-7.917 -20.671,0.698 -25.028,4.744l-0,0.002Zm33.531,25.156c0.228,-0.361 0.532,-0.653 0.894,-0.859c1.505,-0.851 3.678,-0.036 4.817,1.806c1.139,1.84 0.847,4.058 -0.648,4.921c-0.003,0.002 -0.005,0.003 -0.008,0.005c-1.504,0.859 -3.682,0.049 -4.826,-1.796c-0.001,-0.002 -0.003,-0.004 -0.004,-0.007c-0.838,-1.357 -0.928,-2.968 -0.227,-4.069l0.002,-0.001Z" style="fill:#17a644;fill-rule:nonzero;"/><path id="path9210" d="M224.908,427.061l-15.244,-5.479l-13.343,8.951l0.716,-15.613l-12.99,-9.418l15.687,-4.17l5.315,-14.772l8.979,13.036l16.274,0.288l-10.138,12.227l4.744,14.95Z" style="fill:#1f9869;fill-rule:nonzero;"/><path id="path9186" d="M-16.128,389.613l-0.644,82.276l74.094,-52.582l-73.45,-29.694Z" style="fill:#1f9869;fill-rule:nonzero;"/><path id="path91861" serif:id="path9186" d="M480.981,-37.183l-0.644,82.275l4.564,-3.239l0,-36.103l50.875,-0l18.655,-13.24l-73.45,-29.693Z" style="fill:#1f9869;fill-rule:nonzero;"/><path id="path91862" serif:id="path9186" d="M481.053,389.613l-0.644,82.276l74.094,-52.582l-73.45,-29.694Z" style="fill:#1f9869;fill-rule:nonzero;"/><path id="path9198" d="M-0.554,99.154l52.188,-46.397l22.551,77.327l-74.739,-30.93Z" style="fill:#2fb630;fill-rule:nonzero;"/><path id="path9199" d="M126.969,121.909l-53.879,-99.466l106.498,-0.788l-52.619,100.254Z" style="fill:#17a638;fill-rule:nonzero;"/><path id="path9200" d="M263.915,399.601l39.888,87.557l-79.292,0.919l39.404,-88.476Z" style="fill:#37ae46;fill-rule:nonzero;"/><path id="path9201" d="M228.929,176.741l-46.922,-70.498l77.519,-8.37l-30.597,78.868Z" style="fill:#2fb630;fill-rule:nonzero;"/><path id="path9202" d="M156.91,117.719l48.316,87.556l-96.044,0.92l47.728,-88.476Z" style="fill:#2fb630;fill-rule:nonzero;"/><path id="path9203" d="M237.346,185.71l103.087,-39.592l-36.725,98.978l-66.362,-59.386Z" style="fill:#2fb630;fill-rule:nonzero;"/><path id="path9204" d="M369.427,159.159l34.792,-61.861l48.322,53.2l-83.114,8.661Z" style="fill:#17a644;fill-rule:nonzero;"/><path id="path9205" d="M275.359,84.307l50.255,1.856l-34.792,55.056l-15.463,-56.912Z" style="fill:#17a644;fill-rule:nonzero;"/><path id="path92062" serif:id="path9206" d="M74.338,201.224l37.369,-48.251l-76.671,-8.042l39.302,56.293Z" style="fill:#1f9869;fill-rule:nonzero;"/><path id="path9207" d="M325.042,58.852c8.936,1.52 17.995,1.24 27.169,-0.737c-16.194,-21.707 -4.464,-40.668 11.322,-49.379c15.941,-8.798 44.107,2.752 72.811,-6.466c6.623,18.897 1.238,58.603 -13.046,72.024c0.185,-0.374 0.352,-0.755 0.501,-1.142c2.178,-7.789 -3.018,-15.999 -11.51,-18.188c0,0 0,0 -0,0c-8.492,-2.189 -17.271,2.419 -19.449,10.208c-2.178,7.789 3.018,15.999 11.51,18.187c3.563,0.874 7.318,0.597 10.63,-0.786l-0.74,0.738c-10.646,23.221 -62.769,14.073 -59.327,-17.961l-22.206,10.823l-7.665,-17.321Z" style="fill:#2fad34;fill-rule:nonzero;"/><path id="path92101" serif:id="path9210" d="M365.105,131.393l-11.448,-4.115l-10.02,6.722l0.538,-11.725l-9.756,-7.073l11.781,-3.132l3.992,-11.093l6.743,9.789l12.222,0.217l-7.614,9.182l3.562,11.228Z" style="fill:#1f9869;fill-rule:nonzero;"/><path id="path27-9" d="M-16.772,164.053c0,-0 0,-0 0,-0c-19.391,-0 -35.348,15.834 -35.348,35.076c0,19.242 15.957,35.076 35.348,35.076c0,0 0,0 0,0c19.392,0 35.348,-15.834 35.348,-35.076c0,-19.242 -15.956,-35.076 -35.348,-35.076Zm17.946,16.858c2.984,0 5.438,2.946 5.438,6.526l0,0c0,3.58 -2.454,6.526 -5.438,6.526c-2.983,-0 -5.438,-2.946 -5.438,-6.526l0,0c0,-3.58 2.455,-6.526 5.438,-6.526Z" style="fill:#17a644;fill-rule:nonzero;"/><path id="path27-91" serif:id="path27-9" d="M481.504,164.053c0,-0 0,-0 0,-0c-19.391,-0 -35.348,15.834 -35.348,35.076c0,19.242 15.957,35.076 35.348,35.076c0,0 0,0 0,0c19.392,0 35.349,-15.834 35.349,-35.076c-0,-19.242 -15.957,-35.076 -35.349,-35.076Zm17.946,16.858c2.984,0 5.439,2.946 5.439,6.526l-0,0c-0,3.58 -2.455,6.526 -5.439,6.526c-2.983,-0 -5.438,-2.946 -5.438,-6.526l0,0c0,-3.58 2.455,-6.526 5.438,-6.526Z" style="fill:#17a644;fill-rule:nonzero;"/><path id="path91863" serif:id="path9186" d="M-16.128,-37.183l-0.644,82.275l4.564,-3.239l0,-36.103l50.875,-0l18.655,-13.24l-73.45,-29.693Z" style="fill:#1f9869;fill-rule:nonzero;"/><path id="path92001" serif:id="path9200" d="M263.915,-25.8l39.888,87.557l-79.292,0.919l39.404,-88.476Z" style="fill:#37ae46;fill-rule:nonzero;"/><path id="path91864" serif:id="path9186" d="M481.043,-37.183l-0.645,82.275l74.095,-52.582l-73.45,-29.693Z" style="fill:#1f9869;fill-rule:nonzero;"/><path id="path91865" serif:id="path9186" d="M-16.128,-37.183l-0.644,82.275l74.094,-52.582l-73.45,-29.693Z" style="fill:#1f9869;fill-rule:nonzero;"/><path id="path92071" serif:id="path9207" d="M417.954,432.241c6.026,-0.468 12.195,-1.491 18.39,-3.48c0.383,1.093 0.726,2.256 1.029,3.48" style="fill:#2fad34;fill-rule:nonzero;"/><path d="M437.373,437.174l-19.419,-0" style="fill:none;"/></g><g><path id="path91871" serif:id="path9187" d="M611.75,277.546l68.94,-9.898l-49.611,-56.293l-19.329,66.191Z" style="fill:#1f9869;fill-rule:nonzero;"/><path id="path91881" serif:id="path9188" d="M808.905,250.327l75.383,-59.387l19.329,91.555l-94.712,-32.168Z" style="fill:#1f9869;fill-rule:nonzero;"/><path id="path91892" serif:id="path9189" d="M905.621,243.983l1.818,-43.192l38.624,26.177l-40.442,17.015Z" style="fill:#17a644;fill-rule:nonzero;"/><path id="path91893" serif:id="path9189" d="M925.995,90.278l35.881,-24.114l1.779,46.626l-37.66,-22.512Z" style="fill:#17a644;fill-rule:nonzero;"/><path id="path91901" serif:id="path9190" d="M576.313,217.541l23.839,75.47l-99.221,-6.804l75.382,-68.666Z" style="fill:#1f9869;fill-rule:nonzero;"/><path id="path91911" serif:id="path9191" d="M885.576,341.263l67.007,-50.726l9.665,87.843l-76.672,-37.117Z" style="fill:#17a644;fill-rule:nonzero;"/><path id="path91921" serif:id="path9192" d="M633.012,296.723l83.114,-1.237l-40.591,67.428l-42.523,-66.191Z" style="fill:#2fb630;fill-rule:nonzero;"/><path id="path91931" serif:id="path9193" d="M706.462,356.11l57.986,-61.243l23.839,77.327l-81.825,-16.084Z" style="fill:#17a644;fill-rule:nonzero;"/><path id="path91941" serif:id="path9194" d="M808.261,285.588l16.107,79.801l56.698,-51.345l-72.805,-28.456Z" style="fill:#2fb630;fill-rule:nonzero;"/><path id="path91951" serif:id="path9195" d="M852.717,429.106l17.396,-67.429l57.987,64.336l-75.383,3.093Z" style="fill:#2fb630;fill-rule:nonzero;"/><path id="path91961" serif:id="path9196" d="M828.234,430.344l3.221,-46.397l-49.611,27.838l46.39,18.559Z" style="fill:#1f9869;fill-rule:nonzero;"/><path id="path91971" serif:id="path9197" d="M584.689,417.078l47.034,-58.769l32.215,69.904l-79.249,-11.135Z" style="fill:#2fb630;fill-rule:nonzero;"/><path id="path92063" serif:id="path9206" d="M501.569,378.38l24.686,-31.874l-50.648,-5.313l25.962,37.187Z" style="fill:#1f9869;fill-rule:nonzero;"/><path id="path92064" serif:id="path9206" d="M998.859,378.38l24.686,-31.874l-50.649,-5.313l25.963,37.187Z" style="fill:#1f9869;fill-rule:nonzero;"/><path id="path92081" serif:id="path9208" d="M724.268,209.263c-5.704,3.175 -11.784,5.855 -11.842,16.449c-4.139,-3.125 -8.278,-7.107 -12.417,-7.176l-1.38,6.513c5.387,2.032 10.934,3.931 14.243,7.672c-5.802,3.274 -12.633,4.924 -16.7,10.929c-3.676,5.427 -2.035,16.529 1.768,21.953c9.093,12.97 27.782,25.533 46.161,13.951c12.327,-8.175 23.674,-17.021 18.424,-37.326c-1.862,-7.203 -8.225,-18.095 -14.845,-21.815c-8.772,-4.929 -20.888,-5.854 -29.275,10.749l-3.45,-2.249c10.391,-6.341 5.582,-12.031 9.313,-19.649l0,-0.001Zm19.948,16.449c2.302,-0 4.197,1.843 4.197,4.084c-0,2.241 -1.895,4.084 -4.197,4.084c-2.302,0 -4.196,-1.843 -4.196,-4.084c-0,-2.241 1.894,-4.084 4.196,-4.084Z" style="fill:#17a644;fill-rule:nonzero;"/><path id="path92091" serif:id="path9209" d="M510.153,324.309c8.542,8.33 17.374,9.537 26.604,0.88c1.005,1.749 1.08,4.557 4.495,5.616c-2.905,6.005 -2.389,13.721 -0.954,21.356c1.211,6.448 1.924,17.09 3.894,23.32c2.541,8.036 8.437,14.682 16.524,18.018c15.395,6.348 33.573,-1.25 40.599,-16.967c7.034,-15.721 0.246,-33.614 -15.157,-39.956c-3.227,-1.327 -6.673,-2.066 -10.181,-2.199c-2.757,-0.106 -6.957,-0.81 -9.381,-2.081c-5.901,-3.093 -11.945,-5.818 -19.738,-4.271c-1.857,0.371 -3.944,-0.481 -4.562,-2.225c-2.009,-5.665 -2.319,-10.954 -0.167,-15.681c-2.431,-0.111 -4.859,-0.238 -7.569,1.071c-0.167,2.771 -1.028,5.504 0.621,8.373c-10.259,-7.917 -20.67,0.698 -25.027,4.744l-0.001,0.002Zm33.531,25.156c0.229,-0.361 0.532,-0.653 0.894,-0.859c1.505,-0.851 3.678,-0.036 4.818,1.806c1.139,1.84 0.846,4.058 -0.649,4.921c-0.002,0.002 -0.005,0.003 -0.008,0.005c-1.503,0.859 -3.682,0.049 -4.826,-1.796c-0.001,-0.002 -0.002,-0.004 -0.004,-0.007c-0.838,-1.357 -0.927,-2.968 -0.226,-4.069l0.001,-0.001Z" style="fill:#17a644;fill-rule:nonzero;"/><path id="path92102" serif:id="path9210" d="M723.017,427.061l-15.244,-5.479l-13.343,8.951l0.716,-15.613l-12.989,-9.418l15.687,-4.17l5.314,-14.772l8.979,13.036l16.274,0.288l-10.137,12.227l4.743,14.95Z" style="fill:#1f9869;fill-rule:nonzero;"/><path id="path91866" serif:id="path9186" d="M481.982,389.613l-0.644,82.276l74.094,-52.582l-73.45,-29.694Z" style="fill:#1f9869;fill-rule:nonzero;"/><path id="path91867" serif:id="path9186" d="M979.091,-37.183l-0.644,82.275l4.564,-3.239l-0,-36.103l50.874,-0l18.656,-13.24l-73.45,-29.693Z" style="fill:#1f9869;fill-rule:nonzero;"/><path id="path91868" serif:id="path9186" d="M979.162,389.613l-0.644,82.276l74.094,-52.582l-73.45,-29.694Z" style="fill:#1f9869;fill-rule:nonzero;"/><path id="path91981" serif:id="path9198" d="M497.555,99.154l52.189,-46.397l22.55,77.327l-74.739,-30.93Z" style="fill:#2fb630;fill-rule:nonzero;"/><path id="path91991" serif:id="path9199" d="M625.079,121.909l-53.879,-99.466l106.497,-0.788l-52.618,100.254Z" style="fill:#17a638;fill-rule:nonzero;"/><path id="path92002" serif:id="path9200" d="M762.024,399.601l39.889,87.557l-79.292,0.919l39.403,-88.476Z" style="fill:#37ae46;fill-rule:nonzero;"/><path id="path92011" serif:id="path9201" d="M727.038,176.741l-46.922,-70.498l77.519,-8.37l-30.597,78.868Z" style="fill:#2fb630;fill-rule:nonzero;"/><path id="path92021" serif:id="path9202" d="M655.02,117.719l48.315,87.556l-96.044,0.92l47.729,-88.476Z" style="fill:#2fb630;fill-rule:nonzero;"/><path id="path92031" serif:id="path9203" d="M735.455,185.71l103.088,-39.592l-36.725,98.978l-66.363,-59.386Z" style="fill:#2fb630;fill-rule:nonzero;"/><path id="path92041" serif:id="path9204" d="M867.536,159.159l34.792,-61.861l48.322,53.2l-83.114,8.661Z" style="fill:#17a644;fill-rule:nonzero;"/><path id="path92051" serif:id="path9205" d="M773.468,84.307l50.256,1.856l-34.792,55.056l-15.464,-56.912Z" style="fill:#17a644;fill-rule:nonzero;"/><path id="path92065" serif:id="path9206" d="M572.448,201.224l37.369,-48.251l-76.672,-8.042l39.303,56.293Z" style="fill:#1f9869;fill-rule:nonzero;"/><path id="path92072" serif:id="path9207" d="M823.151,58.852c8.937,1.52 17.995,1.24 27.169,-0.737c-16.194,-21.707 -4.463,-40.668 11.322,-49.379c15.941,-8.798 44.108,2.752 72.811,-6.466c6.623,18.897 1.239,58.603 -13.046,72.024c0.185,-0.374 0.352,-0.755 0.502,-1.142c2.177,-7.789 -3.018,-15.999 -11.51,-18.188c-0,0 -0.001,0 -0.001,0c-8.491,-2.189 -17.271,2.419 -19.449,10.208c-2.177,7.789 3.018,15.999 11.51,18.187c3.564,0.874 7.319,0.597 10.631,-0.786l-0.74,0.738c-10.647,23.221 -62.77,14.073 -59.328,-17.961l-22.206,10.823l-7.665,-17.321Z" style="fill:#2fad34;fill-rule:nonzero;"/><path id="path92103" serif:id="path9210" d="M863.215,131.393l-11.448,-4.115l-10.021,6.722l0.538,-11.725l-9.755,-7.073l11.781,-3.132l3.991,-11.093l6.743,9.789l12.222,0.217l-7.613,9.182l3.562,11.228Z" style="fill:#1f9869;fill-rule:nonzero;"/><path id="path27-92" serif:id="path27-9" d="M481.338,164.053c-0,-0 -0,-0 -0,-0c-19.392,-0 -35.349,15.834 -35.349,35.076c0,19.242 15.957,35.076 35.349,35.076c-0,0 -0,0 -0,0c19.391,0 35.348,-15.834 35.348,-35.076c-0,-19.242 -15.957,-35.076 -35.348,-35.076Zm17.946,16.858c2.983,0 5.438,2.946 5.438,6.526l-0,0c-0,3.58 -2.455,6.526 -5.438,6.526c-2.984,-0 -5.439,-2.946 -5.439,-6.526l0,0c0,-3.58 2.455,-6.526 5.439,-6.526Z" style="fill:#17a644;fill-rule:nonzero;"/><path id="path27-93" serif:id="path27-9" d="M979.614,164.053c-0,-0 -0,-0 -0,-0c-19.392,-0 -35.348,15.834 -35.348,35.076c-0,19.242 15.956,35.076 35.348,35.076c-0,0 -0,0 -0,0c19.391,0 35.348,-15.834 35.348,-35.076c-0,-19.242 -15.957,-35.076 -35.348,-35.076Zm17.946,16.858c2.983,0 5.438,2.946 5.438,6.526l-0,0c-0,3.58 -2.455,6.526 -5.438,6.526c-2.984,-0 -5.438,-2.946 -5.438,-6.526l-0,0c-0,-3.58 2.454,-6.526 5.438,-6.526Z" style="fill:#17a644;fill-rule:nonzero;"/><path id="path91869" serif:id="path9186" d="M481.982,-37.183l-0.644,82.275l4.564,-3.239l-0,-36.103l50.874,-0l18.656,-13.24l-73.45,-29.693Z" style="fill:#1f9869;fill-rule:nonzero;"/><path id="path92003" serif:id="path9200" d="M762.024,-25.8l39.889,87.557l-79.292,0.919l39.403,-88.476Z" style="fill:#37ae46;fill-rule:nonzero;"/><path id="path918610" serif:id="path9186" d="M979.152,-37.183l-0.644,82.275l74.094,-52.582l-73.45,-29.693Z" style="fill:#1f9869;fill-rule:nonzero;"/><path id="path918611" serif:id="path9186" d="M481.982,-37.183l-0.644,82.275l74.094,-52.582l-73.45,-29.693Z" style="fill:#1f9869;fill-rule:nonzero;"/><path id="path92073" serif:id="path9207" d="M916.063,432.241c6.027,-0.468 12.196,-1.491 18.39,-3.48c0.383,1.093 0.726,2.256 1.03,3.48" style="fill:#2fad34;fill-rule:nonzero;"/><path d="M935.483,437.174l-19.42,-0" style="fill:none;"/></g><g><path id="path91872" serif:id="path9187" d="M113.64,704.522l68.94,-9.898l-49.611,-56.293l-19.329,66.191Z" style="fill:#1f9869;fill-rule:nonzero;"/><path id="path91882" serif:id="path9188" d="M310.795,677.303l75.383,-59.387l19.329,91.555l-94.712,-32.168Z" style="fill:#1f9869;fill-rule:nonzero;"/><path id="path91894" serif:id="path9189" d="M407.512,670.959l1.818,-43.192l38.624,26.177l-40.442,17.015Z" style="fill:#17a644;fill-rule:nonzero;"/><path id="path91895" serif:id="path9189" d="M427.886,517.254l35.881,-24.114l1.779,46.626l-37.66,-22.512Z" style="fill:#17a644;fill-rule:nonzero;"/><path id="path91902" serif:id="path9190" d="M78.204,644.517l23.839,75.47l-99.222,-6.804l75.383,-68.666Z" style="fill:#1f9869;fill-rule:nonzero;"/><path id="path91912" serif:id="path9191" d="M387.467,768.239l67.007,-50.726l9.664,87.843l-76.671,-37.117Z" style="fill:#17a644;fill-rule:nonzero;"/><path id="path91922" serif:id="path9192" d="M134.902,723.699l83.115,-1.237l-40.591,67.428l-42.524,-66.191Z" style="fill:#2fb630;fill-rule:nonzero;"/><path id="path91932" serif:id="path9193" d="M208.352,783.086l57.987,-61.243l23.839,77.327l-81.826,-16.084Z" style="fill:#17a644;fill-rule:nonzero;"/><path id="path91942" serif:id="path9194" d="M310.151,712.564l16.108,79.801l56.698,-51.345l-72.806,-28.456Z" style="fill:#2fb630;fill-rule:nonzero;"/><path id="path91952" serif:id="path9195" d="M354.608,856.082l17.396,-67.429l57.987,64.336l-75.383,3.093Z" style="fill:#2fb630;fill-rule:nonzero;"/><path id="path91962" serif:id="path9196" d="M330.124,857.319l3.222,-46.396l-49.611,27.838l46.389,18.558Z" style="fill:#1f9869;fill-rule:nonzero;"/><path id="path91972" serif:id="path9197" d="M86.58,844.053l47.034,-58.768l32.214,69.904l-79.248,-11.136Z" style="fill:#2fb630;fill-rule:nonzero;"/><path id="path92066" serif:id="path9206" d="M3.46,805.356l24.685,-31.875l-50.648,-5.312l25.963,37.187Z" style="fill:#1f9869;fill-rule:nonzero;"/><path id="path92067" serif:id="path9206" d="M500.749,805.356l24.686,-31.875l-50.648,-5.312l25.962,37.187Z" style="fill:#1f9869;fill-rule:nonzero;"/><path id="path92082" serif:id="path9208" d="M226.159,636.239c-5.704,3.175 -11.785,5.855 -11.842,16.448c-4.139,-3.124 -8.278,-7.106 -12.417,-7.175l-1.38,6.513c5.386,2.032 10.934,3.931 14.242,7.672c-5.801,3.274 -12.632,4.924 -16.699,10.929c-3.677,5.427 -2.036,16.529 1.767,21.953c9.094,12.97 27.783,25.533 46.162,13.951c12.327,-8.175 23.674,-17.021 18.424,-37.326c-1.862,-7.203 -8.225,-18.095 -14.846,-21.815c-8.772,-4.929 -20.888,-5.854 -29.275,10.749l-3.449,-2.249c10.391,-6.341 5.582,-12.031 9.313,-19.649l0,-0.001Zm19.948,16.448c2.302,0 4.196,1.844 4.196,4.085c0,2.24 -1.894,4.084 -4.196,4.084c-2.302,0 -4.197,-1.844 -4.197,-4.084c0,-2.241 1.895,-4.085 4.197,-4.085Z" style="fill:#17a644;fill-rule:nonzero;"/><path id="path92092" serif:id="path9209" d="M12.044,751.284c8.542,8.331 17.373,9.538 26.604,0.881c1.005,1.749 1.079,4.557 4.495,5.616c-2.906,6.005 -2.39,13.721 -0.955,21.356c1.212,6.448 1.925,17.09 3.895,23.32c2.541,8.036 8.437,14.682 16.524,18.018c15.395,6.348 33.572,-1.25 40.598,-16.967c7.034,-15.721 0.247,-33.614 -15.156,-39.956c-3.227,-1.327 -6.673,-2.066 -10.181,-2.199c-2.757,-0.106 -6.957,-0.811 -9.382,-2.081c-5.901,-3.093 -11.944,-5.818 -19.737,-4.271c-1.857,0.371 -3.944,-0.481 -4.562,-2.225c-2.009,-5.665 -2.319,-10.954 -0.167,-15.681c-2.432,-0.111 -4.86,-0.238 -7.569,1.071c-0.167,2.771 -1.028,5.504 0.621,8.373c-10.26,-7.917 -20.671,0.698 -25.028,4.744l-0,0.001Zm33.531,25.157c0.228,-0.361 0.532,-0.653 0.894,-0.859c1.505,-0.851 3.678,-0.036 4.817,1.806c1.139,1.84 0.847,4.058 -0.648,4.921c-0.003,0.002 -0.005,0.003 -0.008,0.005c-1.504,0.859 -3.682,0.049 -4.826,-1.796c-0.001,-0.002 -0.003,-0.005 -0.004,-0.007c-0.838,-1.357 -0.928,-2.968 -0.227,-4.069l0.002,-0.001Z" style="fill:#17a644;fill-rule:nonzero;"/><path id="path92104" serif:id="path9210" d="M224.908,854.037l-15.244,-5.479l-13.343,8.951l0.716,-15.613l-12.99,-9.418l15.687,-4.17l5.315,-14.772l8.979,13.036l16.274,0.288l-10.138,12.227l4.744,14.95Z" style="fill:#1f9869;fill-rule:nonzero;"/><path id="path918612" serif:id="path9186" d="M-16.128,816.589l-0.644,82.276l74.094,-52.582l-73.45,-29.694Z" style="fill:#1f9869;fill-rule:nonzero;"/><path id="path918613" serif:id="path9186" d="M481.053,816.589l-0.644,82.276l74.094,-52.582l-73.45,-29.694Z" style="fill:#1f9869;fill-rule:nonzero;"/><path id="path91982" serif:id="path9198" d="M-0.554,526.129l52.188,-46.396l22.551,77.327l-74.739,-30.931Z" style="fill:#2fb630;fill-rule:nonzero;"/><path id="path91992" serif:id="path9199" d="M126.969,548.885l-53.879,-99.466l106.498,-0.788l-52.619,100.254Z" style="fill:#17a638;fill-rule:nonzero;"/><path id="path92004" serif:id="path9200" d="M263.915,826.577l39.888,87.557l-79.292,0.919l39.404,-88.476Z" style="fill:#37ae46;fill-rule:nonzero;"/><path id="path92012" serif:id="path9201" d="M228.929,603.717l-46.922,-70.498l77.519,-8.37l-30.597,78.868Z" style="fill:#2fb630;fill-rule:nonzero;"/><path id="path92022" serif:id="path9202" d="M156.91,544.695l48.316,87.556l-96.044,0.92l47.728,-88.476Z" style="fill:#2fb630;fill-rule:nonzero;"/><path id="path92032" serif:id="path9203" d="M237.346,612.685l103.087,-39.591l-36.725,98.978l-66.362,-59.387Z" style="fill:#2fb630;fill-rule:nonzero;"/><path id="path92042" serif:id="path9204" d="M369.427,586.135l34.792,-61.862l48.322,53.201l-83.114,8.661Z" style="fill:#17a644;fill-rule:nonzero;"/><path id="path92052" serif:id="path9205" d="M275.359,511.283l50.255,1.856l-34.792,55.056l-15.463,-56.912Z" style="fill:#17a644;fill-rule:nonzero;"/><path id="path92068" serif:id="path9206" d="M74.338,628.2l37.369,-48.251l-76.671,-8.042l39.302,56.293Z" style="fill:#1f9869;fill-rule:nonzero;"/><path id="path92074" serif:id="path9207" d="M325.042,485.827c8.936,1.521 17.995,1.241 27.169,-0.736c-16.194,-21.708 -4.464,-40.668 11.322,-49.379c15.941,-8.798 44.107,2.752 72.811,-6.466c6.623,18.897 1.238,58.603 -13.046,72.024c0.185,-0.374 0.352,-0.755 0.501,-1.142c2.178,-7.789 -3.018,-15.999 -11.51,-18.188c0,0 0,0 -0,0c-8.492,-2.189 -17.271,2.419 -19.449,10.208c-2.178,7.789 3.018,15.999 11.51,18.187c3.563,0.874 7.318,0.597 10.63,-0.786l-0.74,0.738c-10.646,23.221 -62.769,14.073 -59.327,-17.961l-22.206,10.823l-7.665,-17.322Z" style="fill:#2fad34;fill-rule:nonzero;"/><path id="path92105" serif:id="path9210" d="M365.105,558.369l-11.448,-4.115l-10.02,6.722l0.538,-11.725l-9.756,-7.073l11.781,-3.132l3.992,-11.094l6.743,9.79l12.222,0.217l-7.614,9.182l3.562,11.228Z" style="fill:#1f9869;fill-rule:nonzero;"/><path id="path27-94" serif:id="path27-9" d="M-16.772,591.029c0,-0 0,-0 0,-0c-19.391,-0 -35.348,15.834 -35.348,35.076c0,19.242 15.957,35.076 35.348,35.076c0,0 0,0 0,0c19.392,0 35.348,-15.834 35.348,-35.076c0,-19.242 -15.956,-35.076 -35.348,-35.076Zm17.946,16.858c2.984,0 5.438,2.946 5.438,6.526l0,0c0,3.58 -2.454,6.526 -5.438,6.526c-2.983,-0 -5.438,-2.946 -5.438,-6.526l0,0c0,-3.58 2.455,-6.526 5.438,-6.526Z" style="fill:#17a644;fill-rule:nonzero;"/><path id="path27-95" serif:id="path27-9" d="M481.504,591.029c0,-0 0,-0 0,-0c-19.391,-0 -35.348,15.834 -35.348,35.076c0,19.242 15.957,35.076 35.348,35.076c0,0 0,0 0,0c19.392,0 35.349,-15.834 35.349,-35.076c-0,-19.242 -15.957,-35.076 -35.349,-35.076Zm17.946,16.858c2.984,0 5.439,2.946 5.439,6.526l-0,0c-0,3.58 -2.455,6.526 -5.439,6.526c-2.983,-0 -5.438,-2.946 -5.438,-6.526l0,0c0,-3.58 2.455,-6.526 5.438,-6.526Z" style="fill:#17a644;fill-rule:nonzero;"/><path id="path92005" serif:id="path9200" d="M263.915,401.176l39.888,87.557l-79.292,0.919l39.404,-88.476Z" style="fill:#37ae46;fill-rule:nonzero;"/><path id="path918614" serif:id="path9186" d="M481.043,389.793l-0.645,82.275l74.095,-52.582l-73.45,-29.693Z" style="fill:#1f9869;fill-rule:nonzero;"/><path id="path918615" serif:id="path9186" d="M-16.128,389.793l-0.644,82.275l74.094,-52.582l-73.45,-29.693Z" style="fill:#1f9869;fill-rule:nonzero;"/><path id="path92075" serif:id="path9207" d="M417.954,859.217c6.026,-0.468 12.195,-1.491 18.39,-3.48c0.383,1.093 0.726,2.256 1.029,3.48" style="fill:#2fad34;fill-rule:nonzero;"/></g><g><path id="path91873" serif:id="path9187" d="M611.75,704.522l68.94,-9.898l-49.611,-56.293l-19.329,66.191Z" style="fill:#1f9869;fill-rule:nonzero;"/><path id="path91883" serif:id="path9188" d="M808.905,677.303l75.383,-59.387l19.329,91.555l-94.712,-32.168Z" style="fill:#1f9869;fill-rule:nonzero;"/><path id="path91896" serif:id="path9189" d="M905.621,670.959l1.818,-43.192l38.624,26.177l-40.442,17.015Z" style="fill:#17a644;fill-rule:nonzero;"/><path id="path91897" serif:id="path9189" d="M925.995,517.254l35.881,-24.114l1.779,46.626l-37.66,-22.512Z" style="fill:#17a644;fill-rule:nonzero;"/><path id="path91903" serif:id="path9190" d="M576.313,644.517l23.839,75.47l-99.221,-6.804l75.382,-68.666Z" style="fill:#1f9869;fill-rule:nonzero;"/><path id="path91913" serif:id="path9191" d="M885.576,768.239l67.007,-50.726l9.665,87.843l-76.672,-37.117Z" style="fill:#17a644;fill-rule:nonzero;"/><path id="path91923" serif:id="path9192" d="M633.012,723.699l83.114,-1.237l-40.591,67.428l-42.523,-66.191Z" style="fill:#2fb630;fill-rule:nonzero;"/><path id="path91933" serif:id="path9193" d="M706.462,783.086l57.986,-61.243l23.839,77.327l-81.825,-16.084Z" style="fill:#17a644;fill-rule:nonzero;"/><path id="path91943" serif:id="path9194" d="M808.261,712.564l16.107,79.801l56.698,-51.345l-72.805,-28.456Z" style="fill:#2fb630;fill-rule:nonzero;"/><path id="path91953" serif:id="path9195" d="M852.717,856.082l17.396,-67.429l57.987,64.336l-75.383,3.093Z" style="fill:#2fb630;fill-rule:nonzero;"/><path id="path91963" serif:id="path9196" d="M828.234,857.319l3.221,-46.396l-49.611,27.838l46.39,18.558Z" style="fill:#1f9869;fill-rule:nonzero;"/><path id="path91973" serif:id="path9197" d="M584.689,844.053l47.034,-58.768l32.215,69.904l-79.249,-11.136Z" style="fill:#2fb630;fill-rule:nonzero;"/><path id="path92069" serif:id="path9206" d="M501.569,805.356l24.686,-31.875l-50.648,-5.312l25.962,37.187Z" style="fill:#1f9869;fill-rule:nonzero;"/><path id="path920610" serif:id="path9206" d="M998.859,805.356l24.686,-31.875l-50.649,-5.312l25.963,37.187Z" style="fill:#1f9869;fill-rule:nonzero;"/><path id="path92083" serif:id="path9208" d="M724.268,636.239c-5.704,3.175 -11.784,5.855 -11.842,16.448c-4.139,-3.124 -8.278,-7.106 -12.417,-7.175l-1.38,6.513c5.387,2.032 10.934,3.931 14.243,7.672c-5.802,3.274 -12.633,4.924 -16.7,10.929c-3.676,5.427 -2.035,16.529 1.768,21.953c9.093,12.97 27.782,25.533 46.161,13.951c12.327,-8.175 23.674,-17.021 18.424,-37.326c-1.862,-7.203 -8.225,-18.095 -14.845,-21.815c-8.772,-4.929 -20.888,-5.854 -29.275,10.749l-3.45,-2.249c10.391,-6.341 5.582,-12.031 9.313,-19.649l0,-0.001Zm19.948,16.448c2.302,0 4.197,1.844 4.197,4.085c-0,2.24 -1.895,4.084 -4.197,4.084c-2.302,0 -4.196,-1.844 -4.196,-4.084c-0,-2.241 1.894,-4.085 4.196,-4.085Z" style="fill:#17a644;fill-rule:nonzero;"/><path id="path92093" serif:id="path9209" d="M510.153,751.284c8.542,8.331 17.374,9.538 26.604,0.881c1.005,1.749 1.08,4.557 4.495,5.616c-2.905,6.005 -2.389,13.721 -0.954,21.356c1.211,6.448 1.924,17.09 3.894,23.32c2.541,8.036 8.437,14.682 16.524,18.018c15.395,6.348 33.573,-1.25 40.599,-16.967c7.034,-15.721 0.246,-33.614 -15.157,-39.956c-3.227,-1.327 -6.673,-2.066 -10.181,-2.199c-2.757,-0.106 -6.957,-0.811 -9.381,-2.081c-5.901,-3.093 -11.945,-5.818 -19.738,-4.271c-1.857,0.371 -3.944,-0.481 -4.562,-2.225c-2.009,-5.665 -2.319,-10.954 -0.167,-15.681c-2.431,-0.111 -4.859,-0.238 -7.569,1.071c-0.167,2.771 -1.028,5.504 0.621,8.373c-10.259,-7.917 -20.67,0.698 -25.027,4.744l-0.001,0.001Zm33.531,25.157c0.229,-0.361 0.532,-0.653 0.894,-0.859c1.505,-0.851 3.678,-0.036 4.818,1.806c1.139,1.84 0.846,4.058 -0.649,4.921c-0.002,0.002 -0.005,0.003 -0.008,0.005c-1.503,0.859 -3.682,0.049 -4.826,-1.796c-0.001,-0.002 -0.002,-0.005 -0.004,-0.007c-0.838,-1.357 -0.927,-2.968 -0.226,-4.069l0.001,-0.001Z" style="fill:#17a644;fill-rule:nonzero;"/><path id="path92106" serif:id="path9210" d="M723.017,854.037l-15.244,-5.479l-13.343,8.951l0.716,-15.613l-12.989,-9.418l15.687,-4.17l5.314,-14.772l8.979,13.036l16.274,0.288l-10.137,12.227l4.743,14.95Z" style="fill:#1f9869;fill-rule:nonzero;"/><path id="path918616" serif:id="path9186" d="M481.982,816.589l-0.644,82.276l74.094,-52.582l-73.45,-29.694Z" style="fill:#1f9869;fill-rule:nonzero;"/><path id="path918617" serif:id="path9186" d="M979.091,389.793l-0.644,82.275l4.564,-3.239l-0,-36.103l50.874,-0l18.656,-13.24l-73.45,-29.693Z" style="fill:#1f9869;fill-rule:nonzero;"/><path id="path918618" serif:id="path9186" d="M979.162,816.589l-0.644,82.276l74.094,-52.582l-73.45,-29.694Z" style="fill:#1f9869;fill-rule:nonzero;"/><path id="path91983" serif:id="path9198" d="M497.555,526.129l52.189,-46.396l22.55,77.327l-74.739,-30.931Z" style="fill:#2fb630;fill-rule:nonzero;"/><path id="path91993" serif:id="path9199" d="M625.079,548.885l-53.879,-99.466l106.497,-0.788l-52.618,100.254Z" style="fill:#17a638;fill-rule:nonzero;"/><path id="path92006" serif:id="path9200" d="M762.024,826.577l39.889,87.557l-79.292,0.919l39.403,-88.476Z" style="fill:#37ae46;fill-rule:nonzero;"/><path id="path92013" serif:id="path9201" d="M727.038,603.717l-46.922,-70.498l77.519,-8.37l-30.597,78.868Z" style="fill:#2fb630;fill-rule:nonzero;"/><path id="path92023" serif:id="path9202" d="M655.02,544.695l48.315,87.556l-96.044,0.92l47.729,-88.476Z" style="fill:#2fb630;fill-rule:nonzero;"/><path id="path92033" serif:id="path9203" d="M735.455,612.685l103.088,-39.591l-36.725,98.978l-66.363,-59.387Z" style="fill:#2fb630;fill-rule:nonzero;"/><path id="path92043" serif:id="path9204" d="M867.536,586.135l34.792,-61.862l48.322,53.201l-83.114,8.661Z" style="fill:#17a644;fill-rule:nonzero;"/><path id="path92053" serif:id="path9205" d="M773.468,511.283l50.256,1.856l-34.792,55.056l-15.464,-56.912Z" style="fill:#17a644;fill-rule:nonzero;"/><path id="path920611" serif:id="path9206" d="M572.448,628.2l37.369,-48.251l-76.672,-8.042l39.303,56.293Z" style="fill:#1f9869;fill-rule:nonzero;"/><path id="path92076" serif:id="path9207" d="M823.151,485.827c8.937,1.521 17.995,1.241 27.169,-0.736c-16.194,-21.708 -4.463,-40.668 11.322,-49.379c15.941,-8.798 44.108,2.752 72.811,-6.466c6.623,18.897 1.239,58.603 -13.046,72.024c0.185,-0.374 0.352,-0.755 0.502,-1.142c2.177,-7.789 -3.018,-15.999 -11.51,-18.188c-0,0 -0.001,0 -0.001,0c-8.491,-2.189 -17.271,2.419 -19.449,10.208c-2.177,7.789 3.018,15.999 11.51,18.187c3.564,0.874 7.319,0.597 10.631,-0.786l-0.74,0.738c-10.647,23.221 -62.77,14.073 -59.328,-17.961l-22.206,10.823l-7.665,-17.322Z" style="fill:#2fad34;fill-rule:nonzero;"/><path id="path92107" serif:id="path9210" d="M863.215,558.369l-11.448,-4.115l-10.021,6.722l0.538,-11.725l-9.755,-7.073l11.781,-3.132l3.991,-11.094l6.743,9.79l12.222,0.217l-7.613,9.182l3.562,11.228Z" style="fill:#1f9869;fill-rule:nonzero;"/><path id="path27-96" serif:id="path27-9" d="M481.338,591.029c-0,-0 -0,-0 -0,-0c-19.392,-0 -35.349,15.834 -35.349,35.076c0,19.242 15.957,35.076 35.349,35.076c-0,0 -0,0 -0,0c19.391,0 35.348,-15.834 35.348,-35.076c-0,-19.242 -15.957,-35.076 -35.348,-35.076Zm17.946,16.858c2.983,0 5.438,2.946 5.438,6.526l-0,0c-0,3.58 -2.455,6.526 -5.438,6.526c-2.984,-0 -5.439,-2.946 -5.439,-6.526l0,0c0,-3.58 2.455,-6.526 5.439,-6.526Z" style="fill:#17a644;fill-rule:nonzero;"/><path id="path27-97" serif:id="path27-9" d="M979.614,591.029c-0,-0 -0,-0 -0,-0c-19.392,-0 -35.348,15.834 -35.348,35.076c-0,19.242 15.956,35.076 35.348,35.076c-0,0 -0,0 -0,0c19.391,0 35.348,-15.834 35.348,-35.076c-0,-19.242 -15.957,-35.076 -35.348,-35.076Zm17.946,16.858c2.983,0 5.438,2.946 5.438,6.526l-0,0c-0,3.58 -2.455,6.526 -5.438,6.526c-2.984,-0 -5.438,-2.946 -5.438,-6.526l-0,0c-0,-3.58 2.454,-6.526 5.438,-6.526Z" style="fill:#17a644;fill-rule:nonzero;"/><path id="path918619" serif:id="path9186" d="M481.982,389.793l-0.644,82.275l4.564,-3.239l-0,-36.103l50.874,-0l18.656,-13.24l-73.45,-29.693Z" style="fill:#1f9869;fill-rule:nonzero;"/><path id="path92007" serif:id="path9200" d="M762.024,401.176l39.889,87.557l-79.292,0.919l39.403,-88.476Z" style="fill:#37ae46;fill-rule:nonzero;"/><path id="path918620" serif:id="path9186" d="M979.152,389.793l-0.644,82.275l74.094,-52.582l-73.45,-29.693Z" style="fill:#1f9869;fill-rule:nonzero;"/><path id="path918621" serif:id="path9186" d="M481.982,389.793l-0.644,82.275l74.094,-52.582l-73.45,-29.693Z" style="fill:#1f9869;fill-rule:nonzero;"/><path id="path92077" serif:id="path9207" d="M916.063,859.217c6.027,-0.468 12.196,-1.491 18.39,-3.48c0.383,1.093 0.726,2.256 1.03,3.48" style="fill:#2fad34;fill-rule:nonzero;"/></g></g></g></svg>