<?xml version="1.0" encoding="UTF-8" standalone="no"?>
<!DOCTYPE svg PUBLIC "-//W3C//DTD SVG 1.1//EN" "http://www.w3.org/Graphics/SVG/1.1/DTD/svg11.dtd">
<svg width="100%" height="100%" viewBox="0 0 751 751" version="1.1" xmlns="http://www.w3.org/2000/svg" xmlns:xlink="http://www.w3.org/1999/xlink" xml:space="preserve" xmlns:serif="http://www.serif.com/" style="fill-rule:evenodd;clip-rule:evenodd;stroke-linecap:round;stroke-linejoin:round;stroke-miterlimit:2;">
    <g transform="matrix(1,0,0,1,-38,-6142)">
        <g id="contactIcon" transform="matrix(0.571646,0,0,0.615258,-1616.39,6142.33)">
            <rect x="2894.42" y="0" width="1312" height="1219" style="fill:none;"/>
            <g id="contact" transform="matrix(10.2695,0.932578,-0.99401,9.44915,-30982.3,-10938.5)">
                <path d="M3439.64,837.945C3445.11,834.655 3450.58,834.592 3456.07,838.078L3468.63,845.803C3490.2,854.217 3487.92,860.443 3477.24,865.897L3477.24,882.474C3482.57,883.738 3486.95,886.614 3490.24,891.336C3490.57,891.808 3490.75,892.366 3490.76,892.941C3490.84,896.275 3491.13,908.39 3491.2,911.605C3491.22,912.148 3490.98,912.667 3490.57,913.015C3487.51,915.558 3481.81,916.457 3479.09,916.751C3478.69,916.791 3478.3,916.665 3478,916.404C3477.71,916.143 3477.53,915.769 3477.51,915.371C3477.35,911.606 3476.64,901.763 3473.79,896.916C3476.73,901.47 3475.72,914.744 3477.56,916.881C3490.24,931.584 3401.26,931.92 3421.66,912.393L3421.66,892.726C3413.23,892.252 3407.08,890.064 3406.45,883.718L3406.45,867.082C3407,863.809 3408.89,862.363 3411.55,861.979C3412.27,861.874 3418.95,860.232 3419.71,879.469C3420.96,866.09 3412.58,859.704 3412.37,858.687C3411.22,853.164 3418.3,849.012 3426.74,845.086L3439.64,837.945Z" style="fill:rgb(255,187,104);"/>
                <clipPath id="_clip1">
                    <path d="M3439.64,837.945C3445.11,834.655 3450.58,834.592 3456.07,838.078L3468.63,845.803C3490.2,854.217 3487.92,860.443 3477.24,865.897L3477.24,882.474C3482.57,883.738 3486.95,886.614 3490.24,891.336C3490.57,891.808 3490.75,892.366 3490.76,892.941C3490.84,896.275 3491.13,908.39 3491.2,911.605C3491.22,912.148 3490.98,912.667 3490.57,913.015C3487.51,915.558 3481.81,916.457 3479.09,916.751C3478.69,916.791 3478.3,916.665 3478,916.404C3477.71,916.143 3477.53,915.769 3477.51,915.371C3477.35,911.606 3476.64,901.763 3473.79,896.916C3476.73,901.47 3475.72,914.744 3477.56,916.881C3490.24,931.584 3401.26,931.92 3421.66,912.393L3421.66,892.726C3413.23,892.252 3407.08,890.064 3406.45,883.718L3406.45,867.082C3407,863.809 3408.89,862.363 3411.55,861.979C3412.27,861.874 3418.95,860.232 3419.71,879.469C3420.96,866.09 3412.58,859.704 3412.37,858.687C3411.22,853.164 3418.3,849.012 3426.74,845.086L3439.64,837.945Z"/>
                </clipPath>
                <g clip-path="url(#_clip1)">
                    <path d="M3448.25,836.67C3448.32,843.762 3449.51,843.76 3456.63,848.408C3461.66,851.695 3458.62,859.991 3463.75,865.423C3464.02,865.713 3466,867.805 3464.61,870.331C3464.53,870.465 3462.86,871.962 3462.19,873.341C3462.16,873.387 3461.33,901.56 3462.64,905.252C3463.52,907.704 3466.2,908.048 3462.7,912.776C3460.18,916.175 3468.04,920.078 3468.8,922.183C3469.92,925.328 3469.77,925.687 3469.97,925.49C3471.78,923.703 3475.16,921.986 3477.22,916.512C3478.06,914.273 3479.36,918.16 3489.22,914.907C3490.27,914.56 3493.04,912.903 3491.32,901.226C3490.94,898.669 3488.56,904.813 3481.96,901.909C3481.33,891.409 3476.72,893.216 3469.41,889.816C3468.7,889.489 3468.73,889.432 3468.73,888.689C3468.72,887.219 3465.84,884.835 3470.72,883.398C3472.62,882.836 3474.7,883.019 3475.1,879.497C3475.25,878.205 3477.07,875.65 3477.33,871.91C3477.77,865.82 3479.36,866.452 3480.54,864.244C3482.51,860.582 3490.76,855.894 3478.74,850.223C3472.51,847.286 3472.76,846.868 3466.31,844.305C3465.33,843.912 3465.71,843.241 3454.74,837.748C3451.02,835.883 3449.59,834.611 3448.16,837.415" style="fill:rgb(239,162,83);"/>
                    <path d="M3412.46,869.202L3418.03,868.972L3420.12,881.736L3413.85,885.874L3411.22,880.657L3412.46,869.202Z" style="fill:rgb(185,122,56);"/>
                    <path d="M3438.94,838.401C3439.2,841.337 3444.06,842.95 3448.84,842.692C3452.57,842.491 3456.25,841.148 3457.66,838.401" style="fill:none;stroke:rgb(185,122,56);stroke-width:2.08px;"/>
                    <g transform="matrix(1,0,0,1,0,19.0267)">
                        <path d="M3421.24,829.017C3421.5,831.953 3421.12,843.651 3448.84,842.692C3479.07,841.647 3471.91,831.889 3473.32,829.143" style="fill:none;stroke:rgb(185,122,56);stroke-width:2.08px;"/>
                    </g>
                    <g transform="matrix(1.20591,0,0,1,-709.536,28.6839)">
                        <path d="M3418.65,831.935C3421.43,838.543 3435.66,843.148 3448.84,842.692C3461.04,842.27 3475.83,835.735 3477.85,829.757" style="fill:none;stroke:rgb(239,162,83);stroke-width:3.76px;"/>
                    </g>
                    <g transform="matrix(1.20591,0,0,1,-709.536,28.6839)">
                        <path d="M3425.27,837.781C3428.84,840.744 3435.66,843.148 3448.84,842.692C3461.04,842.27 3467.15,840.43 3470.19,838.203" style="fill:none;stroke:rgb(185,122,56);stroke-width:3.76px;"/>
                    </g>
                    <g transform="matrix(1.20591,0,0,1,-709.536,76.1437)">
                        <path d="M3426.84,835.446C3430.41,838.409 3435.66,843.148 3448.84,842.692C3461.04,842.27 3467.15,838.885 3470.19,836.659" style="fill:none;stroke:rgb(185,122,56);stroke-width:3.76px;"/>
                    </g>
                    <g transform="matrix(1.20591,0,0,1,-709.536,82.811)">
                        <path d="M3424.5,834.426C3428.07,837.389 3435.66,843.148 3448.84,842.692C3461.04,842.27 3467.15,838.885 3470.19,836.659" style="fill:none;stroke:rgb(239,162,83);stroke-width:3.76px;"/>
                    </g>
                    <path d="M3406.61,868.972C3408.07,869.623 3410.07,869.364 3412.46,869.202C3413.26,876.831 3411.61,886.461 3417.32,881.269C3418.64,880.067 3418.52,879.022 3420.08,879.953C3422.85,881.607 3421.78,886.25 3420.88,892.645C3419.79,892.631 3410.26,891.114 3408.07,887.439C3404.11,880.807 3406.53,869.309 3407.01,869.301" style="fill:rgb(239,162,83);"/>
                    <g transform="matrix(0.981223,-0.192878,0.192878,0.981223,-107.374,677.674)">
                        <ellipse cx="3431.36" cy="883.219" rx="5.36" ry="7.558" style="fill:rgb(112,84,50);"/>
                        <clipPath id="_clip2">
                            <ellipse cx="3431.36" cy="883.219" rx="5.36" ry="7.558"/>
                        </clipPath>
                        <g clip-path="url(#_clip2)">
                            <path d="M3434.56,889.282C3433.67,890.221 3432.56,890.778 3431.36,890.778C3428.4,890.778 3426,887.391 3426,883.219C3426,879.658 3427.75,876.669 3430.1,875.87C3428.79,877.249 3427.94,879.452 3427.94,881.933C3427.94,886.104 3430.34,889.491 3433.3,889.491C3433.74,889.491 3434.16,889.419 3434.56,889.282Z" style="fill:rgb(239,162,83);"/>
                        </g>
                        <ellipse cx="3431.36" cy="883.219" rx="5.36" ry="7.558" style="fill:none;stroke:rgb(238,185,118);stroke-width:2.08px;"/>
                    </g>
                    <g transform="matrix(1.27396,-0.250421,0.192878,0.981223,-1091.86,877.34)">
                        <ellipse cx="3431.36" cy="883.219" rx="5.36" ry="7.558" style="fill:rgb(112,84,50);"/>
                        <clipPath id="_clip3">
                            <ellipse cx="3431.36" cy="883.219" rx="5.36" ry="7.558"/>
                        </clipPath>
                        <g clip-path="url(#_clip3)">
                            <g transform="matrix(0.770217,4.14423e-17,3.11659e-17,0.938565,788.095,54.6799)">
                                <path d="M3434.56,889.282C3433.67,890.221 3432.56,890.778 3431.36,890.778C3428.4,890.778 3426,887.391 3426,883.219C3426,879.658 3427.75,876.669 3430.1,875.87C3428.79,877.249 3427.94,879.452 3427.94,881.933C3427.94,886.104 3430.34,889.491 3433.3,889.491C3433.74,889.491 3434.16,889.419 3434.56,889.282Z" style="fill:rgb(239,162,83);"/>
                            </g>
                        </g>
                        <ellipse cx="3431.36" cy="883.219" rx="5.36" ry="7.558" style="fill:none;stroke:rgb(238,185,118);stroke-width:2.08px;"/>
                    </g>
                    <g transform="matrix(1.40878,-0.276923,0.192874,0.981202,-1565.11,984.734)">
                        <ellipse cx="3431.36" cy="883.219" rx="5.36" ry="7.558" style="fill:rgb(112,84,50);"/>
                        <clipPath id="_clip4">
                            <ellipse cx="3431.36" cy="883.219" rx="5.36" ry="7.558"/>
                        </clipPath>
                        <g clip-path="url(#_clip4)">
                            <g transform="matrix(0.891672,1.12245e-16,-9.87201e-17,0.896854,371.231,91.9486)">
                                <path d="M3434.56,889.282C3433.67,890.221 3432.56,890.778 3431.36,890.778C3428.4,890.778 3426,887.391 3426,883.219C3426,879.658 3427.75,876.669 3430.1,875.87C3428.79,877.249 3427.94,879.452 3427.94,881.933C3427.94,886.104 3430.34,889.491 3433.3,889.491C3433.74,889.491 3434.16,889.419 3434.56,889.282Z" style="fill:rgb(239,162,83);"/>
                            </g>
                        </g>
                        <ellipse cx="3431.36" cy="883.219" rx="5.36" ry="7.558" style="fill:none;stroke:rgb(238,185,118);stroke-width:2.08px;"/>
                    </g>
                    <g transform="matrix(1,0,0,1,-150.618,0)">
                        <path d="M3626.14,882.474C3614.24,883.103 3614.58,896.832 3624.41,896.916" style="fill:none;stroke:rgb(185,122,56);stroke-width:4.17px;"/>
                    </g>
                </g>
                <path d="M3439.64,837.945C3445.11,834.655 3450.58,834.592 3456.07,838.078L3468.63,845.803C3490.2,854.217 3487.92,860.443 3477.24,865.897L3477.24,882.474C3482.57,883.738 3486.95,886.614 3490.24,891.336C3490.57,891.808 3490.75,892.366 3490.76,892.941C3490.84,896.275 3491.13,908.39 3491.2,911.605C3491.22,912.148 3490.98,912.667 3490.57,913.015C3487.51,915.558 3481.81,916.457 3479.09,916.751C3478.69,916.791 3478.3,916.665 3478,916.404C3477.71,916.143 3477.53,915.769 3477.51,915.371C3477.35,911.606 3476.64,901.763 3473.79,896.916C3476.73,901.47 3475.72,914.744 3477.56,916.881C3490.24,931.584 3401.26,931.92 3421.66,912.393L3421.66,892.726C3413.23,892.252 3407.08,890.064 3406.45,883.718L3406.45,867.082C3407,863.809 3408.89,862.363 3411.55,861.979C3412.27,861.874 3418.95,860.232 3419.71,879.469C3420.96,866.09 3412.58,859.704 3412.37,858.687C3411.22,853.164 3418.3,849.012 3426.74,845.086L3439.64,837.945Z" style="fill:none;stroke:rgb(112,84,50);stroke-width:4.17px;"/>
            </g>
        </g>
    </g>
</svg>
