<?xml version="1.0" encoding="UTF-8" standalone="no"?>
<!DOCTYPE svg PUBLIC "-//W3C//DTD SVG 1.1//EN" "http://www.w3.org/Graphics/SVG/1.1/DTD/svg11.dtd">
<svg width="100%" height="100%" viewBox="0 0 751 751" version="1.1" xmlns="http://www.w3.org/2000/svg" xmlns:xlink="http://www.w3.org/1999/xlink" xml:space="preserve" xmlns:serif="http://www.serif.com/" style="fill-rule:evenodd;clip-rule:evenodd;stroke-linecap:round;stroke-linejoin:round;stroke-miterlimit:2;">
    <g transform="matrix(1,0,0,1,-38,-7166)">
        <g id="eamIcon" transform="matrix(0.571646,0,0,0.615258,-1616.39,7166.74)">
            <rect x="2894.42" y="0" width="1312" height="1219" style="fill:none;"/>
            <g id="eam" transform="matrix(9.23415,0,0,8.57959,-26646.2,-6955.49)">
                <path d="M3235.96,857.401C3238.06,856.652 3239.69,854.967 3240.37,852.844C3241.13,850.482 3242.22,847.091 3243.41,843.368C3245.15,837.927 3249.43,833.675 3254.89,831.972C3260.34,830.269 3266.28,831.327 3270.82,834.809C3271.98,835.702 3273.09,836.557 3274.12,837.347C3278.04,840.366 3283.07,841.584 3287.94,840.701C3288.94,840.519 3290.01,840.326 3291.12,840.126C3296.73,839.108 3302.49,840.885 3306.56,844.889C3310.62,848.894 3312.49,854.625 3311.56,860.256C3311.16,862.678 3310.78,864.974 3310.45,866.969C3309.71,871.417 3310.91,875.968 3313.73,879.485C3313.73,879.485 3313.73,879.486 3313.73,879.487C3317.06,883.634 3318.25,889.098 3316.96,894.256C3315.66,899.413 3312.03,903.668 3307.14,905.754C3306.27,906.129 3305.43,906.485 3304.66,906.813C3301.47,908.175 3299.04,910.873 3298.03,914.188C3297.52,915.844 3296.92,917.799 3296.27,919.912C3294.52,925.597 3290.02,930.011 3284.3,931.639C3278.58,933.268 3272.42,931.889 3267.95,927.976C3267.3,927.411 3266.67,926.863 3266.07,926.338C3261.91,922.699 3256.2,921.379 3250.86,922.82C3250.86,922.821 3250.85,922.821 3250.85,922.822C3245.28,924.325 3239.33,922.935 3235,919.12C3230.67,915.305 3228.54,909.573 3229.33,903.857C3229.67,901.367 3230,899.016 3230.28,896.985C3230.89,892.553 3229.73,888.057 3227.06,884.471C3226.69,883.979 3226.31,883.468 3225.92,882.941C3222.89,878.876 3221.96,873.614 3223.43,868.761C3224.9,863.907 3228.58,860.037 3233.36,858.332C3234.31,857.992 3235.19,857.678 3235.96,857.401Z" style="fill:url(#_Radial1);"/>
                <clipPath id="_clip2">
                    <path d="M3235.96,857.401C3238.06,856.652 3239.69,854.967 3240.37,852.844C3241.13,850.482 3242.22,847.091 3243.41,843.368C3245.15,837.927 3249.43,833.675 3254.89,831.972C3260.34,830.269 3266.28,831.327 3270.82,834.809C3271.98,835.702 3273.09,836.557 3274.12,837.347C3278.04,840.366 3283.07,841.584 3287.94,840.701C3288.94,840.519 3290.01,840.326 3291.12,840.126C3296.73,839.108 3302.49,840.885 3306.56,844.889C3310.62,848.894 3312.49,854.625 3311.56,860.256C3311.16,862.678 3310.78,864.974 3310.45,866.969C3309.71,871.417 3310.91,875.968 3313.73,879.485C3313.73,879.485 3313.73,879.486 3313.73,879.487C3317.06,883.634 3318.25,889.098 3316.96,894.256C3315.66,899.413 3312.03,903.668 3307.14,905.754C3306.27,906.129 3305.43,906.485 3304.66,906.813C3301.47,908.175 3299.04,910.873 3298.03,914.188C3297.52,915.844 3296.92,917.799 3296.27,919.912C3294.52,925.597 3290.02,930.011 3284.3,931.639C3278.58,933.268 3272.42,931.889 3267.95,927.976C3267.3,927.411 3266.67,926.863 3266.07,926.338C3261.91,922.699 3256.2,921.379 3250.86,922.82C3250.86,922.821 3250.85,922.821 3250.85,922.822C3245.28,924.325 3239.33,922.935 3235,919.12C3230.67,915.305 3228.54,909.573 3229.33,903.857C3229.67,901.367 3230,899.016 3230.28,896.985C3230.89,892.553 3229.73,888.057 3227.06,884.471C3226.69,883.979 3226.31,883.468 3225.92,882.941C3222.89,878.876 3221.96,873.614 3223.43,868.761C3224.9,863.907 3228.58,860.037 3233.36,858.332C3234.31,857.992 3235.19,857.678 3235.96,857.401Z"/>
                </clipPath>
                <g clip-path="url(#_clip2)">
                    <g transform="matrix(0.820862,0,0,0.820862,584.307,162.766)">
                        <path d="M3288.02,901.74C3288.02,901.74 3267.16,916.968 3260.94,921.513C3260.5,921.829 3259.95,921.941 3259.43,921.818C3258.91,921.695 3258.46,921.349 3258.22,920.872C3254.92,914.498 3244.48,894.33 3244.48,894.33" style="fill:url(#_Linear3);"/>
                    </g>
                    <g transform="matrix(-0.820862,0,0,-0.820862,5955.35,1601.21)">
                        <path d="M3288.02,901.74C3288.02,901.74 3267.16,916.968 3260.94,921.513C3260.5,921.829 3259.95,921.941 3259.43,921.818C3258.91,921.695 3258.46,921.349 3258.22,920.872C3254.92,914.498 3244.48,894.33 3244.48,894.33" style="fill:url(#_Linear4);"/>
                    </g>
                    <g transform="matrix(-0.141244,0.808619,-0.808619,-0.141244,4437.77,-1638.11)">
                        <path d="M3288.02,901.74C3288.02,901.74 3267.16,916.968 3260.94,921.513C3260.5,921.829 3259.95,921.941 3259.43,921.818C3258.91,921.695 3258.46,921.349 3258.22,920.872C3254.92,914.498 3244.48,894.33 3244.48,894.33" style="fill:url(#_Linear5);"/>
                    </g>
                </g>
                <path d="M3235.96,857.401C3238.06,856.652 3239.69,854.967 3240.37,852.844C3241.13,850.482 3242.22,847.091 3243.41,843.368C3245.15,837.927 3249.43,833.675 3254.89,831.972C3260.34,830.269 3266.28,831.327 3270.82,834.809C3271.98,835.702 3273.09,836.557 3274.12,837.347C3278.04,840.366 3283.07,841.584 3287.94,840.701C3288.94,840.519 3290.01,840.326 3291.12,840.126C3296.73,839.108 3302.49,840.885 3306.56,844.889C3310.62,848.894 3312.49,854.625 3311.56,860.256C3311.16,862.678 3310.78,864.974 3310.45,866.969C3309.71,871.417 3310.91,875.968 3313.73,879.485C3313.73,879.485 3313.73,879.486 3313.73,879.487C3317.06,883.634 3318.25,889.098 3316.96,894.256C3315.66,899.413 3312.03,903.668 3307.14,905.754C3306.27,906.129 3305.43,906.485 3304.66,906.813C3301.47,908.175 3299.04,910.873 3298.03,914.188C3297.52,915.844 3296.92,917.799 3296.27,919.912C3294.52,925.597 3290.02,930.011 3284.3,931.639C3278.58,933.268 3272.42,931.889 3267.95,927.976C3267.3,927.411 3266.67,926.863 3266.07,926.338C3261.91,922.699 3256.2,921.379 3250.86,922.82C3250.86,922.821 3250.85,922.821 3250.85,922.822C3245.28,924.325 3239.33,922.935 3235,919.12C3230.67,915.305 3228.54,909.573 3229.33,903.857C3229.67,901.367 3230,899.016 3230.28,896.985C3230.89,892.553 3229.73,888.057 3227.06,884.471C3226.69,883.979 3226.31,883.468 3225.92,882.941C3222.89,878.876 3221.96,873.614 3223.43,868.761C3224.9,863.907 3228.58,860.037 3233.36,858.332C3234.31,857.992 3235.19,857.678 3235.96,857.401Z" style="fill:none;stroke:rgb(112,84,50);stroke-width:5px;"/>
            </g>
        </g>
    </g>
    <defs>
        <radialGradient id="_Radial1" cx="0" cy="0" r="1" gradientUnits="userSpaceOnUse" gradientTransform="matrix(71.4899,-0.410501,0.451373,78.6078,3270.37,882.69)"><stop offset="0" style="stop-color:rgb(250,227,155);stop-opacity:1"/><stop offset="0.42" style="stop-color:rgb(245,220,142);stop-opacity:1"/><stop offset="0.56" style="stop-color:rgb(234,204,110);stop-opacity:1"/><stop offset="0.68" style="stop-color:rgb(221,186,76);stop-opacity:1"/><stop offset="1" style="stop-color:rgb(197,152,10);stop-opacity:1"/></radialGradient>
        <linearGradient id="_Linear3" x1="0" y1="0" x2="1" y2="0" gradientUnits="userSpaceOnUse" gradientTransform="matrix(5.0158,-28.4075,28.4075,5.0158,3259.62,922.737)"><stop offset="0" style="stop-color:rgb(235,190,75);stop-opacity:1"/><stop offset="0.56" style="stop-color:rgb(246,216,131);stop-opacity:1"/><stop offset="1" style="stop-color:rgb(250,227,155);stop-opacity:1"/></linearGradient>
        <linearGradient id="_Linear4" x1="0" y1="0" x2="1" y2="0" gradientUnits="userSpaceOnUse" gradientTransform="matrix(7.34071,-29.3284,29.3284,7.34071,3258.91,921.916)"><stop offset="0" style="stop-color:rgb(235,190,75);stop-opacity:1"/><stop offset="0.56" style="stop-color:rgb(246,216,131);stop-opacity:1"/><stop offset="1" style="stop-color:rgb(250,227,155);stop-opacity:1"/></linearGradient>
        <linearGradient id="_Linear5" x1="0" y1="0" x2="1" y2="0" gradientUnits="userSpaceOnUse" gradientTransform="matrix(3.98161,-27.2858,27.2858,3.98161,3258.44,922.641)"><stop offset="0" style="stop-color:rgb(235,190,75);stop-opacity:1"/><stop offset="0.56" style="stop-color:rgb(246,216,131);stop-opacity:1"/><stop offset="1" style="stop-color:rgb(250,227,155);stop-opacity:1"/></linearGradient>
    </defs>
</svg>
