<?xml version="1.0" encoding="UTF-8" standalone="no"?>
<!DOCTYPE svg PUBLIC "-//W3C//DTD SVG 1.1//EN" "http://www.w3.org/Graphics/SVG/1.1/DTD/svg11.dtd">
<svg width="100%" height="100%" viewBox="0 0 751 751" version="1.1" xmlns="http://www.w3.org/2000/svg" xmlns:xlink="http://www.w3.org/1999/xlink" xml:space="preserve" xmlns:serif="http://www.serif.com/" style="fill-rule:evenodd;clip-rule:evenodd;stroke-linecap:round;stroke-linejoin:round;stroke-miterlimit:1.5;">
    <g transform="matrix(1,0,0,1,-1012,-6142)">
        <g id="instaIcon" transform="matrix(0.571646,0,0,0.615258,-641.654,6142.33)">
            <rect x="2894.42" y="0" width="1312" height="1219" style="fill:none;"/>
            <g id="insta" transform="matrix(1.32475,0.146898,-0.158105,1.23084,1372.15,-243.758)">
                <g transform="matrix(1.17949,0,0,1.2758,-534.138,-72.2639)">
                    <path d="M1757.72,296.356L1757.72,327.103C1757.72,335.588 1750.27,342.477 1741.09,342.477L1670.26,342.477C1661.08,342.477 1653.63,335.588 1653.63,327.103L1653.63,296.356C1653.63,287.871 1661.08,280.983 1670.26,280.983L1741.09,280.983C1750.27,280.983 1757.72,287.871 1757.72,296.356Z" style="fill:rgb(239,122,205);"/>
                </g>
                <g transform="matrix(1,0,0,1,9.08715,0)">
                    <path d="M1839.2,332.605L1926.63,332.605C1981.78,332.605 2026.55,377.377 2026.55,432.524L2026.55,632.36C2026.55,687.507 1981.78,732.278 1926.63,732.278L1470.87,732.278C1415.72,732.278 1370.95,687.507 1370.95,632.36L1370.95,432.524C1370.95,377.377 1415.72,332.605 1470.87,332.605L1566.03,332.605L1566.03,250.778C1566.03,240.631 1574.27,232.393 1584.41,232.393L1820.81,232.393C1830.96,232.393 1839.2,240.631 1839.2,250.778L1839.2,332.605Z" style="fill:rgb(85,68,58);"/>
                    <clipPath id="_clip1">
                        <path d="M1839.2,332.605L1926.63,332.605C1981.78,332.605 2026.55,377.377 2026.55,432.524L2026.55,632.36C2026.55,687.507 1981.78,732.278 1926.63,732.278L1470.87,732.278C1415.72,732.278 1370.95,687.507 1370.95,632.36L1370.95,432.524C1370.95,377.377 1415.72,332.605 1470.87,332.605L1566.03,332.605L1566.03,250.778C1566.03,240.631 1574.27,232.393 1584.41,232.393L1820.81,232.393C1830.96,232.393 1839.2,240.631 1839.2,250.778L1839.2,332.605Z"/>
                    </clipPath>
                    <g clip-path="url(#_clip1)">
                        <g transform="matrix(1,-1.38778e-17,1.38778e-17,0.98472,-2.25202,5.23291)">
                            <path d="M1757.72,296.356L1757.72,327.103C1757.72,335.588 1750.94,342.477 1742.58,342.477L1668.77,342.477C1660.41,342.477 1653.63,335.588 1653.63,327.103L1653.63,296.356C1653.63,287.871 1660.41,280.983 1668.77,280.983L1742.58,280.983C1750.94,280.983 1757.72,287.871 1757.72,296.356Z" style="fill:white;"/>
                        </g>
                        <g transform="matrix(1.47484,-2.77556e-17,2.77556e-17,1.48414,-802.687,-253.721)">
                            <circle cx="1699.25" cy="532.693" r="105.134" style="fill:white;"/>
                        </g>
                        <g transform="matrix(1,-1.38778e-17,1.38778e-17,1,-9.08715,1.13687e-13)">
                            <g transform="matrix(1.03973,0,0,1.03973,-54.2411,-16.9854)">
                                <circle cx="1699.25" cy="532.693" r="105.134" style="fill:rgb(156,108,231);"/>
                            </g>
                            <g transform="matrix(1,0,0,1,9.08715,0)">
                                <path d="M1698.75,459.865C1698.75,459.865 1736.77,454.812 1767.67,509.503" style="fill:none;stroke:white;stroke-width:29.17px;"/>
                            </g>
                            <g transform="matrix(0.193909,0,0,0.193909,1441.03,440.591)">
                                <circle cx="1776.41" cy="546.577" r="105.134" style="fill:white;"/>
                            </g>
                        </g>
                    </g>
                </g>
            </g>
        </g>
    </g>
</svg>
