<?xml version="1.0" encoding="UTF-8" standalone="no"?>
<!DOCTYPE svg PUBLIC "-//W3C//DTD SVG 1.1//EN" "http://www.w3.org/Graphics/SVG/1.1/DTD/svg11.dtd">
<svg width="100%" height="100%" viewBox="0 0 751 751" version="1.1" xmlns="http://www.w3.org/2000/svg" xmlns:xlink="http://www.w3.org/1999/xlink" xml:space="preserve" xmlns:serif="http://www.serif.com/" style="fill-rule:evenodd;clip-rule:evenodd;stroke-linecap:round;stroke-linejoin:round;stroke-miterlimit:1.5;">
    <g transform="matrix(1,0,0,1,-1987,-5125)">
        <g id="mapIcon" transform="matrix(0.571646,0,0,0.615258,333.077,5125.19)">
            <rect x="2894.42" y="0" width="1312" height="1219" style="fill:none;"/>
            <g id="map" transform="matrix(3.88886,0,0,3.6132,-20810.7,54.4429)">
                <path d="M6172.43,197.857C6171.2,198.115 6169.94,197.596 6169.25,196.549C6166.11,191.809 6157.68,179.027 6153.83,173.192C6153.34,172.446 6153.2,171.524 6153.44,170.665C6153.69,169.806 6154.29,169.095 6155.1,168.719C6218,139.345 6267.87,98.085 6314.84,54.173C6315.47,53.575 6316.34,53.278 6317.21,53.357C6318.08,53.436 6318.88,53.883 6319.4,54.586C6323.46,60.068 6332.46,72.2 6336.06,77.057C6336.9,78.202 6336.85,79.781 6335.93,80.869C6333.16,84.124 6331.5,88.341 6331.5,92.943C6331.5,103.28 6339.89,111.672 6350.23,111.672C6352.85,111.672 6355.34,111.135 6357.6,110.165C6358.9,109.584 6360.43,109.986 6361.28,111.131C6364.55,115.497 6372.12,125.706 6375.32,130.02C6376.18,131.178 6376.11,132.778 6375.17,133.865C6330.52,184.951 6275.52,225.021 6210.44,254.352C6209.07,254.969 6207.45,254.499 6206.62,253.242C6203.21,248.072 6194.68,235.133 6191.52,230.334C6190.82,229.285 6190.84,227.919 6191.56,226.888C6193.68,223.862 6194.92,220.179 6194.92,216.208C6194.92,205.872 6186.53,197.479 6176.19,197.479C6174.9,197.479 6173.65,197.609 6172.43,197.857Z" style="fill:url(#_Linear1);"/>
                <clipPath id="_clip2">
                    <path d="M6172.43,197.857C6171.2,198.115 6169.94,197.596 6169.25,196.549C6166.11,191.809 6157.68,179.027 6153.83,173.192C6153.34,172.446 6153.2,171.524 6153.44,170.665C6153.69,169.806 6154.29,169.095 6155.1,168.719C6218,139.345 6267.87,98.085 6314.84,54.173C6315.47,53.575 6316.34,53.278 6317.21,53.357C6318.08,53.436 6318.88,53.883 6319.4,54.586C6323.46,60.068 6332.46,72.2 6336.06,77.057C6336.9,78.202 6336.85,79.781 6335.93,80.869C6333.16,84.124 6331.5,88.341 6331.5,92.943C6331.5,103.28 6339.89,111.672 6350.23,111.672C6352.85,111.672 6355.34,111.135 6357.6,110.165C6358.9,109.584 6360.43,109.986 6361.28,111.131C6364.55,115.497 6372.12,125.706 6375.32,130.02C6376.18,131.178 6376.11,132.778 6375.17,133.865C6330.52,184.951 6275.52,225.021 6210.44,254.352C6209.07,254.969 6207.45,254.499 6206.62,253.242C6203.21,248.072 6194.68,235.133 6191.52,230.334C6190.82,229.285 6190.84,227.919 6191.56,226.888C6193.68,223.862 6194.92,220.179 6194.92,216.208C6194.92,205.872 6186.53,197.479 6176.19,197.479C6174.9,197.479 6173.65,197.609 6172.43,197.857Z"/>
                </clipPath>
                <g clip-path="url(#_clip2)">
                    <path d="M6317.35,51.819C6317.35,51.819 6331.34,70.689 6336.06,77.057C6336.9,78.202 6336.85,79.781 6335.93,80.869C6333.16,84.124 6331.5,88.341 6331.5,92.943C6331.5,103.28 6339.89,111.672 6350.23,111.672C6352.85,111.672 6355.34,111.135 6357.6,110.165C6358.9,109.584 6360.43,109.986 6361.28,111.131C6364.55,115.496 6372.12,125.705 6375.32,130.019C6376.18,131.178 6376.11,132.778 6375.17,133.865C6365.33,145.122 6354.99,155.845 6344.15,166.036" style="fill:none;stroke:rgb(244,250,237);stroke-width:20.83px;"/>
                    <g transform="matrix(1,0,0,1,-4.11119,4.11119)">
                        <path d="M6280.24,79.924L6283.54,77.377L6287.47,82.46L6284.17,85.008L6280.24,79.924ZM6287.14,88.855L6290.44,86.308L6295.75,93.177L6292.45,95.725L6287.14,88.855ZM6295.42,99.572L6298.72,97.025L6304.03,103.894L6300.73,106.442L6295.42,99.572ZM6303.7,110.289L6307,107.742L6312.31,114.611L6309.01,117.159L6303.7,110.289ZM6311.98,121.006L6315.28,118.459L6320.59,125.329L6317.29,127.876L6311.98,121.006ZM6320.26,131.723L6323.56,129.176L6328.87,136.045L6325.57,138.593L6320.26,131.723ZM6328.54,142.44L6331.84,139.893L6337.15,146.763L6333.85,149.31L6328.54,142.44ZM6336.82,153.157L6340.12,150.61L6345.43,157.48L6342.13,160.027L6336.82,153.157ZM6345.1,163.875L6348.4,161.327L6352.33,166.411L6349.03,168.958L6345.1,163.875Z" style="fill:rgb(124,151,172);"/>
                    </g>
                    <g transform="matrix(0.797723,-0.603024,0.383033,0.506704,1259.39,3785.03)">
                        <path d="M6217.51,188.268L6217.51,200.542C6217.51,203.841 6215.81,206.52 6213.71,206.52L6206.12,206.52C6204.02,206.52 6202.32,203.841 6202.32,200.542L6202.32,188.268C6202.32,184.969 6204.02,182.291 6206.12,182.291L6213.71,182.291C6215.81,182.291 6217.51,184.969 6217.51,188.268Z" style="fill:rgb(186,212,235);"/>
                    </g>
                    <g transform="matrix(1,0,0,1,-0.521057,6.66134e-16)">
                        <path d="M6282.67,109.164C6266.36,122.897 6200.86,165.457 6183.68,173.836" style="fill:none;stroke:rgb(186,212,235);stroke-width:4.17px;"/>
                    </g>
                    <g transform="matrix(1,0,0,1,38.2693,59.8643)">
                        <path d="M6281.74,103.919C6248.67,130.881 6218.56,152.937 6182.39,169.981" style="fill:none;stroke:rgb(186,212,235);stroke-width:4.17px;"/>
                    </g>
                    <g transform="matrix(1,0,0,1,41.6098,36.5391)">
                        <path d="M6246.98,126.053C6248.88,124.758 6251.48,125.25 6252.77,127.15C6254.07,129.051 6253.57,131.645 6251.68,132.94C6249.77,134.235 6247.18,133.743 6245.89,131.843C6244.59,129.942 6245.08,127.348 6246.98,126.053ZM6239.79,130.962C6241.69,129.664 6244.28,130.153 6245.58,132.052C6246.88,133.95 6246.39,136.545 6244.49,137.842C6242.59,139.14 6240,138.651 6238.7,136.752C6237.4,134.854 6237.89,132.259 6239.79,130.962ZM6232.61,135.869C6234.51,134.573 6237.1,135.063 6238.4,136.962C6239.69,138.862 6239.2,141.456 6237.3,142.753C6235.4,144.049 6232.81,143.559 6231.51,141.659C6230.22,139.76 6230.71,137.165 6232.61,135.869ZM6225.43,140.744C6227.33,139.459 6229.93,139.965 6231.21,141.872C6232.49,143.779 6231.99,146.371 6230.08,147.656C6228.18,148.94 6225.58,148.435 6224.3,146.528C6223.01,144.621 6223.52,142.029 6225.43,140.744ZM6218.24,145.497C6220.17,144.252 6222.75,144.811 6224,146.744C6225.24,148.677 6224.69,151.258 6222.75,152.503C6220.82,153.748 6218.24,153.19 6216.99,151.257C6215.75,149.323 6216.31,146.743 6218.24,145.497ZM6210.98,149.981C6212.96,148.814 6215.52,149.476 6216.68,151.458C6217.85,153.44 6217.19,155.996 6215.2,157.163C6213.22,158.329 6210.67,157.667 6209.5,155.685C6208.33,153.703 6209,151.147 6210.98,149.981ZM6203.52,154.183C6205.54,153.085 6208.07,153.833 6209.17,155.854C6210.27,157.874 6209.52,160.406 6207.5,161.504C6205.48,162.603 6202.95,161.854 6201.85,159.834C6200.75,157.813 6201.5,155.281 6203.52,154.183ZM6195.89,158.248C6197.93,157.178 6200.45,157.963 6201.52,159.998C6202.59,162.034 6201.8,164.555 6199.77,165.625C6197.73,166.695 6195.21,165.911 6194.14,163.875C6193.07,161.839 6193.86,159.318 6195.89,158.248ZM6188.19,162.27C6190.23,161.208 6192.75,162.002 6193.81,164.042C6194.87,166.082 6194.08,168.6 6192.04,169.662C6190,170.724 6187.48,169.929 6186.42,167.889C6185.36,165.849 6186.15,163.331 6188.19,162.27ZM6180.47,166.284C6182.51,165.223 6185.03,166.018 6186.09,168.058C6187.15,170.099 6186.36,172.617 6184.32,173.677C6182.28,174.738 6179.76,173.943 6178.7,171.903C6177.64,169.863 6178.43,167.345 6180.47,166.284Z" style="fill:rgb(186,212,235);"/>
                    </g>
                    <g transform="matrix(0.843519,-0.537099,0.46328,0.727586,885.186,3381.58)">
                        <path d="M6217.51,186.693L6217.51,202.118C6217.51,204.547 6215.81,206.52 6213.71,206.52L6206.12,206.52C6204.02,206.52 6202.32,204.547 6202.32,202.118L6202.32,186.693C6202.32,184.263 6204.02,182.291 6206.12,182.291L6213.71,182.291C6215.81,182.291 6217.51,184.263 6217.51,186.693Z" style="fill:rgb(186,212,235);"/>
                    </g>
                    <g transform="matrix(0.843519,-0.537099,0.300665,0.472197,933.328,3425.5)">
                        <path d="M6217.51,188.348L6217.51,200.463C6217.51,203.806 6215.99,206.52 6214.12,206.52L6205.71,206.52C6203.84,206.52 6202.32,203.806 6202.32,200.463L6202.32,188.348C6202.32,185.005 6203.84,182.291 6205.71,182.291L6214.12,182.291C6215.99,182.291 6217.51,185.005 6217.51,188.348Z" style="fill:rgb(186,212,235);"/>
                    </g>
                    <g transform="matrix(0.843519,-0.537099,0.430452,0.676029,921.82,3374.06)">
                        <path d="M6217.51,187.029L6217.51,201.782C6217.51,204.397 6215.81,206.52 6213.71,206.52L6206.12,206.52C6204.02,206.52 6202.32,204.397 6202.32,201.782L6202.32,187.029C6202.32,184.414 6204.02,182.291 6206.12,182.291L6213.71,182.291C6215.81,182.291 6217.51,184.414 6217.51,187.029Z" style="fill:rgb(186,212,235);"/>
                    </g>
                    <g transform="matrix(0.843519,-0.537099,0.269178,0.422747,967.922,3414.07)">
                        <path d="M6217.51,188.348L6217.51,200.463C6217.51,203.806 6216.15,206.52 6214.47,206.52L6205.36,206.52C6203.68,206.52 6202.32,203.806 6202.32,200.463L6202.32,188.348C6202.32,185.005 6203.68,182.291 6205.36,182.291L6214.47,182.291C6216.15,182.291 6217.51,185.005 6217.51,188.348Z" style="fill:rgb(186,212,235);"/>
                    </g>
                    <g transform="matrix(0.843519,-0.537099,0.458061,0.719389,945.261,3345.14)">
                        <path d="M6217.51,186.743L6217.51,202.068C6217.51,204.525 6215.81,206.52 6213.71,206.52L6206.12,206.52C6204.02,206.52 6202.32,204.525 6202.32,202.068L6202.32,186.743C6202.32,184.286 6204.02,182.291 6206.12,182.291L6213.71,182.291C6215.81,182.291 6217.51,184.286 6217.51,186.743Z" style="fill:rgb(186,212,235);"/>
                    </g>
                </g>
                <path d="M6172.43,197.857C6171.2,198.115 6169.94,197.596 6169.25,196.549C6166.11,191.809 6157.68,179.027 6153.83,173.192C6153.34,172.446 6153.2,171.524 6153.44,170.665C6153.69,169.806 6154.29,169.095 6155.1,168.719C6218,139.345 6267.87,98.085 6314.84,54.173C6315.47,53.575 6316.34,53.278 6317.21,53.357C6318.08,53.436 6318.88,53.883 6319.4,54.586C6323.46,60.068 6332.46,72.2 6336.06,77.057C6336.9,78.202 6336.85,79.781 6335.93,80.869C6333.16,84.124 6331.5,88.341 6331.5,92.943C6331.5,103.28 6339.89,111.672 6350.23,111.672C6352.85,111.672 6355.34,111.135 6357.6,110.165C6358.9,109.584 6360.43,109.986 6361.28,111.131C6364.55,115.497 6372.12,125.706 6375.32,130.02C6376.18,131.178 6376.11,132.778 6375.17,133.865C6330.52,184.951 6275.52,225.021 6210.44,254.352C6209.07,254.969 6207.45,254.499 6206.62,253.242C6203.21,248.072 6194.68,235.133 6191.52,230.334C6190.82,229.285 6190.84,227.919 6191.56,226.888C6193.68,223.862 6194.92,220.179 6194.92,216.208C6194.92,205.872 6186.53,197.479 6176.19,197.479C6174.9,197.479 6173.65,197.609 6172.43,197.857Z" style="fill:none;stroke:rgb(58,73,81);stroke-width:16.67px;"/>
            </g>
        </g>
    </g>
    <defs>
        <linearGradient id="_Linear1" x1="0" y1="0" x2="1" y2="0" gradientUnits="userSpaceOnUse" gradientTransform="matrix(-142.422,101.815,-101.815,-142.422,6335.89,103.867)"><stop offset="0" style="stop-color:rgb(104,180,255);stop-opacity:1"/><stop offset="0.14" style="stop-color:rgb(124,190,252);stop-opacity:1"/><stop offset="0.22" style="stop-color:rgb(244,250,237);stop-opacity:1"/><stop offset="0.41" style="stop-color:rgb(231,240,230);stop-opacity:1"/><stop offset="0.58" style="stop-color:rgb(229,239,229);stop-opacity:1"/><stop offset="0.68" style="stop-color:rgb(220,230,224);stop-opacity:1"/><stop offset="0.89" style="stop-color:rgb(222,231,225);stop-opacity:1"/><stop offset="1" style="stop-color:rgb(231,240,230);stop-opacity:1"/></linearGradient>
    </defs>
</svg>
