<?xml version="1.0" encoding="UTF-8" standalone="no"?>
<!DOCTYPE svg PUBLIC "-//W3C//DTD SVG 1.1//EN" "http://www.w3.org/Graphics/SVG/1.1/DTD/svg11.dtd">
<svg width="100%" height="100%" viewBox="0 0 751 751" version="1.1" xmlns="http://www.w3.org/2000/svg" xmlns:xlink="http://www.w3.org/1999/xlink" xml:space="preserve" xmlns:serif="http://www.serif.com/" style="fill-rule:evenodd;clip-rule:evenodd;stroke-linecap:round;stroke-linejoin:round;stroke-miterlimit:2;">
    <g transform="matrix(1,0,0,1,-1012,-5125)">
        <g id="podcastIcon" transform="matrix(0.571646,0,0,0.615258,-641.654,5125.19)">
            <rect x="2894.42" y="0" width="1312" height="1219" style="fill:none;"/>
            <g id="ztcPodcast" transform="matrix(12.935,0,3.969e-15,12.0182,-36610,-10044.6)">
                <path d="M3114.38,910.787C3114.38,920.198 3104.65,927.839 3092.67,927.839C3080.69,927.839 3070.97,920.198 3070.97,910.787C3070.97,901.376 3080.69,893.735 3092.67,893.735C3095.87,893.735 3098.91,894.28 3101.65,895.258L3101.65,849.045C3101.65,847.478 3102.59,846.065 3104.04,845.465C3105.49,844.865 3107.15,845.197 3108.26,846.305L3133.06,871.105C3137.35,875.393 3139.32,881.48 3138.35,887.466C3137.38,893.452 3133.59,898.606 3128.16,901.319C3128.04,901.371 3127.92,901.431 3127.8,901.491C3127.35,901.707 3126.82,901.652 3126.43,901.351C3124.03,899.598 3124.28,898.037 3125.12,896.421C3126.82,893.105 3126.19,889.072 3123.55,886.437C3120.93,883.806 3117.52,880.399 3115.7,878.577C3115.49,878.362 3115.16,878.298 3114.88,878.414C3114.6,878.531 3114.42,878.805 3114.42,879.109L3114.42,910.787L3114.38,910.787Z" style="fill:rgb(255,236,118);"/>
                <clipPath id="_clip1">
                    <path d="M3114.38,910.787C3114.38,920.198 3104.65,927.839 3092.67,927.839C3080.69,927.839 3070.97,920.198 3070.97,910.787C3070.97,901.376 3080.69,893.735 3092.67,893.735C3095.87,893.735 3098.91,894.28 3101.65,895.258L3101.65,849.045C3101.65,847.478 3102.59,846.065 3104.04,845.465C3105.49,844.865 3107.15,845.197 3108.26,846.305L3133.06,871.105C3137.35,875.393 3139.32,881.48 3138.35,887.466C3137.38,893.452 3133.59,898.606 3128.16,901.319C3128.04,901.371 3127.92,901.431 3127.8,901.491C3127.35,901.707 3126.82,901.652 3126.43,901.351C3124.03,899.598 3124.28,898.037 3125.12,896.421C3126.82,893.105 3126.19,889.072 3123.55,886.437C3120.93,883.806 3117.52,880.399 3115.7,878.577C3115.49,878.362 3115.16,878.298 3114.88,878.414C3114.6,878.531 3114.42,878.805 3114.42,879.109L3114.42,910.787L3114.38,910.787Z"/>
                </clipPath>
                <g clip-path="url(#_clip1)">
                    <g transform="matrix(0.937314,0,0,0.947918,192.507,44.0183)">
                        <path d="M3114.38,910.787C3114.38,920.198 3104.65,927.839 3092.67,927.839C3080.69,927.839 3070.97,924.418 3070.97,915.007C3070.97,905.595 3080.69,897.955 3092.67,897.955C3095.87,897.955 3101.05,898.5 3103.78,899.478L3103.78,849.045C3103.78,847.478 3104.72,846.065 3106.17,845.465C3107.62,844.865 3107.15,845.197 3108.26,846.305L3133.06,871.105C3137.35,875.393 3139.32,881.48 3138.35,887.466C3137.38,893.452 3133.59,898.606 3128.16,901.319C3128.04,901.371 3127.92,901.431 3127.8,901.491C3127.35,901.707 3126.82,901.652 3126.43,901.351C3124.03,899.598 3124.28,898.037 3125.12,896.421C3126.82,893.105 3126.19,889.072 3123.55,886.437C3120.93,883.806 3117.52,880.399 3115.7,878.577C3115.49,878.362 3115.16,878.298 3114.88,878.414C3114.6,878.531 3114.42,878.805 3114.42,879.109L3114.42,910.787L3114.38,910.787Z" style="fill:none;stroke:rgb(255,191,0);stroke-width:4.17px;"/>
                    </g>
                    <g transform="matrix(0.966743,0,0,0.975944,102.132,20.3318)">
                        <path d="M3114.38,910.787C3114.38,920.198 3104.65,927.839 3092.67,927.839C3080.69,927.839 3070.97,920.198 3070.97,910.787C3070.97,901.376 3080.69,893.735 3092.67,893.735C3095.87,893.735 3098.91,894.28 3101.65,895.258L3101.65,849.045C3101.65,847.478 3102.59,846.065 3104.04,845.465C3105.49,844.865 3107.15,844.172 3108.26,845.28L3133.06,870.081C3137.35,874.368 3139.32,881.48 3138.35,887.466C3137.38,893.452 3133.59,898.606 3128.16,901.319C3128.04,901.371 3127.92,901.431 3127.8,901.491C3127.35,901.707 3126.82,901.652 3126.43,901.351C3124.03,899.598 3124.28,898.037 3125.12,896.421C3126.82,893.105 3126.19,889.072 3123.55,886.437C3120.93,883.806 3117.52,880.399 3115.7,878.577C3115.49,878.362 3115.16,878.298 3114.88,878.414C3114.6,878.531 3114.42,878.805 3114.42,879.109L3114.42,910.787L3114.38,910.787Z" style="fill:none;stroke:rgb(240,157,0);stroke-width:4.17px;"/>
                    </g>
                </g>
                <path d="M3114.38,910.787C3114.38,920.198 3104.65,927.839 3092.67,927.839C3080.69,927.839 3070.97,920.198 3070.97,910.787C3070.97,901.376 3080.69,893.735 3092.67,893.735C3095.87,893.735 3098.91,894.28 3101.65,895.258L3101.65,849.045C3101.65,847.478 3102.59,846.065 3104.04,845.465C3105.49,844.865 3107.15,845.197 3108.26,846.305L3133.06,871.105C3137.35,875.393 3139.32,881.48 3138.35,887.466C3137.38,893.452 3133.59,898.606 3128.16,901.319C3128.04,901.371 3127.92,901.431 3127.8,901.491C3127.35,901.707 3126.82,901.652 3126.43,901.351C3124.03,899.598 3124.28,898.037 3125.12,896.421C3126.82,893.105 3126.19,889.072 3123.55,886.437C3120.93,883.806 3117.52,880.399 3115.7,878.577C3115.49,878.362 3115.16,878.298 3114.88,878.414C3114.6,878.531 3114.42,878.805 3114.42,879.109L3114.42,910.787L3114.38,910.787Z" style="fill:none;stroke:rgb(112,84,50);stroke-width:4.17px;"/>
            </g>
        </g>
    </g>
</svg>
