<?xml version="1.0" encoding="UTF-8" standalone="no"?>
<!DOCTYPE svg PUBLIC "-//W3C//DTD SVG 1.1//EN" "http://www.w3.org/Graphics/SVG/1.1/DTD/svg11.dtd">
<svg width="100%" height="100%" viewBox="0 0 1312 1220" version="1.1" xmlns="http://www.w3.org/2000/svg" xmlns:xlink="http://www.w3.org/1999/xlink" xml:space="preserve" xmlns:serif="http://www.serif.com/" style="fill-rule:evenodd;clip-rule:evenodd;stroke-linecap:round;stroke-linejoin:round;stroke-miterlimit:1.5;">
    <g transform="matrix(1,0,0,1,0,-52)">
        <g id="progress" transform="matrix(0.437333,0,0,0.406333,0,52.4631)">
            <rect x="0" y="0" width="3000" height="3000" style="fill:none;"/>
            <g id="postBG" transform="matrix(2.28659,0,0,2.46103,0,0)">
                <path d="M1287.25,55.18L1287.25,1169.02C1287.25,1178.93 1279.21,1186.97 1269.3,1186.97L155.795,1186.97C145.888,1186.97 137.845,1178.93 137.845,1169.02L137.845,55.18C137.845,45.273 145.888,37.23 155.795,37.23L1269.3,37.23C1279.21,37.23 1287.25,45.273 1287.25,55.18Z" style="fill:rgb(247,168,184);"/>
            </g>
            <g id="postContent" transform="matrix(2.12961,0,0,2.15427,111.912,106.654)">
                <path d="M1287.25,73.875L1287.25,1150.32C1287.25,1170.55 1271.82,1186.97 1252.81,1186.97L172.287,1186.97C153.278,1186.97 137.845,1170.55 137.845,1150.32L137.845,73.875C137.845,53.65 153.278,37.23 172.287,37.23L1252.81,37.23C1271.82,37.23 1287.25,53.65 1287.25,73.875Z" style="fill:white;"/>
            </g>
            <g id="textFrame">
            </g>
            <g transform="matrix(2.28659,0,0,2.46103,119.208,-2.60224)">
                <g transform="matrix(27.5323,0,0,27.5323,286.135,1027.12)">
                </g>
                <text x="163.066px" y="1027.12px" style="font-family:'SeuratPro-B', 'FOT-Seurat Pro', serif;font-weight:700;font-stretch:extra-expanded;font-size:27.532px;fill:rgb(112,84,50);">(more...)</text>
            </g>
            <g id="postTypeBanner" transform="matrix(2.28659,0,0,2.46103,0,0)">
                <path d="M1247.81,101.031L1247.81,176.343L48.035,176.343C34.18,176.343 22.931,165.095 22.931,151.239L22.931,101.031C22.931,87.175 34.18,75.927 48.035,75.927L1222.7,75.927C1236.56,75.927 1247.81,87.175 1247.81,101.031Z" style="fill:rgb(85,205,252);"/>
            </g>
            <g id="progressIcon" transform="matrix(1.39555,1.5621e-17,-5.207e-18,1.5131,-4423.57,-668.046)">
                <rect x="3255.13" y="598.552" width="87.636" height="104.706" style="fill:url(#_Linear1);"/>
                <g>
                    <g transform="matrix(0.270488,1.92388e-17,-8.55031e-17,0.268508,5343.92,1663.41)">
                        <path d="M-7647.87,-3859.78L-7614.49,-3835.01" style="fill:none;stroke:rgb(85,205,252);stroke-width:25px;"/>
                    </g>
                    <g transform="matrix(-0.270488,-1.92388e-17,-8.55031e-17,0.268508,1253.97,1663.41)">
                        <path d="M-7647.87,-3859.78L-7614.49,-3835.01" style="fill:none;stroke:rgb(85,205,252);stroke-width:25px;"/>
                    </g>
                    <g transform="matrix(0.270488,1.92388e-17,-8.55031e-17,0.268508,5343.92,1663.41)">
                        <path d="M-7614.49,-3891.29L-7591.66,-3859.78" style="fill:none;stroke:rgb(247,168,184);stroke-width:25px;"/>
                    </g>
                    <g transform="matrix(-0.270488,-1.92388e-17,-8.55031e-17,0.268508,1253.97,1663.41)">
                        <path d="M-7614.49,-3891.29L-7591.66,-3859.78" style="fill:none;stroke:rgb(247,168,184);stroke-width:25px;"/>
                    </g>
                    <g transform="matrix(0.270488,1.92388e-17,-8.55031e-17,0.268508,5345.16,1663.41)">
                        <path d="M-7564.91,-3865.84L-7564.91,-3905.01" style="fill:none;stroke:rgb(247,245,230);stroke-width:25px;"/>
                    </g>
                </g>
                <g transform="matrix(0.194076,1.38039e-17,-6.13487e-17,0.192655,4791.85,1368.25)">
                    <g transform="matrix(1.10942,0,0,1.10942,705.639,473.906)">
                        <path d="M-7685.56,-3712.97C-7685.71,-3714.17 -7685.78,-3715.39 -7685.78,-3716.64C-7685.78,-3729.95 -7677.15,-3741.25 -7665.2,-3745.22C-7664.62,-3745.41 -7664.08,-3745.68 -7663.61,-3746.03C-7662.18,-3747.07 -7661.28,-3748.76 -7661.28,-3750.6L-7661.23,-3750.6C-7661.23,-3807.21 -7620.35,-3853.26 -7569.75,-3854C-7519.14,-3853.26 -7478.26,-3807.21 -7478.26,-3750.6L-7478.21,-3750.6C-7478.21,-3748.76 -7477.32,-3747.07 -7475.89,-3746.03C-7475.41,-3745.68 -7474.87,-3745.41 -7474.29,-3745.22C-7462.34,-3741.25 -7453.71,-3729.95 -7453.71,-3716.64C-7453.71,-3715.39 -7453.78,-3714.17 -7453.93,-3712.97C-7453.78,-3711.77 -7453.71,-3710.54 -7453.71,-3709.3C-7453.71,-3692.69 -7467.16,-3679.2 -7483.72,-3679.2C-7486.77,-3679.2 -7489.71,-3679.66 -7492.48,-3680.5C-7496.24,-3681.67 -7500.34,-3680.52 -7502.94,-3677.56C-7508.26,-3671.57 -7514.25,-3666.33 -7520.77,-3661.95C-7521.64,-3661.38 -7522.4,-3660.69 -7523.04,-3659.91C-7525.46,-3656.93 -7526.01,-3652.71 -7524.19,-3649.12C-7523.54,-3647.73 -7522.99,-3646.66 -7522.86,-3646.39C-7522.83,-3646.34 -7522.85,-3646.28 -7522.9,-3646.25C-7523.27,-3645.64 -7519.99,-3642.43 -7515.43,-3639.59C-7509.36,-3635.81 -7501.01,-3632.69 -7495.93,-3637.25C-7434.15,-3692.67 -7451.4,-3602.42 -7499.86,-3602.51C-7502.85,-3602.47 -7505.66,-3601.09 -7507.51,-3598.75C-7509.37,-3596.41 -7510.07,-3593.35 -7509.43,-3590.43C-7506.54,-3577.09 -7505.6,-3561.1 -7507.19,-3560.5C-7525.55,-3553.68 -7613.95,-3553.68 -7632.3,-3560.5C-7633.9,-3561.1 -7632.95,-3577.09 -7630.06,-3590.43C-7629.42,-3593.35 -7630.12,-3596.41 -7631.98,-3598.75C-7633.84,-3601.09 -7636.65,-3602.47 -7639.63,-3602.51C-7688.09,-3602.42 -7705.34,-3692.67 -7643.56,-3637.25C-7638.48,-3632.69 -7630.14,-3635.81 -7624.06,-3639.59C-7619.5,-3642.43 -7616.22,-3645.64 -7616.59,-3646.25C-7616.64,-3646.28 -7616.66,-3646.34 -7616.64,-3646.39C-7616.5,-3646.66 -7615.95,-3647.73 -7615.31,-3649.12C-7613.48,-3652.71 -7614.03,-3656.93 -7616.45,-3659.91C-7617.09,-3660.69 -7617.85,-3661.38 -7618.73,-3661.95C-7625.24,-3666.33 -7631.23,-3671.57 -7636.55,-3677.56C-7639.15,-3680.52 -7643.25,-3681.67 -7647.01,-3680.5C-7649.78,-3679.66 -7652.72,-3679.2 -7655.77,-3679.2C-7672.33,-3679.2 -7685.78,-3692.69 -7685.78,-3709.3C-7685.78,-3710.54 -7685.71,-3711.77 -7685.56,-3712.97Z" style="fill:rgb(247,245,230);"/>
                    </g>
                    <g transform="matrix(1.70538,0,0,1.79123,-8574.96,-9470.72)">
                        <path d="M477.898,3194.48C477.578,3195.01 477.734,3195.69 478.259,3196.05C478.785,3196.41 479.51,3196.33 479.939,3195.87C479.948,3195.86 479.957,3195.85 479.966,3195.84C480.108,3195.69 480.316,3195.61 480.529,3195.62C480.743,3195.63 480.938,3195.74 481.061,3195.91C482.672,3198.11 487.733,3205.02 490.467,3208.76C490.87,3209.31 491.534,3209.64 492.238,3209.62C492.943,3209.62 493.596,3209.27 493.982,3208.71C495.72,3206.18 498.4,3202.28 500.194,3199.67C500.597,3199.08 501.29,3198.73 502.025,3198.75C502.76,3198.77 503.433,3199.15 503.802,3199.76C505.691,3202.86 508.693,3207.78 510.516,3210.77C510.869,3211.35 511.5,3211.72 512.2,3211.77C512.901,3211.82 513.581,3211.53 514.015,3211.01C516.284,3208.26 520.018,3203.75 522.224,3201.09C522.642,3200.58 523.288,3200.29 523.963,3200.32C524.638,3200.34 525.262,3200.67 525.642,3201.2C527.759,3204.16 531.45,3209.32 533.687,3212.45C534.096,3213.03 534.784,3213.36 535.511,3213.34C536.238,3213.31 536.901,3212.93 537.269,3212.34C539.242,3209.13 542.652,3203.59 545.936,3198.26C546.455,3197.41 546.228,3196.33 545.408,3195.74C544.588,3195.15 543.434,3195.24 542.725,3195.95C542.716,3195.96 542.707,3195.97 542.699,3195.97C542.419,3196.25 542.023,3196.4 541.62,3196.36C541.217,3196.33 540.852,3196.12 540.628,3195.8C538.902,3193.34 535.166,3188.01 533.003,3184.93C532.624,3184.39 531.994,3184.05 531.312,3184.03C530.63,3184.01 529.978,3184.3 529.561,3184.81C527.546,3187.3 524.309,3191.29 522.348,3193.71C521.947,3194.2 521.329,3194.49 520.673,3194.49C520.017,3194.49 519.398,3194.2 518.995,3193.71C516.75,3190.96 512.783,3186.09 510.459,3183.24C510.037,3182.72 509.377,3182.43 508.689,3182.46C508.002,3182.49 507.372,3182.84 507,3183.39C505.452,3185.68 503.133,3189.12 501.594,3191.41C501.225,3191.95 500.602,3192.3 499.921,3192.33C499.239,3192.36 498.582,3192.08 498.155,3191.58C495.788,3188.76 491.7,3183.91 489.283,3181.03C488.844,3180.51 488.162,3180.23 487.461,3180.28C486.761,3180.34 486.134,3180.72 485.786,3181.3C483.944,3184.38 480.754,3189.71 477.898,3194.48Z" style="fill:rgb(115,102,75);"/>
                    </g>
                    <g transform="matrix(1.64032,0,0,1.64032,-8436.97,-8996)">
                        <circle cx="487.317" cy="3236.9" r="12.683" style="fill:rgb(115,102,75);"/>
                    </g>
                    <g transform="matrix(1.64032,0,0,1.64032,-8540.68,-8988.28)">
                        <circle cx="487.317" cy="3236.9" r="12.683" style="fill:rgb(115,102,75);"/>
                    </g>
                    <g transform="matrix(3.54135,0,0,3.88952,-9510.54,-16333.2)">
                        <path d="M503.556,3261.78C503.556,3276 523,3279.08 523,3261.78" style="fill:rgb(115,102,75);"/>
                    </g>
                </g>
                <g transform="matrix(1.0649,0,0,1.0571,2862.76,119.29)">
                    <path d="M447.389,457.087L447.389,535.66C447.389,543.056 441.394,549.051 433.998,549.051C412.475,549.051 372.578,549.051 372.578,549.051" style="fill:none;stroke:rgb(247,245,230);stroke-width:6.25px;stroke-miterlimit:2;"/>
                </g>
                <rect x="3255.13" y="598.552" width="87.636" height="104.706" style="fill:none;stroke:rgb(85,68,58);stroke-width:8.33px;stroke-miterlimit:2;"/>
            </g>
            <g transform="matrix(2.28659,0,0,2.46103,28.0088,-2193.78)">
                <g transform="matrix(27.5323,0,0,27.5323,503.09,1027.12)">
                </g>
                <text x="163.066px" y="1027.12px" style="font-family:'SeuratPro-B', 'FOT-Seurat Pro', serif;font-weight:700;font-stretch:extra-expanded;font-size:27.532px;fill:rgb(112,84,50);">Progress Photo: [Date]</text>
            </g>
            <g id="dateTags">
            </g>
        </g>
    </g>
    <defs>
        <linearGradient id="_Linear1" x1="0" y1="0" x2="1" y2="0" gradientUnits="userSpaceOnUse" gradientTransform="matrix(1.74779e-15,28.3345,-28.5435,1.73499e-15,3295.99,639.395)"><stop offset="0" style="stop-color:rgb(242,230,155);stop-opacity:1"/><stop offset="1" style="stop-color:rgb(250,194,0);stop-opacity:1"/></linearGradient>
    </defs>
</svg>
