<?xml version="1.0" encoding="UTF-8" standalone="no"?>
<!DOCTYPE svg PUBLIC "-//W3C//DTD SVG 1.1//EN" "http://www.w3.org/Graphics/SVG/1.1/DTD/svg11.dtd">
<svg width="100%" height="100%" viewBox="0 0 751 751" version="1.1" xmlns="http://www.w3.org/2000/svg" xmlns:xlink="http://www.w3.org/1999/xlink" xml:space="preserve" xmlns:serif="http://www.serif.com/" style="fill-rule:evenodd;clip-rule:evenodd;stroke-linecap:round;stroke-linejoin:round;stroke-miterlimit:1.5;">
    <g transform="matrix(1,0,0,1,-1012,-4079)">
        <g id="progressIcon" transform="matrix(0.571646,0,0,0.615258,-641.654,4079.42)">
            <rect x="2894.42" y="0" width="1312" height="1219" style="fill:none;"/>
            <g id="progressIcon1" serif:id="progressIcon" transform="matrix(9.98063,9.64408e-17,-3.72392e-17,9.34158,-29375.1,-5470.98)">
                <rect x="3255.13" y="598.552" width="87.636" height="104.706" style="fill:url(#_Linear1);"/>
                <g>
                    <g transform="matrix(0.270488,1.92388e-17,-8.55031e-17,0.268508,5343.92,1663.41)">
                        <path d="M-7647.87,-3859.78L-7614.49,-3835.01" style="fill:none;stroke:rgb(85,205,252);stroke-width:25px;"/>
                    </g>
                    <g transform="matrix(-0.270488,-1.92388e-17,-8.55031e-17,0.268508,1253.97,1663.41)">
                        <path d="M-7647.87,-3859.78L-7614.49,-3835.01" style="fill:none;stroke:rgb(85,205,252);stroke-width:25px;"/>
                    </g>
                    <g transform="matrix(0.270488,1.92388e-17,-8.55031e-17,0.268508,5343.92,1663.41)">
                        <path d="M-7614.49,-3891.29L-7591.66,-3859.78" style="fill:none;stroke:rgb(247,168,184);stroke-width:25px;"/>
                    </g>
                    <g transform="matrix(-0.270488,-1.92388e-17,-8.55031e-17,0.268508,1253.97,1663.41)">
                        <path d="M-7614.49,-3891.29L-7591.66,-3859.78" style="fill:none;stroke:rgb(247,168,184);stroke-width:25px;"/>
                    </g>
                    <g transform="matrix(0.270488,1.92388e-17,-8.55031e-17,0.268508,5345.16,1663.41)">
                        <path d="M-7564.91,-3865.84L-7564.91,-3905.01" style="fill:none;stroke:rgb(247,245,230);stroke-width:25px;"/>
                    </g>
                </g>
                <g transform="matrix(0.194076,1.38039e-17,-6.13487e-17,0.192655,4791.85,1368.25)">
                    <g transform="matrix(1.10942,0,0,1.10942,705.639,473.906)">
                        <path d="M-7685.56,-3712.97C-7685.71,-3714.17 -7685.78,-3715.39 -7685.78,-3716.64C-7685.78,-3729.95 -7677.15,-3741.25 -7665.2,-3745.22C-7664.62,-3745.41 -7664.08,-3745.68 -7663.61,-3746.03C-7662.18,-3747.07 -7661.28,-3748.76 -7661.28,-3750.6L-7661.23,-3750.6C-7661.23,-3807.21 -7620.35,-3853.26 -7569.75,-3854C-7519.14,-3853.26 -7478.26,-3807.21 -7478.26,-3750.6L-7478.21,-3750.6C-7478.21,-3748.76 -7477.32,-3747.07 -7475.89,-3746.03C-7475.41,-3745.68 -7474.87,-3745.41 -7474.29,-3745.22C-7462.34,-3741.25 -7453.71,-3729.95 -7453.71,-3716.64C-7453.71,-3715.39 -7453.78,-3714.17 -7453.93,-3712.97C-7453.78,-3711.77 -7453.71,-3710.54 -7453.71,-3709.3C-7453.71,-3692.69 -7467.16,-3679.2 -7483.72,-3679.2C-7486.77,-3679.2 -7489.71,-3679.66 -7492.48,-3680.5C-7496.24,-3681.67 -7500.34,-3680.52 -7502.94,-3677.56C-7508.26,-3671.57 -7514.25,-3666.33 -7520.77,-3661.95C-7521.64,-3661.38 -7522.4,-3660.69 -7523.04,-3659.91C-7525.46,-3656.93 -7526.01,-3652.71 -7524.19,-3649.12C-7523.54,-3647.73 -7522.99,-3646.66 -7522.86,-3646.39C-7522.83,-3646.34 -7522.85,-3646.28 -7522.9,-3646.25C-7523.27,-3645.64 -7519.99,-3642.43 -7515.43,-3639.59C-7509.36,-3635.81 -7501.01,-3632.69 -7495.93,-3637.25C-7434.15,-3692.67 -7451.4,-3602.42 -7499.86,-3602.51C-7502.85,-3602.47 -7505.66,-3601.09 -7507.51,-3598.75C-7509.37,-3596.41 -7510.07,-3593.35 -7509.43,-3590.43C-7506.54,-3577.09 -7505.6,-3561.1 -7507.19,-3560.5C-7525.55,-3553.68 -7613.95,-3553.68 -7632.3,-3560.5C-7633.9,-3561.1 -7632.95,-3577.09 -7630.06,-3590.43C-7629.42,-3593.35 -7630.12,-3596.41 -7631.98,-3598.75C-7633.84,-3601.09 -7636.65,-3602.47 -7639.63,-3602.51C-7688.09,-3602.42 -7705.34,-3692.67 -7643.56,-3637.25C-7638.48,-3632.69 -7630.14,-3635.81 -7624.06,-3639.59C-7619.5,-3642.43 -7616.22,-3645.64 -7616.59,-3646.25C-7616.64,-3646.28 -7616.66,-3646.34 -7616.64,-3646.39C-7616.5,-3646.66 -7615.95,-3647.73 -7615.31,-3649.12C-7613.48,-3652.71 -7614.03,-3656.93 -7616.45,-3659.91C-7617.09,-3660.69 -7617.85,-3661.38 -7618.73,-3661.95C-7625.24,-3666.33 -7631.23,-3671.57 -7636.55,-3677.56C-7639.15,-3680.52 -7643.25,-3681.67 -7647.01,-3680.5C-7649.78,-3679.66 -7652.72,-3679.2 -7655.77,-3679.2C-7672.33,-3679.2 -7685.78,-3692.69 -7685.78,-3709.3C-7685.78,-3710.54 -7685.71,-3711.77 -7685.56,-3712.97Z" style="fill:rgb(247,245,230);"/>
                    </g>
                    <g transform="matrix(1.70538,0,0,1.79123,-8574.96,-9470.72)">
                        <path d="M472.996,3202.67C472.939,3202.77 472.967,3202.89 473.061,3202.95C473.156,3203.02 473.286,3203 473.363,3202.92C475.525,3200.6 479.454,3196.39 480.363,3195.42C480.409,3195.37 480.477,3195.34 480.546,3195.35C480.616,3195.35 480.679,3195.38 480.719,3195.44C482.023,3197.22 490.668,3209.03 492.071,3210.95C492.114,3211.01 492.185,3211.05 492.26,3211.04C492.335,3211.04 492.405,3211.01 492.447,3210.95C493.668,3209.17 500.6,3199.07 501.875,3197.22C501.918,3197.16 501.992,3197.12 502.071,3197.12C502.149,3197.12 502.221,3197.16 502.261,3197.23C503.511,3199.28 510.721,3211.11 511.916,3213.07C511.954,3213.13 512.021,3213.17 512.096,3213.17C512.171,3213.18 512.244,3213.15 512.29,3213.09C513.744,3211.33 522.42,3200.85 523.823,3199.15C523.868,3199.1 523.937,3199.07 524.009,3199.07C524.081,3199.07 524.148,3199.11 524.189,3199.16C525.511,3201.01 533.954,3212.83 535.371,3214.81C535.415,3214.87 535.489,3214.91 535.567,3214.91C535.644,3214.9 535.715,3214.86 535.755,3214.8C537.42,3212.09 550.073,3191.53 553.722,3185.6C553.781,3185.51 553.755,3185.39 553.663,3185.32C553.571,3185.26 553.442,3185.26 553.363,3185.34C550.314,3188.38 543.032,3195.64 541.746,3196.92C541.699,3196.97 541.631,3197 541.563,3196.99C541.494,3196.98 541.432,3196.95 541.394,3196.89C540.216,3195.22 532.78,3184.61 531.54,3182.84C531.499,3182.78 531.432,3182.75 531.359,3182.74C531.286,3182.74 531.216,3182.77 531.172,3182.83C529.849,3184.46 522.131,3193.97 520.854,3195.55C520.811,3195.6 520.745,3195.63 520.674,3195.63C520.604,3195.63 520.538,3195.6 520.495,3195.55C519.118,3193.86 510.254,3182.99 508.817,3181.23C508.771,3181.17 508.701,3181.14 508.627,3181.14C508.554,3181.15 508.486,3181.18 508.447,3181.24C507.34,3182.89 501.269,3191.89 500.171,3193.52C500.131,3193.57 500.064,3193.61 499.992,3193.62C499.919,3193.62 499.848,3193.59 499.803,3193.53C498.329,3191.78 489.054,3180.76 487.54,3178.96C487.493,3178.91 487.42,3178.88 487.345,3178.88C487.27,3178.89 487.203,3178.93 487.166,3178.99C485.792,3181.29 476.239,3197.25 472.996,3202.67Z" style="fill:rgb(115,102,75);"/>
                    </g>
                    <g transform="matrix(1.64032,0,0,1.64032,-8436.97,-8996)">
                        <circle cx="487.317" cy="3236.9" r="12.683" style="fill:rgb(115,102,75);"/>
                    </g>
                    <g transform="matrix(1.64032,0,0,1.64032,-8540.68,-8988.28)">
                        <circle cx="487.317" cy="3236.9" r="12.683" style="fill:rgb(115,102,75);"/>
                    </g>
                    <g transform="matrix(3.54135,0,0,3.88952,-9510.54,-16333.2)">
                        <path d="M503.556,3261.78C503.556,3276 523,3279.08 523,3261.78" style="fill:rgb(115,102,75);"/>
                    </g>
                </g>
                <g transform="matrix(1.0649,0,0,1.0571,2862.76,119.29)">
                    <path d="M447.389,457.087L447.389,547.619C447.389,548.41 446.748,549.051 445.957,549.051L372.578,549.051" style="fill:none;stroke:rgb(247,245,230);stroke-width:6.25px;stroke-miterlimit:2;"/>
                </g>
                <rect x="3255.13" y="598.552" width="87.636" height="104.706" style="fill:none;stroke:rgb(85,68,58);stroke-width:8.33px;stroke-miterlimit:2;"/>
            </g>
        </g>
    </g>
    <defs>
        <linearGradient id="_Linear1" x1="0" y1="0" x2="1" y2="0" gradientUnits="userSpaceOnUse" gradientTransform="matrix(1.74779e-15,28.3345,-28.5435,1.73499e-15,3295.99,639.395)"><stop offset="0" style="stop-color:rgb(242,230,155);stop-opacity:1"/><stop offset="1" style="stop-color:rgb(250,194,0);stop-opacity:1"/></linearGradient>
    </defs>
</svg>
