<?xml version="1.0" encoding="UTF-8" standalone="no"?>
<!DOCTYPE svg PUBLIC "-//W3C//DTD SVG 1.1//EN" "http://www.w3.org/Graphics/SVG/1.1/DTD/svg11.dtd">
<svg width="100%" height="100%" viewBox="0 0 1313 1220" version="1.1" xmlns="http://www.w3.org/2000/svg" xmlns:xlink="http://www.w3.org/1999/xlink" xml:space="preserve" xmlns:serif="http://www.serif.com/" style="fill-rule:evenodd;clip-rule:evenodd;stroke-linecap:round;stroke-linejoin:round;stroke-miterlimit:1.5;">
    <g transform="matrix(1,0,0,1,-1374,-2706)">
        <g id="resources" transform="matrix(0.437333,0,0,0.406333,1374.09,2706.26)">
            <rect x="0" y="0" width="3000" height="3000" style="fill:none;"/>
            <g id="postBG" transform="matrix(2.28659,0,0,2.46103,0,0)">
                <path d="M1287.25,55.18L1287.25,1169.02C1287.25,1178.93 1279.21,1186.97 1269.3,1186.97L155.795,1186.97C145.888,1186.97 137.845,1178.93 137.845,1169.02L137.845,55.18C137.845,45.273 145.888,37.23 155.795,37.23L1269.3,37.23C1279.21,37.23 1287.25,45.273 1287.25,55.18Z" style="fill:rgb(250,154,106);"/>
            </g>
            <g id="postContent" transform="matrix(2.12957,0,0,2.15423,111.918,106.656)">
                <path d="M1287.25,73.875L1287.25,1150.32C1287.25,1170.55 1271.82,1186.97 1252.81,1186.97L172.287,1186.97C153.278,1186.97 137.845,1170.55 137.845,1150.32L137.845,73.875C137.845,53.65 153.278,37.23 172.287,37.23L1252.81,37.23C1271.82,37.23 1287.25,53.65 1287.25,73.875Z" style="fill:white;"/>
            </g>
            <g id="textFrame">
            </g>
            <g id="dateTags">
            </g>
            <g transform="matrix(2.28659,0,0,2.46103,119.208,-2.60224)">
                <g transform="matrix(27.5323,0,0,27.5323,286.135,1027.12)">
                </g>
                <text x="163.066px" y="1027.12px" style="font-family:'SeuratPro-B', 'FOT-Seurat Pro', serif;font-weight:700;font-stretch:extra-expanded;font-size:27.532px;fill:rgb(112,84,50);">(more...)</text>
            </g>
            <g id="postTypeBanner" transform="matrix(2.28659,0,0,2.46103,0,0)">
                <path d="M1247.81,101.031L1247.81,176.343L48.035,176.343C34.18,176.343 22.931,165.095 22.931,151.239L22.931,101.031C22.931,87.175 34.18,75.927 48.035,75.927L1222.7,75.927C1236.56,75.927 1247.81,87.175 1247.81,101.031Z" style="fill:rgb(245,209,0);"/>
            </g>
            <g transform="matrix(2.28659,0,0,2.46103,28.0088,-2193.78)">
                <g transform="matrix(27.5323,0,0,27.5323,428.78,1027.12)">
                </g>
                <text x="163.066px" y="1027.12px" style="font-family:'SeuratPro-B', 'FOT-Seurat Pro', serif;font-weight:700;font-stretch:extra-expanded;font-size:27.532px;fill:rgb(112,84,50);">Resource: [Name]</text>
            </g>
            <g id="resources1" serif:id="resources" transform="matrix(1.48858,1.11022e-16,4.996e-16,2.0917,-4688.26,-1993.02)">
                <path d="M3312.51,1067.92L3312.51,1134.54C3312.51,1143.23 3303.31,1150.28 3291.97,1150.28L3250.88,1150.28C3239.54,1150.28 3230.33,1143.23 3230.33,1134.54L3230.33,1067.92C3230.33,1059.23 3239.54,1052.18 3250.88,1052.18L3291.97,1052.18C3303.31,1052.18 3312.51,1059.23 3312.51,1067.92Z" style="fill:rgb(250,154,106);"/>
                <clipPath id="_clip1">
                    <path d="M3312.51,1067.92L3312.51,1134.54C3312.51,1143.23 3303.31,1150.28 3291.97,1150.28L3250.88,1150.28C3239.54,1150.28 3230.33,1143.23 3230.33,1134.54L3230.33,1067.92C3230.33,1059.23 3239.54,1052.18 3250.88,1052.18L3291.97,1052.18C3303.31,1052.18 3312.51,1059.23 3312.51,1067.92Z"/>
                </clipPath>
                <g clip-path="url(#_clip1)">
                    <g id="resources2" serif:id="resources" transform="matrix(1,0,2.77556e-17,1,4.03805,2.37677)">
                        <path d="M3312.51,1067.92L3312.51,1134.54C3312.51,1143.23 3303.31,1150.28 3291.97,1150.28L3250.88,1150.28C3239.54,1150.28 3230.33,1143.23 3230.33,1134.54L3230.33,1067.92C3230.33,1059.23 3239.54,1052.18 3250.88,1052.18L3291.97,1052.18C3303.31,1052.18 3312.51,1059.23 3312.51,1067.92Z" style="fill:rgb(250,154,106);"/>
                        <clipPath id="_clip2">
                            <path d="M3312.51,1067.92L3312.51,1134.54C3312.51,1143.23 3303.31,1150.28 3291.97,1150.28L3250.88,1150.28C3239.54,1150.28 3230.33,1143.23 3230.33,1134.54L3230.33,1067.92C3230.33,1059.23 3239.54,1052.18 3250.88,1052.18L3291.97,1052.18C3303.31,1052.18 3312.51,1059.23 3312.51,1067.92Z"/>
                        </clipPath>
                        <g clip-path="url(#_clip2)">
                            <g transform="matrix(0.00415049,0.000616525,-0.00190815,0.00753638,3229.63,1060.48)">
                                <g transform="matrix(20.221,2.41474,-5.72444,8.52981,7681.2,-5263.17)">
                                    <path d="M520.29,202.648L520.29,304.22" style="fill:none;stroke:rgb(255,206,127);stroke-width:41.67px;"/>
                                </g>
                                <g transform="matrix(21.0156,0,0,88.6502,6243.37,-3970.66)">
                                    <g transform="matrix(1,0,0,0.1,-1.36424e-12,0)">
                                        <path d="M524.479,407.435L781.038,465.389C833.324,520.806 880.02,543.701 907.772,456.36C787.757,479.95 940.533,142.547 729.098,261.9C631.702,210.683 481.899,300.974 524.479,407.435Z" style="fill:rgb(116,102,75);"/>
                                    </g>
                                    <g transform="matrix(1,0,0,0.1,-1.36424e-12,0)">
                                        <path d="M493.057,436.126C504.426,442.986 512.049,454.653 513.767,467.819C516.889,500.787 537.815,516.717 565.85,525.217C566.33,525.362 566.813,525.499 567.298,525.627C573.179,527.194 655.822,549.058 670.708,552.996C672.468,553.464 674.254,553.821 676.058,554.067C717.572,559.644 745.01,551.181 762.067,532.335C770.154,523.623 781.467,518.621 793.354,518.5C843.193,518.572 840.067,440.621 800.352,456.006C796.35,456.87 792.176,455.783 789.105,453.076C786.034,450.368 784.431,446.364 784.786,442.285C783.141,440.595 783.276,439.039 783.413,437.472C785.345,415.284 770.008,395.295 748.075,391.419C741.58,390.271 735.237,389.15 729.929,388.212C721.705,386.758 715.461,379.998 714.664,371.685C714.508,370.062 714.345,368.368 714.18,366.642C713.957,364.312 712.092,362.478 709.758,362.294C707.424,362.11 705.295,363.629 704.709,365.896C704.673,366.032 704.638,366.168 704.603,366.304C702.113,375.937 692.391,381.824 682.701,379.565C670.938,376.824 655.49,373.224 643.824,370.506C639.338,369.46 635.455,366.666 633.039,362.744C630.623,358.823 629.874,354.098 630.958,349.621C630.96,349.614 630.961,349.606 630.963,349.598C631.48,347.464 630.327,345.278 628.273,344.5C626.219,343.721 623.907,344.593 622.879,346.534C621.698,348.762 620.565,350.903 619.524,352.868C616.215,359.113 609.113,362.344 602.231,360.735C596.067,359.293 588.227,357.46 580.658,355.69C565.094,352.05 549.169,360.142 542.933,374.859C539.139,383.812 535.145,393.237 532.411,399.69C531.416,402.089 528.983,403.568 526.395,403.348C523.808,403.128 521.66,401.259 521.084,398.726C521.891,396.488 522.161,394.071 522.74,391.263C523.344,386.375 520.246,381.793 515.485,380.532C472.262,367.67 460.123,416.091 493.057,436.126Z" style="fill:rgb(247,245,230);"/>
                                    </g>
                                    <g transform="matrix(1,0,0,0.1,-1.36424e-12,0)">
                                        <circle cx="602.381" cy="407.737" r="18.828" style="fill:rgb(116,102,75);"/>
                                    </g>
                                    <g transform="matrix(1,0,0,0.1,116.654,3.01158)">
                                        <circle cx="602.381" cy="407.737" r="18.828" style="fill:rgb(116,102,75);"/>
                                    </g>
                                    <g transform="matrix(1,0,0,0.1,-1.36424e-12,0)">
                                        <path d="M621.208,464.747C612.102,493.617 664.51,516.426 687.627,481.405" style="fill:none;stroke:rgb(101,79,62);stroke-width:20.83px;"/>
                                    </g>
                                </g>
                                <g transform="matrix(18.1374,-4.47797,106.156,76.5091,-2650.14,1807.71)">
                                    <g transform="matrix(1,0,0,0.1,-1.36424e-12,0)">
                                        <path d="M529.474,407.737L781.038,465.389C833.324,520.806 862.231,277.064 717.156,236.355C612.478,206.981 474.581,320.064 529.474,407.737Z" style="fill:rgb(116,102,75);"/>
                                    </g>
                                    <g transform="matrix(1,0,0,0.1,-1.36424e-12,0)">
                                        <path d="M493.057,436.126C504.426,442.986 512.049,454.653 513.767,467.819C516.889,500.787 537.815,516.717 565.85,525.217C566.33,525.362 566.813,525.499 567.298,525.627C573.179,527.194 655.822,549.058 670.708,552.996C672.468,553.464 674.254,553.821 676.058,554.067C717.572,559.644 745.01,551.181 762.067,532.335C770.154,523.623 781.467,518.621 793.354,518.5C843.193,518.572 840.067,440.621 800.352,456.006C796.35,456.87 792.176,455.783 789.105,453.076C786.034,450.368 784.431,446.364 784.786,442.285C783.141,440.595 783.276,439.039 783.413,437.472C785.345,415.284 770.008,395.295 748.075,391.419C734.398,389.002 721.393,386.703 717.32,385.984C716.548,385.847 715.961,385.212 715.886,384.431C715.612,381.568 714.926,374.421 714.18,366.642C713.957,364.312 712.092,362.478 709.758,362.294C707.424,362.11 705.295,363.629 704.709,365.896C703.913,368.974 703.148,371.934 702.478,374.524C701.17,379.586 696.062,382.679 690.97,381.492C676.943,378.224 650.282,372.011 636.165,368.721C633.704,368.148 631.574,366.615 630.249,364.464C628.923,362.312 628.512,359.721 629.107,357.265C629.665,354.96 630.296,352.354 630.963,349.598C631.48,347.464 630.327,345.278 628.273,344.5C626.219,343.721 623.907,344.593 622.879,346.534C621.322,349.474 619.845,352.261 618.557,354.693C615.818,359.863 609.939,362.537 604.243,361.205C597.832,359.706 589.078,357.659 580.658,355.69C565.094,352.05 549.169,360.142 542.933,374.859C539.139,383.812 535.145,393.237 532.411,399.69C531.416,402.089 528.983,403.568 526.395,403.348C523.808,403.128 521.66,401.259 521.084,398.726C521.891,396.488 522.161,394.071 522.74,391.263C523.344,386.375 520.246,381.793 515.485,380.532C472.262,367.67 460.123,416.091 493.057,436.126Z" style="fill:rgb(247,245,230);"/>
                                    </g>
                                    <g transform="matrix(1,0,0,0.1,-1.36424e-12,0)">
                                        <circle cx="602.381" cy="407.737" r="18.828" style="fill:rgb(116,102,75);"/>
                                    </g>
                                    <g transform="matrix(1,0,0,0.1,116.654,3.01158)">
                                        <circle cx="602.381" cy="407.737" r="18.828" style="fill:rgb(116,102,75);"/>
                                    </g>
                                    <g transform="matrix(1,0,0,0.1,-1.36424e-12,0)">
                                        <path d="M621.208,464.747C612.102,493.617 664.51,516.426 687.627,481.405" style="fill:none;stroke:rgb(101,79,62);stroke-width:20.83px;"/>
                                    </g>
                                </g>
                                <g transform="matrix(21.0156,0,0,8.86502,3980.61,-4306.61)">
                                    <path d="M520.29,202.648L520.29,304.22" style="fill:none;stroke:rgb(255,206,127);stroke-width:41.67px;"/>
                                </g>
                                <g transform="matrix(17.8512,-4.67818,11.0902,7.53016,577.141,-1319.45)">
                                    <path d="M520.29,202.648L520.29,304.22" style="fill:none;stroke:rgb(255,206,127);stroke-width:41.67px;"/>
                                </g>
                                <g transform="matrix(9.95876,-7.80648,18.5062,4.2009,1573.16,1821.51)">
                                    <path d="M520.29,202.648L520.29,304.22" style="fill:none;stroke:rgb(255,206,127);stroke-width:41.67px;"/>
                                </g>
                                <g transform="matrix(3.91873,-8.70954,20.647,1.65304,3233.3,3756.49)">
                                    <path d="M520.29,202.648L520.29,304.22" style="fill:none;stroke:rgb(255,206,127);stroke-width:41.67px;"/>
                                </g>
                            </g>
                            <g transform="matrix(0.00415049,0.000616525,-0.00190815,0.00753638,3184.87,1103.24)">
                                <g transform="matrix(20.221,2.41474,-5.72444,8.52981,7681.2,-5263.17)">
                                    <path d="M520.29,202.648L520.29,304.22" style="fill:none;stroke:rgb(255,206,127);stroke-width:41.67px;"/>
                                </g>
                                <g transform="matrix(21.0156,0,0,88.6502,6243.37,-3970.66)">
                                    <g transform="matrix(1,0,0,0.1,-1.36424e-12,0)">
                                        <path d="M524.479,407.435L781.038,465.389C833.324,520.806 880.02,543.701 907.772,456.36C787.757,479.95 940.533,142.547 729.098,261.9C631.702,210.683 481.899,300.974 524.479,407.435Z" style="fill:rgb(116,102,75);"/>
                                    </g>
                                    <g transform="matrix(1,0,0,0.1,-1.36424e-12,0)">
                                        <path d="M493.057,436.126C504.426,442.986 512.049,454.653 513.767,467.819C516.889,500.787 537.815,516.717 565.85,525.217C566.33,525.362 566.813,525.499 567.298,525.627C573.179,527.194 655.822,549.058 670.708,552.996C672.468,553.464 674.254,553.821 676.058,554.067C717.572,559.644 745.01,551.181 762.067,532.335C770.154,523.623 781.467,518.621 793.354,518.5C843.193,518.572 840.067,440.621 800.352,456.006C796.35,456.87 792.176,455.783 789.105,453.076C786.034,450.368 784.431,446.364 784.786,442.285C783.141,440.595 783.276,439.039 783.413,437.472C785.345,415.284 770.008,395.295 748.075,391.419C741.58,390.271 735.237,389.15 729.929,388.212C721.705,386.758 715.461,379.998 714.664,371.685C714.508,370.062 714.345,368.368 714.18,366.642C713.957,364.312 712.092,362.478 709.758,362.294C707.424,362.11 705.295,363.629 704.709,365.896C704.673,366.032 704.638,366.168 704.603,366.304C702.113,375.937 692.391,381.824 682.701,379.565C670.938,376.824 655.49,373.224 643.824,370.506C639.338,369.46 635.455,366.666 633.039,362.744C630.623,358.823 629.874,354.098 630.958,349.621C630.96,349.614 630.961,349.606 630.963,349.598C631.48,347.464 630.327,345.278 628.273,344.5C626.219,343.721 623.907,344.593 622.879,346.534C621.698,348.762 620.565,350.903 619.524,352.868C616.215,359.113 609.113,362.344 602.231,360.735C596.067,359.293 588.227,357.46 580.658,355.69C565.094,352.05 549.169,360.142 542.933,374.859C539.139,383.812 535.145,393.237 532.411,399.69C531.416,402.089 528.983,403.568 526.395,403.348C523.808,403.128 521.66,401.259 521.084,398.726C521.891,396.488 522.161,394.071 522.74,391.263C523.344,386.375 520.246,381.793 515.485,380.532C472.262,367.67 460.123,416.091 493.057,436.126Z" style="fill:rgb(247,245,230);"/>
                                    </g>
                                    <g transform="matrix(1,0,0,0.1,-1.36424e-12,0)">
                                        <circle cx="602.381" cy="407.737" r="18.828" style="fill:rgb(116,102,75);"/>
                                    </g>
                                    <g transform="matrix(1,0,0,0.1,116.654,3.01158)">
                                        <circle cx="602.381" cy="407.737" r="18.828" style="fill:rgb(116,102,75);"/>
                                    </g>
                                    <g transform="matrix(1,0,0,0.1,-1.36424e-12,0)">
                                        <path d="M621.208,464.747C612.102,493.617 664.51,516.426 687.627,481.405" style="fill:none;stroke:rgb(101,79,62);stroke-width:20.83px;"/>
                                    </g>
                                </g>
                                <g transform="matrix(18.1374,-4.47797,106.156,76.5091,-2650.14,1807.71)">
                                    <g transform="matrix(1,0,0,0.1,-1.36424e-12,0)">
                                        <path d="M529.474,407.737L781.038,465.389C833.324,520.806 862.231,277.064 717.156,236.355C612.478,206.981 474.581,320.064 529.474,407.737Z" style="fill:rgb(116,102,75);"/>
                                    </g>
                                    <g transform="matrix(1,0,0,0.1,-1.36424e-12,0)">
                                        <path d="M493.057,436.126C504.426,442.986 512.049,454.653 513.767,467.819C516.889,500.787 537.815,516.717 565.85,525.217C566.33,525.362 566.813,525.499 567.298,525.627C573.179,527.194 655.822,549.058 670.708,552.996C672.468,553.464 674.254,553.821 676.058,554.067C717.572,559.644 745.01,551.181 762.067,532.335C770.154,523.623 781.467,518.621 793.354,518.5C843.193,518.572 840.067,440.621 800.352,456.006C796.35,456.87 792.176,455.783 789.105,453.076C786.034,450.368 784.431,446.364 784.786,442.285C783.141,440.595 783.276,439.039 783.413,437.472C785.345,415.284 770.008,395.295 748.075,391.419C734.398,389.002 721.393,386.703 717.32,385.984C716.548,385.847 715.961,385.212 715.886,384.431C715.612,381.568 714.926,374.421 714.18,366.642C713.957,364.312 712.092,362.478 709.758,362.294C707.424,362.11 705.295,363.629 704.709,365.896C703.913,368.974 703.148,371.934 702.478,374.524C701.17,379.586 696.062,382.679 690.97,381.492C676.943,378.224 650.282,372.011 636.165,368.721C633.704,368.148 631.574,366.615 630.249,364.464C628.923,362.312 628.512,359.721 629.107,357.265C629.665,354.96 630.296,352.354 630.963,349.598C631.48,347.464 630.327,345.278 628.273,344.5C626.219,343.721 623.907,344.593 622.879,346.534C621.322,349.474 619.845,352.261 618.557,354.693C615.818,359.863 609.939,362.537 604.243,361.205C597.832,359.706 589.078,357.659 580.658,355.69C565.094,352.05 549.169,360.142 542.933,374.859C539.139,383.812 535.145,393.237 532.411,399.69C531.416,402.089 528.983,403.568 526.395,403.348C523.808,403.128 521.66,401.259 521.084,398.726C521.891,396.488 522.161,394.071 522.74,391.263C523.344,386.375 520.246,381.793 515.485,380.532C472.262,367.67 460.123,416.091 493.057,436.126Z" style="fill:rgb(247,245,230);"/>
                                    </g>
                                    <g transform="matrix(1,0,0,0.1,-1.36424e-12,0)">
                                        <circle cx="602.381" cy="407.737" r="18.828" style="fill:rgb(116,102,75);"/>
                                    </g>
                                    <g transform="matrix(1,0,0,0.1,116.654,3.01158)">
                                        <circle cx="602.381" cy="407.737" r="18.828" style="fill:rgb(116,102,75);"/>
                                    </g>
                                    <g transform="matrix(1,0,0,0.1,-1.36424e-12,0)">
                                        <path d="M621.208,464.747C612.102,493.617 664.51,516.426 687.627,481.405" style="fill:none;stroke:rgb(101,79,62);stroke-width:20.83px;"/>
                                    </g>
                                </g>
                                <g transform="matrix(21.0156,0,0,8.86502,3980.61,-4306.61)">
                                    <path d="M520.29,202.648L520.29,304.22" style="fill:none;stroke:rgb(255,206,127);stroke-width:41.67px;"/>
                                </g>
                                <g transform="matrix(17.8512,-4.67818,11.0902,7.53016,577.141,-1319.45)">
                                    <path d="M520.29,202.648L520.29,304.22" style="fill:none;stroke:rgb(255,206,127);stroke-width:41.67px;"/>
                                </g>
                                <g transform="matrix(9.95876,-7.80648,18.5062,4.2009,1573.16,1821.51)">
                                    <path d="M520.29,202.648L520.29,304.22" style="fill:none;stroke:rgb(255,206,127);stroke-width:41.67px;"/>
                                </g>
                                <g transform="matrix(3.91873,-8.70954,20.647,1.65304,3233.3,3756.49)">
                                    <path d="M520.29,202.648L520.29,304.22" style="fill:none;stroke:rgb(255,206,127);stroke-width:41.67px;"/>
                                </g>
                            </g>
                            <g transform="matrix(0.00415049,0.000616525,-0.00190815,0.00753638,3238.99,1130.61)">
                                <g transform="matrix(20.221,2.41474,-5.72444,8.52981,7681.2,-5263.17)">
                                    <path d="M520.29,202.648L520.29,304.22" style="fill:none;stroke:rgb(255,206,127);stroke-width:41.67px;"/>
                                </g>
                                <g transform="matrix(21.0156,0,0,88.6502,6243.37,-3970.66)">
                                    <g transform="matrix(1,0,0,0.1,-1.36424e-12,0)">
                                        <path d="M524.479,407.435L781.038,465.389C833.324,520.806 880.02,543.701 907.772,456.36C787.757,479.95 940.533,142.547 729.098,261.9C631.702,210.683 481.899,300.974 524.479,407.435Z" style="fill:rgb(116,102,75);"/>
                                    </g>
                                    <g transform="matrix(1,0,0,0.1,-1.36424e-12,0)">
                                        <path d="M493.057,436.126C504.426,442.986 512.049,454.653 513.767,467.819C516.889,500.787 537.815,516.717 565.85,525.217C566.33,525.362 566.813,525.499 567.298,525.627C573.179,527.194 655.822,549.058 670.708,552.996C672.468,553.464 674.254,553.821 676.058,554.067C717.572,559.644 745.01,551.181 762.067,532.335C770.154,523.623 781.467,518.621 793.354,518.5C843.193,518.572 840.067,440.621 800.352,456.006C796.35,456.87 792.176,455.783 789.105,453.076C786.034,450.368 784.431,446.364 784.786,442.285C783.141,440.595 783.276,439.039 783.413,437.472C785.345,415.284 770.008,395.295 748.075,391.419C741.58,390.271 735.237,389.15 729.929,388.212C721.705,386.758 715.461,379.998 714.664,371.685C714.508,370.062 714.345,368.368 714.18,366.642C713.957,364.312 712.092,362.478 709.758,362.294C707.424,362.11 705.295,363.629 704.709,365.896C704.673,366.032 704.638,366.168 704.603,366.304C702.113,375.937 692.391,381.824 682.701,379.565C670.938,376.824 655.49,373.224 643.824,370.506C639.338,369.46 635.455,366.666 633.039,362.744C630.623,358.823 629.874,354.098 630.958,349.621C630.96,349.614 630.961,349.606 630.963,349.598C631.48,347.464 630.327,345.278 628.273,344.5C626.219,343.721 623.907,344.593 622.879,346.534C621.698,348.762 620.565,350.903 619.524,352.868C616.215,359.113 609.113,362.344 602.231,360.735C596.067,359.293 588.227,357.46 580.658,355.69C565.094,352.05 549.169,360.142 542.933,374.859C539.139,383.812 535.145,393.237 532.411,399.69C531.416,402.089 528.983,403.568 526.395,403.348C523.808,403.128 521.66,401.259 521.084,398.726C521.891,396.488 522.161,394.071 522.74,391.263C523.344,386.375 520.246,381.793 515.485,380.532C472.262,367.67 460.123,416.091 493.057,436.126Z" style="fill:rgb(247,245,230);"/>
                                    </g>
                                    <g transform="matrix(1,0,0,0.1,-1.36424e-12,0)">
                                        <circle cx="602.381" cy="407.737" r="18.828" style="fill:rgb(116,102,75);"/>
                                    </g>
                                    <g transform="matrix(1,0,0,0.1,116.654,3.01158)">
                                        <circle cx="602.381" cy="407.737" r="18.828" style="fill:rgb(116,102,75);"/>
                                    </g>
                                    <g transform="matrix(1,0,0,0.1,-1.36424e-12,0)">
                                        <path d="M621.208,464.747C612.102,493.617 664.51,516.426 687.627,481.405" style="fill:none;stroke:rgb(101,79,62);stroke-width:20.83px;"/>
                                    </g>
                                </g>
                                <g transform="matrix(18.1374,-4.47797,106.156,76.5091,-2650.14,1807.71)">
                                    <g transform="matrix(1,0,0,0.1,-1.36424e-12,0)">
                                        <path d="M529.474,407.737L781.038,465.389C833.324,520.806 862.231,277.064 717.156,236.355C612.478,206.981 474.581,320.064 529.474,407.737Z" style="fill:rgb(116,102,75);"/>
                                    </g>
                                    <g transform="matrix(1,0,0,0.1,-1.36424e-12,0)">
                                        <path d="M493.057,436.126C504.426,442.986 512.049,454.653 513.767,467.819C516.889,500.787 537.815,516.717 565.85,525.217C566.33,525.362 566.813,525.499 567.298,525.627C573.179,527.194 655.822,549.058 670.708,552.996C672.468,553.464 674.254,553.821 676.058,554.067C717.572,559.644 745.01,551.181 762.067,532.335C770.154,523.623 781.467,518.621 793.354,518.5C843.193,518.572 840.067,440.621 800.352,456.006C796.35,456.87 792.176,455.783 789.105,453.076C786.034,450.368 784.431,446.364 784.786,442.285C783.141,440.595 783.276,439.039 783.413,437.472C785.345,415.284 770.008,395.295 748.075,391.419C734.398,389.002 721.393,386.703 717.32,385.984C716.548,385.847 715.961,385.212 715.886,384.431C715.612,381.568 714.926,374.421 714.18,366.642C713.957,364.312 712.092,362.478 709.758,362.294C707.424,362.11 705.295,363.629 704.709,365.896C703.913,368.974 703.148,371.934 702.478,374.524C701.17,379.586 696.062,382.679 690.97,381.492C676.943,378.224 650.282,372.011 636.165,368.721C633.704,368.148 631.574,366.615 630.249,364.464C628.923,362.312 628.512,359.721 629.107,357.265C629.665,354.96 630.296,352.354 630.963,349.598C631.48,347.464 630.327,345.278 628.273,344.5C626.219,343.721 623.907,344.593 622.879,346.534C621.322,349.474 619.845,352.261 618.557,354.693C615.818,359.863 609.939,362.537 604.243,361.205C597.832,359.706 589.078,357.659 580.658,355.69C565.094,352.05 549.169,360.142 542.933,374.859C539.139,383.812 535.145,393.237 532.411,399.69C531.416,402.089 528.983,403.568 526.395,403.348C523.808,403.128 521.66,401.259 521.084,398.726C521.891,396.488 522.161,394.071 522.74,391.263C523.344,386.375 520.246,381.793 515.485,380.532C472.262,367.67 460.123,416.091 493.057,436.126Z" style="fill:rgb(247,245,230);"/>
                                    </g>
                                    <g transform="matrix(1,0,0,0.1,-1.36424e-12,0)">
                                        <circle cx="602.381" cy="407.737" r="18.828" style="fill:rgb(116,102,75);"/>
                                    </g>
                                    <g transform="matrix(1,0,0,0.1,116.654,3.01158)">
                                        <circle cx="602.381" cy="407.737" r="18.828" style="fill:rgb(116,102,75);"/>
                                    </g>
                                    <g transform="matrix(1,0,0,0.1,-1.36424e-12,0)">
                                        <path d="M621.208,464.747C612.102,493.617 664.51,516.426 687.627,481.405" style="fill:none;stroke:rgb(101,79,62);stroke-width:20.83px;"/>
                                    </g>
                                </g>
                                <g transform="matrix(21.0156,0,0,8.86502,3980.61,-4306.61)">
                                    <path d="M520.29,202.648L520.29,304.22" style="fill:none;stroke:rgb(255,206,127);stroke-width:41.67px;"/>
                                </g>
                                <g transform="matrix(17.8512,-4.67818,11.0902,7.53016,577.141,-1319.45)">
                                    <path d="M520.29,202.648L520.29,304.22" style="fill:none;stroke:rgb(255,206,127);stroke-width:41.67px;"/>
                                </g>
                                <g transform="matrix(9.95876,-7.80648,18.5062,4.2009,1573.16,1821.51)">
                                    <path d="M520.29,202.648L520.29,304.22" style="fill:none;stroke:rgb(255,206,127);stroke-width:41.67px;"/>
                                </g>
                                <g transform="matrix(3.91873,-8.70954,20.647,1.65304,3233.3,3756.49)">
                                    <path d="M520.29,202.648L520.29,304.22" style="fill:none;stroke:rgb(255,206,127);stroke-width:41.67px;"/>
                                </g>
                            </g>
                        </g>
                        <path d="M3312.51,1067.92L3312.51,1134.54C3312.51,1143.23 3303.31,1150.28 3291.97,1150.28L3250.88,1150.28C3239.54,1150.28 3230.33,1143.23 3230.33,1134.54L3230.33,1067.92C3230.33,1059.23 3239.54,1052.18 3250.88,1052.18L3291.97,1052.18C3303.31,1052.18 3312.51,1059.23 3312.51,1067.92Z" style="fill:none;stroke:rgb(245,209,0);stroke-width:5px;stroke-miterlimit:2;"/>
                    </g>
                    <g id="resources3" serif:id="resources" transform="matrix(1,0,2.77556e-17,1,-2.01903,-1.18838)">
                        <path d="M3312.51,1067.92L3312.51,1134.54C3312.51,1143.23 3303.31,1150.28 3291.97,1150.28L3250.88,1150.28C3239.54,1150.28 3230.33,1143.23 3230.33,1134.54L3230.33,1067.92C3230.33,1059.23 3239.54,1052.18 3250.88,1052.18L3291.97,1052.18C3303.31,1052.18 3312.51,1059.23 3312.51,1067.92ZM3310.14,1067.92C3310.14,1060.24 3302,1054 3291.97,1054L3250.88,1054C3240.85,1054 3232.7,1060.24 3232.7,1067.92L3232.7,1134.54C3232.7,1142.22 3240.85,1148.46 3250.88,1148.46L3291.97,1148.46C3302,1148.46 3310.14,1142.22 3310.14,1134.54L3310.14,1067.92Z" style="fill:rgb(250,154,106);"/>
                    </g>
                    <g transform="matrix(1.36168,0.202268,-0.224882,0.888191,-931.656,-533.308)">
                        <ellipse cx="3251.11" cy="1068.13" rx="6.486" ry="7.622" style="fill:rgb(112,84,50);"/>
                        <clipPath id="_clip3">
                            <ellipse cx="3251.11" cy="1068.13" rx="6.486" ry="7.622"/>
                        </clipPath>
                        <g clip-path="url(#_clip3)">
                            <path d="M3252.47,1060.68C3255.4,1061.41 3257.6,1064.47 3257.6,1068.13C3257.6,1072.34 3254.69,1075.76 3251.11,1075.76C3249.93,1075.76 3248.82,1075.38 3247.86,1074.73C3248.3,1074.84 3248.75,1074.9 3249.22,1074.9C3252.8,1074.9 3255.7,1071.48 3255.7,1067.28C3255.7,1064.46 3254.4,1062 3252.47,1060.68Z" style="fill:rgb(255,189,23);"/>
                        </g>
                    </g>
                </g>
                <path d="M3312.51,1067.92L3312.51,1134.54C3312.51,1143.23 3303.31,1150.28 3291.97,1150.28L3250.88,1150.28C3239.54,1150.28 3230.33,1143.23 3230.33,1134.54L3230.33,1067.92C3230.33,1059.23 3239.54,1052.18 3250.88,1052.18L3291.97,1052.18C3303.31,1052.18 3312.51,1059.23 3312.51,1067.92Z" style="fill:none;stroke:rgb(112,84,50);stroke-width:5px;stroke-miterlimit:2;"/>
            </g>
        </g>
    </g>
</svg>
