<?xml version="1.0" encoding="UTF-8" standalone="no"?>
<!DOCTYPE svg PUBLIC "-//W3C//DTD SVG 1.1//EN" "http://www.w3.org/Graphics/SVG/1.1/DTD/svg11.dtd">
<svg width="100%" height="100%" viewBox="0 0 1001 1001" version="1.1" xmlns="http://www.w3.org/2000/svg" xmlns:xlink="http://www.w3.org/1999/xlink" xml:space="preserve" xmlns:serif="http://www.serif.com/" style="fill-rule:evenodd;clip-rule:evenodd;stroke-linecap:round;stroke-linejoin:round;stroke-miterlimit:1.5;">
    <g transform="matrix(1,0,0,1,-987,-7166)">
        <g id="resourcesIcon" transform="matrix(0.762195,0,0,0.820345,-1218.45,7166.74)">
            <rect x="2894.42" y="0" width="1312" height="1219" style="fill:none;"/>
            <g id="resources" transform="matrix(7.9824,5.1394e-16,2.67908e-15,9.68282,-22563.4,-10053.5)">
                <path d="M3312.51,1067.92L3312.51,1134.54C3312.51,1143.23 3303.31,1150.28 3291.97,1150.28L3250.88,1150.28C3239.54,1150.28 3230.33,1143.23 3230.33,1134.54L3230.33,1067.92C3230.33,1059.23 3239.54,1052.18 3250.88,1052.18L3291.97,1052.18C3303.31,1052.18 3312.51,1059.23 3312.51,1067.92Z" style="fill:rgb(250,154,106);"/>
                <clipPath id="_clip1">
                    <path d="M3312.51,1067.92L3312.51,1134.54C3312.51,1143.23 3303.31,1150.28 3291.97,1150.28L3250.88,1150.28C3239.54,1150.28 3230.33,1143.23 3230.33,1134.54L3230.33,1067.92C3230.33,1059.23 3239.54,1052.18 3250.88,1052.18L3291.97,1052.18C3303.31,1052.18 3312.51,1059.23 3312.51,1067.92Z"/>
                </clipPath>
                <g clip-path="url(#_clip1)">
                    <g id="resources1" serif:id="resources" transform="matrix(1,0,2.77556e-17,1,4.03805,2.37677)">
                        <path d="M3312.51,1067.92L3312.51,1134.54C3312.51,1143.23 3303.31,1150.28 3291.97,1150.28L3250.88,1150.28C3239.54,1150.28 3230.33,1143.23 3230.33,1134.54L3230.33,1067.92C3230.33,1059.23 3239.54,1052.18 3250.88,1052.18L3291.97,1052.18C3303.31,1052.18 3312.51,1059.23 3312.51,1067.92Z" style="fill:rgb(250,154,106);"/>
                        <clipPath id="_clip2">
                            <path d="M3312.51,1067.92L3312.51,1134.54C3312.51,1143.23 3303.31,1150.28 3291.97,1150.28L3250.88,1150.28C3239.54,1150.28 3230.33,1143.23 3230.33,1134.54L3230.33,1067.92C3230.33,1059.23 3239.54,1052.18 3250.88,1052.18L3291.97,1052.18C3303.31,1052.18 3312.51,1059.23 3312.51,1067.92Z"/>
                        </clipPath>
                        <g clip-path="url(#_clip2)">
                            <g transform="matrix(0.00415049,0.000616525,-0.00190815,0.00753638,3229.63,1060.48)">
                                <g transform="matrix(20.221,2.41474,-5.72444,8.52981,7681.2,-5263.17)">
                                    <path d="M520.29,202.648L520.29,304.22" style="fill:none;stroke:rgb(255,206,127);stroke-width:41.67px;"/>
                                </g>
                                <g transform="matrix(21.0156,0,0,88.6502,6243.37,-3970.66)">
                                    <g transform="matrix(1,0,0,0.1,-1.36424e-12,0)">
                                        <path d="M524.479,407.435L781.038,465.389C833.324,520.806 880.02,543.701 907.772,456.36C787.757,479.95 940.533,142.547 729.098,261.9C631.702,210.683 481.899,300.974 524.479,407.435Z" style="fill:rgb(116,102,75);"/>
                                    </g>
                                    <g transform="matrix(1,0,0,0.1,-1.36424e-12,0)">
                                        <path d="M509.752,442.664C512.043,443.169 513.605,445.294 513.402,447.631C509.298,495.089 533.085,515.562 566.901,525.531C566.943,525.544 566.985,525.556 567.028,525.567C569.85,526.313 667.15,552.054 672.746,553.535C672.914,553.579 673.085,553.615 673.258,553.64C725.863,561.427 756.413,547.159 772.082,518.01C773.115,516.063 775.368,515.102 777.488,515.705C848.791,535.94 843.527,422.984 788.938,462.417C787.456,463.451 785.51,463.534 783.945,462.63C782.381,461.725 781.481,459.997 781.638,458.196C783.001,442.202 785.511,413.378 786.455,402.541C786.666,400.122 784.994,397.943 782.603,397.521C769.763,395.252 731.352,388.463 719.521,386.372C717.448,386.006 715.874,384.302 715.673,382.206C715.318,378.511 714.729,372.362 714.105,365.859C713.888,363.595 712.076,361.814 709.81,361.636C707.543,361.457 705.475,362.932 704.906,365.134C703.498,370.58 702.168,375.724 701.27,379.198C700.634,381.66 698.148,383.165 695.671,382.588C682.64,379.551 644.678,370.705 631.46,367.625C630.243,367.341 629.19,366.583 628.535,365.519C627.88,364.456 627.676,363.174 627.97,361.96C628.587,359.412 629.417,355.984 630.347,352.141C630.903,349.846 629.663,347.495 627.455,346.658C625.246,345.821 622.76,346.759 621.654,348.846C619.186,353.505 617.012,357.61 615.6,360.275C614.604,362.155 612.465,363.128 610.393,362.643C599.846,360.177 568.528,352.853 557.566,350.29C555.346,349.77 553.075,350.925 552.185,353.024C548.831,360.941 540.705,380.117 535.025,393.52C533.759,396.523 530.412,398.066 527.306,397.078C524.2,396.09 522.359,392.897 523.06,389.714C523.154,389.406 523.231,389.089 523.311,388.768C524.033,385.752 522.373,382.675 519.455,381.623C466.647,362.472 455.957,430.689 509.752,442.664Z" style="fill:rgb(247,245,230);"/>
                                    </g>
                                    <g transform="matrix(1,0,0,0.1,-1.36424e-12,0)">
                                        <circle cx="602.381" cy="407.737" r="18.828" style="fill:rgb(116,102,75);"/>
                                    </g>
                                    <g transform="matrix(1,0,0,0.1,116.654,3.01158)">
                                        <circle cx="602.381" cy="407.737" r="18.828" style="fill:rgb(116,102,75);"/>
                                    </g>
                                    <g transform="matrix(1,0,0,0.1,-1.36424e-12,0)">
                                        <path d="M621.208,464.747C612.102,493.617 664.51,516.426 687.627,481.405" style="fill:none;stroke:rgb(101,79,62);stroke-width:20.83px;"/>
                                    </g>
                                </g>
                                <g transform="matrix(18.1374,-4.47797,106.156,76.5091,-2650.14,1807.71)">
                                    <g transform="matrix(1,0,0,0.1,-1.36424e-12,0)">
                                        <path d="M529.474,407.737L781.038,465.389C833.324,520.806 862.231,277.064 717.156,236.355C612.478,206.981 474.581,320.064 529.474,407.737Z" style="fill:rgb(116,102,75);"/>
                                    </g>
                                    <g transform="matrix(1,0,0,0.1,-1.36424e-12,0)">
                                        <path d="M509.752,442.664C512.043,443.169 513.605,445.294 513.402,447.631C509.298,495.089 533.085,515.562 566.901,525.531C566.943,525.544 566.985,525.556 567.028,525.567C569.85,526.313 667.15,552.054 672.746,553.535C672.914,553.579 673.085,553.615 673.258,553.64C725.863,561.427 756.413,547.159 772.082,518.01C773.115,516.063 775.368,515.102 777.488,515.705C848.791,535.94 843.527,422.984 788.938,462.417C787.456,463.451 785.51,463.534 783.945,462.63C782.381,461.725 781.481,459.997 781.638,458.196C783.001,442.202 785.511,413.378 786.455,402.541C786.666,400.122 784.994,397.943 782.603,397.521C769.763,395.252 731.352,388.463 719.521,386.372C717.448,386.006 715.874,384.302 715.673,382.206C715.318,378.511 714.729,372.362 714.105,365.859C713.888,363.595 712.076,361.814 709.81,361.636C707.543,361.457 705.475,362.932 704.906,365.134C703.498,370.58 702.168,375.724 701.27,379.198C700.634,381.66 698.148,383.165 695.671,382.588C682.64,379.551 644.678,370.705 631.46,367.625C630.243,367.341 629.19,366.583 628.535,365.519C627.88,364.456 627.676,363.174 627.97,361.96C628.587,359.412 629.417,355.984 630.347,352.141C630.903,349.846 629.663,347.495 627.455,346.658C625.246,345.821 622.76,346.759 621.654,348.846C619.186,353.505 617.012,357.61 615.6,360.275C614.604,362.155 612.465,363.128 610.393,362.643C599.846,360.177 568.528,352.853 557.566,350.29C555.346,349.77 553.075,350.925 552.185,353.024C548.571,361.554 539.417,383.156 533.753,396.524C532.585,399.283 529.554,400.751 526.665,399.956C523.776,399.161 521.922,396.349 522.331,393.381C522.446,392.784 522.558,392.165 522.687,391.525C523.581,386.585 520.584,381.77 515.756,380.391C466.175,365.689 457.238,430.974 509.752,442.664Z" style="fill:rgb(247,245,230);"/>
                                    </g>
                                    <g transform="matrix(1,0,0,0.1,-1.36424e-12,0)">
                                        <circle cx="602.381" cy="407.737" r="18.828" style="fill:rgb(116,102,75);"/>
                                    </g>
                                    <g transform="matrix(1,0,0,0.1,116.654,3.01158)">
                                        <circle cx="602.381" cy="407.737" r="18.828" style="fill:rgb(116,102,75);"/>
                                    </g>
                                    <g transform="matrix(1,0,0,0.1,-1.36424e-12,0)">
                                        <path d="M621.208,464.747C612.102,493.617 664.51,516.426 687.627,481.405" style="fill:none;stroke:rgb(101,79,62);stroke-width:20.83px;"/>
                                    </g>
                                </g>
                                <g transform="matrix(21.0156,0,0,8.86502,3980.61,-4306.61)">
                                    <path d="M520.29,202.648L520.29,304.22" style="fill:none;stroke:rgb(255,206,127);stroke-width:41.67px;"/>
                                </g>
                                <g transform="matrix(17.8512,-4.67818,11.0902,7.53016,577.141,-1319.45)">
                                    <path d="M520.29,202.648L520.29,304.22" style="fill:none;stroke:rgb(255,206,127);stroke-width:41.67px;"/>
                                </g>
                                <g transform="matrix(9.95876,-7.80648,18.5062,4.2009,1573.16,1821.51)">
                                    <path d="M520.29,202.648L520.29,304.22" style="fill:none;stroke:rgb(255,206,127);stroke-width:41.67px;"/>
                                </g>
                                <g transform="matrix(3.91873,-8.70954,20.647,1.65304,3233.3,3756.49)">
                                    <path d="M520.29,202.648L520.29,304.22" style="fill:none;stroke:rgb(255,206,127);stroke-width:41.67px;"/>
                                </g>
                            </g>
                            <g transform="matrix(0.00415049,0.000616525,-0.00190815,0.00753638,3184.87,1103.24)">
                                <g transform="matrix(20.221,2.41474,-5.72444,8.52981,7681.2,-5263.17)">
                                    <path d="M520.29,202.648L520.29,304.22" style="fill:none;stroke:rgb(255,206,127);stroke-width:41.67px;"/>
                                </g>
                                <g transform="matrix(21.0156,0,0,88.6502,6243.37,-3970.66)">
                                    <g transform="matrix(1,0,0,0.1,-1.36424e-12,0)">
                                        <path d="M524.479,407.435L781.038,465.389C833.324,520.806 880.02,543.701 907.772,456.36C787.757,479.95 940.533,142.547 729.098,261.9C631.702,210.683 481.899,300.974 524.479,407.435Z" style="fill:rgb(116,102,75);"/>
                                    </g>
                                    <g transform="matrix(1,0,0,0.1,-1.36424e-12,0)">
                                        <path d="M509.752,442.664C512.043,443.169 513.605,445.294 513.402,447.631C509.298,495.089 533.085,515.562 566.901,525.531C566.943,525.544 566.985,525.556 567.028,525.567C569.85,526.313 667.15,552.054 672.746,553.535C672.914,553.579 673.085,553.615 673.258,553.64C725.863,561.427 756.413,547.159 772.082,518.01C773.115,516.063 775.368,515.102 777.488,515.705C848.791,535.94 843.527,422.984 788.938,462.417C787.456,463.451 785.51,463.534 783.945,462.63C782.381,461.725 781.481,459.997 781.638,458.196C783.001,442.202 785.511,413.378 786.455,402.541C786.666,400.122 784.994,397.943 782.603,397.521C769.763,395.252 731.352,388.463 719.521,386.372C717.448,386.006 715.874,384.302 715.673,382.206C715.318,378.511 714.729,372.362 714.105,365.859C713.888,363.595 712.076,361.814 709.81,361.636C707.543,361.457 705.475,362.932 704.906,365.134C703.498,370.58 702.168,375.724 701.27,379.198C700.634,381.66 698.148,383.165 695.671,382.588C682.64,379.551 644.678,370.705 631.46,367.625C630.243,367.341 629.19,366.583 628.535,365.519C627.88,364.456 627.676,363.174 627.97,361.96C628.587,359.412 629.417,355.984 630.347,352.141C630.903,349.846 629.663,347.495 627.455,346.658C625.246,345.821 622.76,346.759 621.654,348.846C619.186,353.505 617.012,357.61 615.6,360.275C614.604,362.155 612.465,363.128 610.393,362.643C599.846,360.177 568.528,352.853 557.566,350.29C555.346,349.77 553.075,350.925 552.185,353.024C548.831,360.941 540.705,380.117 535.025,393.52C533.759,396.523 530.412,398.066 527.306,397.078C524.2,396.09 522.359,392.897 523.06,389.714C523.154,389.406 523.231,389.089 523.311,388.768C524.033,385.752 522.373,382.675 519.455,381.623C466.647,362.472 455.957,430.689 509.752,442.664Z" style="fill:rgb(247,245,230);"/>
                                    </g>
                                    <g transform="matrix(1,0,0,0.1,-1.36424e-12,0)">
                                        <circle cx="602.381" cy="407.737" r="18.828" style="fill:rgb(116,102,75);"/>
                                    </g>
                                    <g transform="matrix(1,0,0,0.1,116.654,3.01158)">
                                        <circle cx="602.381" cy="407.737" r="18.828" style="fill:rgb(116,102,75);"/>
                                    </g>
                                    <g transform="matrix(1,0,0,0.1,-1.36424e-12,0)">
                                        <path d="M621.208,464.747C612.102,493.617 664.51,516.426 687.627,481.405" style="fill:none;stroke:rgb(101,79,62);stroke-width:20.83px;"/>
                                    </g>
                                </g>
                                <g transform="matrix(18.1374,-4.47797,106.156,76.5091,-2650.14,1807.71)">
                                    <g transform="matrix(1,0,0,0.1,-1.36424e-12,0)">
                                        <path d="M529.474,407.737L781.038,465.389C833.324,520.806 862.231,277.064 717.156,236.355C612.478,206.981 474.581,320.064 529.474,407.737Z" style="fill:rgb(116,102,75);"/>
                                    </g>
                                    <g transform="matrix(1,0,0,0.1,-1.36424e-12,0)">
                                        <path d="M509.752,442.664C512.043,443.169 513.605,445.294 513.402,447.631C509.298,495.089 533.085,515.562 566.901,525.531C566.943,525.544 566.985,525.556 567.028,525.567C569.85,526.313 667.15,552.054 672.746,553.535C672.914,553.579 673.085,553.615 673.258,553.64C725.863,561.427 756.413,547.159 772.082,518.01C773.115,516.063 775.368,515.102 777.488,515.705C848.791,535.94 843.527,422.984 788.938,462.417C787.456,463.451 785.51,463.534 783.945,462.63C782.381,461.725 781.481,459.997 781.638,458.196C783.001,442.202 785.511,413.378 786.455,402.541C786.666,400.122 784.994,397.943 782.603,397.521C769.763,395.252 731.352,388.463 719.521,386.372C717.448,386.006 715.874,384.302 715.673,382.206C715.318,378.511 714.729,372.362 714.105,365.859C713.888,363.595 712.076,361.814 709.81,361.636C707.543,361.457 705.475,362.932 704.906,365.134C703.498,370.58 702.168,375.724 701.27,379.198C700.634,381.66 698.148,383.165 695.671,382.588C682.64,379.551 644.678,370.705 631.46,367.625C630.243,367.341 629.19,366.583 628.535,365.519C627.88,364.456 627.676,363.174 627.97,361.96C628.587,359.412 629.417,355.984 630.347,352.141C630.903,349.846 629.663,347.495 627.455,346.658C625.246,345.821 622.76,346.759 621.654,348.846C619.186,353.505 617.012,357.61 615.6,360.275C614.604,362.155 612.465,363.128 610.393,362.643C599.846,360.177 568.528,352.853 557.566,350.29C555.346,349.77 553.075,350.925 552.185,353.024C548.571,361.554 539.417,383.156 533.753,396.524C532.585,399.283 529.554,400.751 526.665,399.956C523.776,399.161 521.922,396.349 522.331,393.381C522.446,392.784 522.558,392.165 522.687,391.525C523.581,386.585 520.584,381.77 515.756,380.391C466.175,365.689 457.238,430.974 509.752,442.664Z" style="fill:rgb(247,245,230);"/>
                                    </g>
                                    <g transform="matrix(1,0,0,0.1,-1.36424e-12,0)">
                                        <circle cx="602.381" cy="407.737" r="18.828" style="fill:rgb(116,102,75);"/>
                                    </g>
                                    <g transform="matrix(1,0,0,0.1,116.654,3.01158)">
                                        <circle cx="602.381" cy="407.737" r="18.828" style="fill:rgb(116,102,75);"/>
                                    </g>
                                    <g transform="matrix(1,0,0,0.1,-1.36424e-12,0)">
                                        <path d="M621.208,464.747C612.102,493.617 664.51,516.426 687.627,481.405" style="fill:none;stroke:rgb(101,79,62);stroke-width:20.83px;"/>
                                    </g>
                                </g>
                                <g transform="matrix(21.0156,0,0,8.86502,3980.61,-4306.61)">
                                    <path d="M520.29,202.648L520.29,304.22" style="fill:none;stroke:rgb(255,206,127);stroke-width:41.67px;"/>
                                </g>
                                <g transform="matrix(17.8512,-4.67818,11.0902,7.53016,577.141,-1319.45)">
                                    <path d="M520.29,202.648L520.29,304.22" style="fill:none;stroke:rgb(255,206,127);stroke-width:41.67px;"/>
                                </g>
                                <g transform="matrix(9.95876,-7.80648,18.5062,4.2009,1573.16,1821.51)">
                                    <path d="M520.29,202.648L520.29,304.22" style="fill:none;stroke:rgb(255,206,127);stroke-width:41.67px;"/>
                                </g>
                                <g transform="matrix(3.91873,-8.70954,20.647,1.65304,3233.3,3756.49)">
                                    <path d="M520.29,202.648L520.29,304.22" style="fill:none;stroke:rgb(255,206,127);stroke-width:41.67px;"/>
                                </g>
                            </g>
                            <g transform="matrix(0.00415049,0.000616525,-0.00190815,0.00753638,3238.99,1130.61)">
                                <g transform="matrix(20.221,2.41474,-5.72444,8.52981,7681.2,-5263.17)">
                                    <path d="M520.29,202.648L520.29,304.22" style="fill:none;stroke:rgb(255,206,127);stroke-width:41.67px;"/>
                                </g>
                                <g transform="matrix(21.0156,0,0,88.6502,6243.37,-3970.66)">
                                    <g transform="matrix(1,0,0,0.1,-1.36424e-12,0)">
                                        <path d="M524.479,407.435L781.038,465.389C833.324,520.806 880.02,543.701 907.772,456.36C787.757,479.95 940.533,142.547 729.098,261.9C631.702,210.683 481.899,300.974 524.479,407.435Z" style="fill:rgb(116,102,75);"/>
                                    </g>
                                    <g transform="matrix(1,0,0,0.1,-1.36424e-12,0)">
                                        <path d="M509.752,442.664C512.043,443.169 513.605,445.294 513.402,447.631C509.298,495.089 533.085,515.562 566.901,525.531C566.943,525.544 566.985,525.556 567.028,525.567C569.85,526.313 667.15,552.054 672.746,553.535C672.914,553.579 673.085,553.615 673.258,553.64C725.863,561.427 756.413,547.159 772.082,518.01C773.115,516.063 775.368,515.102 777.488,515.705C848.791,535.94 843.527,422.984 788.938,462.417C787.456,463.451 785.51,463.534 783.945,462.63C782.381,461.725 781.481,459.997 781.638,458.196C783.001,442.202 785.511,413.378 786.455,402.541C786.666,400.122 784.994,397.943 782.603,397.521C769.763,395.252 731.352,388.463 719.521,386.372C717.448,386.006 715.874,384.302 715.673,382.206C715.318,378.511 714.729,372.362 714.105,365.859C713.888,363.595 712.076,361.814 709.81,361.636C707.543,361.457 705.475,362.932 704.906,365.134C703.498,370.58 702.168,375.724 701.27,379.198C700.634,381.66 698.148,383.165 695.671,382.588C682.64,379.551 644.678,370.705 631.46,367.625C630.243,367.341 629.19,366.583 628.535,365.519C627.88,364.456 627.676,363.174 627.97,361.96C628.587,359.412 629.417,355.984 630.347,352.141C630.903,349.846 629.663,347.495 627.455,346.658C625.246,345.821 622.76,346.759 621.654,348.846C619.186,353.505 617.012,357.61 615.6,360.275C614.604,362.155 612.465,363.128 610.393,362.643C599.846,360.177 568.528,352.853 557.566,350.29C555.346,349.77 553.075,350.925 552.185,353.024C548.831,360.941 540.705,380.117 535.025,393.52C533.759,396.523 530.412,398.066 527.306,397.078C524.2,396.09 522.359,392.897 523.06,389.714C523.154,389.406 523.231,389.089 523.311,388.768C524.033,385.752 522.373,382.675 519.455,381.623C466.647,362.472 455.957,430.689 509.752,442.664Z" style="fill:rgb(247,245,230);"/>
                                    </g>
                                    <g transform="matrix(1,0,0,0.1,-1.36424e-12,0)">
                                        <circle cx="602.381" cy="407.737" r="18.828" style="fill:rgb(116,102,75);"/>
                                    </g>
                                    <g transform="matrix(1,0,0,0.1,116.654,3.01158)">
                                        <circle cx="602.381" cy="407.737" r="18.828" style="fill:rgb(116,102,75);"/>
                                    </g>
                                    <g transform="matrix(1,0,0,0.1,-1.36424e-12,0)">
                                        <path d="M621.208,464.747C612.102,493.617 664.51,516.426 687.627,481.405" style="fill:none;stroke:rgb(101,79,62);stroke-width:20.83px;"/>
                                    </g>
                                </g>
                                <g transform="matrix(18.1374,-4.47797,106.156,76.5091,-2650.14,1807.71)">
                                    <g transform="matrix(1,0,0,0.1,-1.36424e-12,0)">
                                        <path d="M529.474,407.737L781.038,465.389C833.324,520.806 862.231,277.064 717.156,236.355C612.478,206.981 474.581,320.064 529.474,407.737Z" style="fill:rgb(116,102,75);"/>
                                    </g>
                                    <g transform="matrix(1,0,0,0.1,-1.36424e-12,0)">
                                        <path d="M509.752,442.664C512.043,443.169 513.605,445.294 513.402,447.631C509.298,495.089 533.085,515.562 566.901,525.531C566.943,525.544 566.985,525.556 567.028,525.567C569.85,526.313 667.15,552.054 672.746,553.535C672.914,553.579 673.085,553.615 673.258,553.64C725.863,561.427 756.413,547.159 772.082,518.01C773.115,516.063 775.368,515.102 777.488,515.705C848.791,535.94 843.527,422.984 788.938,462.417C787.456,463.451 785.51,463.534 783.945,462.63C782.381,461.725 781.481,459.997 781.638,458.196C783.001,442.202 785.511,413.378 786.455,402.541C786.666,400.122 784.994,397.943 782.603,397.521C769.763,395.252 731.352,388.463 719.521,386.372C717.448,386.006 715.874,384.302 715.673,382.206C715.318,378.511 714.729,372.362 714.105,365.859C713.888,363.595 712.076,361.814 709.81,361.636C707.543,361.457 705.475,362.932 704.906,365.134C703.498,370.58 702.168,375.724 701.27,379.198C700.634,381.66 698.148,383.165 695.671,382.588C682.64,379.551 644.678,370.705 631.46,367.625C630.243,367.341 629.19,366.583 628.535,365.519C627.88,364.456 627.676,363.174 627.97,361.96C628.587,359.412 629.417,355.984 630.347,352.141C630.903,349.846 629.663,347.495 627.455,346.658C625.246,345.821 622.76,346.759 621.654,348.846C619.186,353.505 617.012,357.61 615.6,360.275C614.604,362.155 612.465,363.128 610.393,362.643C599.846,360.177 568.528,352.853 557.566,350.29C555.346,349.77 553.075,350.925 552.185,353.024C548.571,361.554 539.417,383.156 533.753,396.524C532.585,399.283 529.554,400.751 526.665,399.956C523.776,399.161 521.922,396.349 522.331,393.381C522.446,392.784 522.558,392.165 522.687,391.525C523.581,386.585 520.584,381.77 515.756,380.391C466.175,365.689 457.238,430.974 509.752,442.664Z" style="fill:rgb(247,245,230);"/>
                                    </g>
                                    <g transform="matrix(1,0,0,0.1,-1.36424e-12,0)">
                                        <circle cx="602.381" cy="407.737" r="18.828" style="fill:rgb(116,102,75);"/>
                                    </g>
                                    <g transform="matrix(1,0,0,0.1,116.654,3.01158)">
                                        <circle cx="602.381" cy="407.737" r="18.828" style="fill:rgb(116,102,75);"/>
                                    </g>
                                    <g transform="matrix(1,0,0,0.1,-1.36424e-12,0)">
                                        <path d="M621.208,464.747C612.102,493.617 664.51,516.426 687.627,481.405" style="fill:none;stroke:rgb(101,79,62);stroke-width:20.83px;"/>
                                    </g>
                                </g>
                                <g transform="matrix(21.0156,0,0,8.86502,3980.61,-4306.61)">
                                    <path d="M520.29,202.648L520.29,304.22" style="fill:none;stroke:rgb(255,206,127);stroke-width:41.67px;"/>
                                </g>
                                <g transform="matrix(17.8512,-4.67818,11.0902,7.53016,577.141,-1319.45)">
                                    <path d="M520.29,202.648L520.29,304.22" style="fill:none;stroke:rgb(255,206,127);stroke-width:41.67px;"/>
                                </g>
                                <g transform="matrix(9.95876,-7.80648,18.5062,4.2009,1573.16,1821.51)">
                                    <path d="M520.29,202.648L520.29,304.22" style="fill:none;stroke:rgb(255,206,127);stroke-width:41.67px;"/>
                                </g>
                                <g transform="matrix(3.91873,-8.70954,20.647,1.65304,3233.3,3756.49)">
                                    <path d="M520.29,202.648L520.29,304.22" style="fill:none;stroke:rgb(255,206,127);stroke-width:41.67px;"/>
                                </g>
                            </g>
                        </g>
                        <path d="M3312.51,1067.92L3312.51,1134.54C3312.51,1143.23 3303.31,1150.28 3291.97,1150.28L3250.88,1150.28C3239.54,1150.28 3230.33,1143.23 3230.33,1134.54L3230.33,1067.92C3230.33,1059.23 3239.54,1052.18 3250.88,1052.18L3291.97,1052.18C3303.31,1052.18 3312.51,1059.23 3312.51,1067.92Z" style="fill:none;stroke:rgb(245,209,0);stroke-width:5px;stroke-miterlimit:2;"/>
                    </g>
                    <g id="resources2" serif:id="resources" transform="matrix(1,0,2.77556e-17,1,-2.01903,-1.18838)">
                        <path d="M3312.51,1067.92L3312.51,1134.54C3312.51,1143.23 3303.31,1150.28 3291.97,1150.28L3250.88,1150.28C3239.54,1150.28 3230.33,1143.23 3230.33,1134.54L3230.33,1067.92C3230.33,1059.23 3239.54,1052.18 3250.88,1052.18L3291.97,1052.18C3303.31,1052.18 3312.51,1059.23 3312.51,1067.92ZM3310.14,1067.92C3310.14,1060.24 3302,1054 3291.97,1054L3250.88,1054C3240.85,1054 3232.7,1060.24 3232.7,1067.92L3232.7,1134.54C3232.7,1142.22 3240.85,1148.46 3250.88,1148.46L3291.97,1148.46C3302,1148.46 3310.14,1142.22 3310.14,1134.54L3310.14,1067.92Z" style="fill:rgb(250,154,106);"/>
                    </g>
                    <g transform="matrix(1.36168,0.202268,-0.224882,0.888191,-931.656,-533.308)">
                        <ellipse cx="3251.11" cy="1068.13" rx="6.486" ry="7.622" style="fill:rgb(112,84,50);"/>
                        <clipPath id="_clip3">
                            <ellipse cx="3251.11" cy="1068.13" rx="6.486" ry="7.622"/>
                        </clipPath>
                        <g clip-path="url(#_clip3)">
                            <path d="M3252.47,1060.68C3255.4,1061.41 3257.6,1064.47 3257.6,1068.13C3257.6,1072.34 3254.69,1075.76 3251.11,1075.76C3249.93,1075.76 3248.82,1075.38 3247.86,1074.73C3248.3,1074.84 3248.75,1074.9 3249.22,1074.9C3252.8,1074.9 3255.7,1071.48 3255.7,1067.28C3255.7,1064.46 3254.4,1062 3252.47,1060.68Z" style="fill:rgb(255,189,23);"/>
                        </g>
                    </g>
                </g>
                <path d="M3312.51,1067.92L3312.51,1134.54C3312.51,1143.23 3303.31,1150.28 3291.97,1150.28L3250.88,1150.28C3239.54,1150.28 3230.33,1143.23 3230.33,1134.54L3230.33,1067.92C3230.33,1059.23 3239.54,1052.18 3250.88,1052.18L3291.97,1052.18C3303.31,1052.18 3312.51,1059.23 3312.51,1067.92Z" style="fill:none;stroke:rgb(112,84,50);stroke-width:5px;stroke-miterlimit:2;"/>
            </g>
        </g>
    </g>
</svg>
