<?xml version="1.0" encoding="UTF-8" standalone="no"?>
<!DOCTYPE svg PUBLIC "-//W3C//DTD SVG 1.1//EN" "http://www.w3.org/Graphics/SVG/1.1/DTD/svg11.dtd">
<svg width="100%" height="100%" viewBox="0 0 751 751" version="1.1" xmlns="http://www.w3.org/2000/svg" xmlns:xlink="http://www.w3.org/1999/xlink" xml:space="preserve" xmlns:serif="http://www.serif.com/" style="fill-rule:evenodd;clip-rule:evenodd;stroke-linecap:round;stroke-linejoin:round;stroke-miterlimit:1.5;">
    <g transform="matrix(1,0,0,1,-1987,-4079)">
        <g id="weavingIcon" transform="matrix(0.571646,0,0,0.615258,333.077,4079.42)">
            <rect x="2894.42" y="0" width="1312" height="1219" style="fill:none;"/>
            <g id="weaving" transform="matrix(7.05065,0,1.36333e-15,5.55601,-42989.6,-159.11)">
                <path d="M6662.84,64.6L6662.84,212.077C6662.84,224.253 6654.46,234.138 6644.13,234.138L6557.5,234.138C6547.17,234.138 6538.79,224.253 6538.79,212.077L6538.79,64.6C6538.79,52.424 6547.17,42.539 6557.5,42.539L6644.13,42.539C6654.46,42.539 6662.84,52.424 6662.84,64.6Z" style="fill:rgb(255,245,232);"/>
                <clipPath id="_clip1">
                    <path d="M6662.84,64.6L6662.84,212.077C6662.84,224.253 6654.46,234.138 6644.13,234.138L6557.5,234.138C6547.17,234.138 6538.79,224.253 6538.79,212.077L6538.79,64.6C6538.79,52.424 6547.17,42.539 6557.5,42.539L6644.13,42.539C6654.46,42.539 6662.84,52.424 6662.84,64.6Z"/>
                </clipPath>
                <g clip-path="url(#_clip1)">
                    <g transform="matrix(0.742931,0,1.38778e-17,0.802786,1695.08,27.079)">
                        <path d="M6662.84,49.791L6662.84,226.886C6662.84,230.889 6659.87,234.138 6656.2,234.138L6545.44,234.138C6541.77,234.138 6538.79,230.889 6538.79,226.886L6538.79,49.791C6538.79,45.788 6541.77,42.539 6545.44,42.539L6656.2,42.539C6659.87,42.539 6662.84,45.788 6662.84,49.791Z" style="fill:rgb(255,159,125);"/>
                    </g>
                    <g transform="matrix(0.261338,0.0137178,-0.0115812,0.30672,6553.88,-1323.13)">
                        <path d="M378.749,4557.53L406.035,4557.27L401.088,4590.71C526.446,4585.45 520.52,4652.35 495.117,4729.95L273.863,4729.95C236.336,4643.14 254.112,4586.85 378.353,4589.32L378.749,4557.53Z" style="fill:rgb(255,206,127);"/>
                    </g>
                    <g transform="matrix(0.261338,0.0137178,-0.0115812,0.30672,6553.88,-1323.13)">
                        <path d="M273.329,4729.95C305.751,4674.55 432.219,4671.1 485.284,4718.81C491.852,4724.69 496.633,4732.31 499.078,4740.8C531.621,4852.84 419.973,4875.84 390.458,4936.76C300.442,4877.43 253.616,4809.96 273.329,4729.95Z" style="fill:rgb(116,102,75);"/>
                    </g>
                    <g transform="matrix(0.152541,0.195492,-0.166502,0.178953,5700.03,-1228.92)">
                        <g transform="matrix(1,0,0,1,4841.59,17.6641)">
                            <path d="M1698.75,459.865C1698.75,459.865 1736.77,454.812 1767.67,509.503" style="fill:none;stroke:rgb(208,168,151);stroke-width:29.17px;"/>
                        </g>
                        <g transform="matrix(0.193909,0,0,0.193909,6272.91,464.255)">
                            <circle cx="1776.41" cy="546.577" r="105.134" style="fill:rgb(208,168,151);"/>
                        </g>
                    </g>
                </g>
                <path d="M6662.84,64.6L6662.84,212.077C6662.84,224.253 6654.46,234.138 6644.13,234.138L6557.5,234.138C6547.17,234.138 6538.79,224.253 6538.79,212.077L6538.79,64.6C6538.79,52.424 6547.17,42.539 6557.5,42.539L6644.13,42.539C6654.46,42.539 6662.84,52.424 6662.84,64.6Z" style="fill:none;stroke:rgb(94,77,66);stroke-width:6.73px;stroke-linecap:square;stroke-miterlimit:2;"/>
            </g>
        </g>
    </g>
</svg>
