<?xml version="1.0" encoding="UTF-8" standalone="no"?>
<!DOCTYPE svg PUBLIC "-//W3C//DTD SVG 1.1//EN" "http://www.w3.org/Graphics/SVG/1.1/DTD/svg11.dtd">
<svg width="100%" height="100%" viewBox="0 0 1313 1220" version="1.1" xmlns="http://www.w3.org/2000/svg" xmlns:xlink="http://www.w3.org/1999/xlink" xml:space="preserve" xmlns:serif="http://www.serif.com/" style="fill-rule:evenodd;clip-rule:evenodd;stroke-linecap:round;stroke-linejoin:round;stroke-miterlimit:1.5;">
    <g transform="matrix(1,0,0,1,-1374,-52)">
        <g id="weaving" transform="matrix(0.437333,0,0,0.406333,1374.09,52.4631)">
            <rect x="0" y="0" width="3000" height="3000" style="fill:none;"/>
            <g id="postBG" transform="matrix(2.28659,0,0,2.46103,0,0)">
                <path d="M1287.25,55.18L1287.25,1169.02C1287.25,1178.93 1279.21,1186.97 1269.3,1186.97L155.795,1186.97C145.888,1186.97 137.845,1178.93 137.845,1169.02L137.845,55.18C137.845,45.273 145.888,37.23 155.795,37.23L1269.3,37.23C1279.21,37.23 1287.25,45.273 1287.25,55.18Z" style="fill:rgb(255,159,125);"/>
            </g>
            <g id="dateTags">
            </g>
            <g id="postContent" transform="matrix(2.12957,0,0,2.15423,111.918,106.656)">
                <path d="M1287.25,73.875L1287.25,1150.32C1287.25,1170.55 1271.82,1186.97 1252.81,1186.97L172.287,1186.97C153.278,1186.97 137.845,1170.55 137.845,1150.32L137.845,73.875C137.845,53.65 153.278,37.23 172.287,37.23L1252.81,37.23C1271.82,37.23 1287.25,53.65 1287.25,73.875Z" style="fill:white;"/>
            </g>
            <g id="textFrame">
            </g>
            <g transform="matrix(2.28659,0,0,2.46103,119.208,-2.60224)">
                <g transform="matrix(27.5323,0,0,27.5323,286.135,1027.12)">
                </g>
                <text x="163.066px" y="1027.12px" style="font-family:'SeuratPro-B', 'FOT-Seurat Pro', serif;font-weight:700;font-stretch:extra-expanded;font-size:27.532px;fill:rgb(112,84,50);">(more...)</text>
            </g>
            <g id="postTypeBanner" transform="matrix(2.28659,0,0,2.46103,0,0)">
                <path d="M1247.81,101.031L1247.81,176.343L48.035,176.343C34.18,176.343 22.931,165.095 22.931,151.239L22.931,101.031C22.931,87.175 34.18,75.927 48.035,75.927L1222.7,75.927C1236.56,75.927 1247.81,87.175 1247.81,101.031Z" style="fill:rgb(255,245,232);"/>
            </g>
            <g transform="matrix(2.28659,0,0,2.46103,28.0088,-2193.78)">
                <g transform="matrix(27.5323,0,0,27.5323,524.675,1027.12)">
                </g>
                <text x="163.066px" y="1027.12px" style="font-family:'SeuratPro-B', 'FOT-Seurat Pro', serif;font-weight:700;font-stretch:extra-expanded;font-size:27.532px;fill:rgb(112,84,50);">W<tspan x="188.919px " y="1027.12px ">e</tspan>aving Project: {Name]</text>
            </g>
            <g id="weaving1" serif:id="weaving" transform="matrix(0.986115,0,1.90678e-16,0.900165,-6328.87,192.312)">
                <path d="M6662.84,64.6L6662.84,212.077C6662.84,224.253 6654.46,234.138 6644.13,234.138L6557.5,234.138C6547.17,234.138 6538.79,224.253 6538.79,212.077L6538.79,64.6C6538.79,52.424 6547.17,42.539 6557.5,42.539L6644.13,42.539C6654.46,42.539 6662.84,52.424 6662.84,64.6Z" style="fill:rgb(255,245,232);"/>
                <clipPath id="_clip1">
                    <path d="M6662.84,64.6L6662.84,212.077C6662.84,224.253 6654.46,234.138 6644.13,234.138L6557.5,234.138C6547.17,234.138 6538.79,224.253 6538.79,212.077L6538.79,64.6C6538.79,52.424 6547.17,42.539 6557.5,42.539L6644.13,42.539C6654.46,42.539 6662.84,52.424 6662.84,64.6Z"/>
                </clipPath>
                <g clip-path="url(#_clip1)">
                    <g transform="matrix(0.742931,0,1.38778e-17,0.802786,1695.08,27.079)">
                        <path d="M6662.84,49.791L6662.84,226.886C6662.84,230.889 6659.87,234.138 6656.2,234.138L6545.44,234.138C6541.77,234.138 6538.79,230.889 6538.79,226.886L6538.79,49.791C6538.79,45.788 6541.77,42.539 6545.44,42.539L6656.2,42.539C6659.87,42.539 6662.84,45.788 6662.84,49.791Z" style="fill:rgb(255,159,125);"/>
                    </g>
                    <g transform="matrix(0.261338,0.0137178,-0.0115812,0.30672,6553.88,-1323.13)">
                        <path d="M378.749,4557.53L406.035,4557.27L401.088,4590.71C526.446,4585.45 520.52,4652.35 495.117,4729.95L273.863,4729.95C236.336,4643.14 254.112,4586.85 378.353,4589.32L378.749,4557.53Z" style="fill:rgb(255,206,127);"/>
                    </g>
                    <g transform="matrix(0.261338,0.0137178,-0.0115812,0.30672,6553.88,-1323.13)">
                        <path d="M273.329,4729.95C279.071,4720.14 287.762,4711.96 298.472,4705.4C349.263,4675.03 414.736,4688.76 449.194,4737.01C483.652,4785.25 475.633,4851.95 430.735,4890.57C414.169,4904.91 398.93,4919.28 390.458,4936.76C300.442,4877.43 253.616,4809.96 273.329,4729.95Z" style="fill:rgb(116,102,75);"/>
                    </g>
                    <g transform="matrix(0.152541,0.195492,-0.166502,0.178953,5700.03,-1228.92)">
                        <g transform="matrix(1,0,0,1,4841.59,17.6641)">
                            <path d="M1698.75,459.865C1698.75,459.865 1736.77,454.812 1767.67,509.503" style="fill:none;stroke:rgb(208,168,151);stroke-width:29.17px;"/>
                        </g>
                        <g transform="matrix(0.193909,0,0,0.193909,6272.91,464.255)">
                            <circle cx="1776.41" cy="546.577" r="105.134" style="fill:rgb(208,168,151);"/>
                        </g>
                    </g>
                </g>
                <path d="M6662.84,64.6L6662.84,212.077C6662.84,224.253 6654.46,234.138 6644.13,234.138L6557.5,234.138C6547.17,234.138 6538.79,224.253 6538.79,212.077L6538.79,64.6C6538.79,52.424 6547.17,42.539 6557.5,42.539L6644.13,42.539C6654.46,42.539 6662.84,52.424 6662.84,64.6Z" style="fill:none;stroke:rgb(94,77,66);stroke-width:6.73px;stroke-linecap:square;stroke-miterlimit:2;"/>
            </g>
        </g>
    </g>
</svg>
