<?xml version="1.0" encoding="UTF-8" standalone="no"?>
<!DOCTYPE svg PUBLIC "-//W3C//DTD SVG 1.1//EN" "http://www.w3.org/Graphics/SVG/1.1/DTD/svg11.dtd">
<svg width="100%" height="100%" viewBox="0 0 1001 1001" version="1.1" xmlns="http://www.w3.org/2000/svg" xmlns:xlink="http://www.w3.org/1999/xlink" xml:space="preserve" xmlns:serif="http://www.serif.com/" style="fill-rule:evenodd;clip-rule:evenodd;stroke-linecap:round;stroke-linejoin:round;stroke-miterlimit:1.5;">
    <g transform="matrix(1,0,0,1,-3086,-4723)">
        <g id="year4" transform="matrix(1,0,0,10,3086.24,4723.07)">
            <rect x="0" y="0" width="1000" height="100" style="fill:none;"/>
            <g transform="matrix(1.09566,-0.109566,1.09566,0.109566,7017.66,-192.261)">
                <circle cx="-4079.87" cy="-1868.77" r="322.686" style="fill:rgb(242,230,155);"/>
                <clipPath id="_clip1">
                    <circle cx="-4079.87" cy="-1868.77" r="322.686"/>
                </clipPath>
                <g clip-path="url(#_clip1)">
                    <g transform="matrix(1.03317,0,0,0.921702,3705.09,1691.6)">
                        <ellipse cx="-7532.7" cy="-3655.92" rx="361.471" ry="198.088" style="fill:rgb(250,194,0);"/>
                    </g>
                    <g transform="matrix(1.01184,0,0,1.01184,3706,2016.12)">
                        <g transform="matrix(1.10942,0,0,1.10942,705.639,473.906)">
                            <path d="M-7685.56,-3712.97C-7685.71,-3714.17 -7685.78,-3715.39 -7685.78,-3716.64C-7685.78,-3729.95 -7677.15,-3741.25 -7665.2,-3745.22C-7664.62,-3745.41 -7664.08,-3745.68 -7663.61,-3746.03C-7662.18,-3747.07 -7661.28,-3748.76 -7661.28,-3750.6L-7661.23,-3750.6C-7661.23,-3807.21 -7620.35,-3853.26 -7569.75,-3854C-7519.14,-3853.26 -7478.26,-3807.21 -7478.26,-3750.6L-7478.21,-3750.6C-7478.21,-3748.76 -7477.32,-3747.07 -7475.89,-3746.03C-7475.41,-3745.68 -7474.87,-3745.41 -7474.29,-3745.22C-7462.34,-3741.25 -7453.71,-3729.95 -7453.71,-3716.64C-7453.71,-3715.39 -7453.78,-3714.17 -7453.93,-3712.97C-7453.78,-3711.77 -7453.71,-3710.54 -7453.71,-3709.3C-7453.71,-3692.69 -7467.16,-3679.2 -7483.72,-3679.2C-7486.77,-3679.2 -7489.71,-3679.66 -7492.48,-3680.5C-7496.24,-3681.67 -7500.34,-3680.52 -7502.94,-3677.56C-7508.26,-3671.57 -7514.25,-3666.33 -7520.77,-3661.95C-7521.64,-3661.38 -7522.4,-3660.69 -7523.04,-3659.91C-7525.46,-3656.93 -7526.01,-3652.71 -7524.19,-3649.12C-7523.54,-3647.73 -7522.99,-3646.66 -7522.86,-3646.39C-7522.83,-3646.34 -7522.85,-3646.28 -7522.9,-3646.25C-7523.27,-3645.64 -7519.99,-3642.43 -7515.43,-3639.59C-7509.36,-3635.81 -7501.01,-3632.69 -7495.93,-3637.25C-7434.15,-3692.67 -7451.4,-3602.42 -7499.86,-3602.51C-7502.85,-3602.47 -7505.66,-3601.09 -7507.51,-3598.75C-7509.37,-3596.41 -7510.07,-3593.35 -7509.43,-3590.43C-7506.54,-3577.09 -7505.6,-3561.1 -7507.19,-3560.5C-7525.55,-3553.68 -7613.95,-3553.68 -7632.3,-3560.5C-7633.9,-3561.1 -7632.95,-3577.09 -7630.06,-3590.43C-7629.42,-3593.35 -7630.12,-3596.41 -7631.98,-3598.75C-7633.84,-3601.09 -7636.65,-3602.47 -7639.63,-3602.51C-7688.09,-3602.42 -7705.34,-3692.67 -7643.56,-3637.25C-7638.48,-3632.69 -7630.14,-3635.81 -7624.06,-3639.59C-7619.5,-3642.43 -7616.22,-3645.64 -7616.59,-3646.25C-7616.64,-3646.28 -7616.66,-3646.34 -7616.64,-3646.39C-7616.5,-3646.66 -7615.95,-3647.73 -7615.31,-3649.12C-7613.48,-3652.71 -7614.03,-3656.93 -7616.45,-3659.91C-7617.09,-3660.69 -7617.85,-3661.38 -7618.73,-3661.95C-7625.24,-3666.33 -7631.23,-3671.57 -7636.55,-3677.56C-7639.15,-3680.52 -7643.25,-3681.67 -7647.01,-3680.5C-7649.78,-3679.66 -7652.72,-3679.2 -7655.77,-3679.2C-7672.33,-3679.2 -7685.78,-3692.69 -7685.78,-3709.3C-7685.78,-3710.54 -7685.71,-3711.77 -7685.56,-3712.97Z" style="fill:rgb(247,245,230);"/>
                        </g>
                        <g transform="matrix(1.70538,0,0,1.79123,-8574.96,-9470.72)">
                            <path d="M472.681,3203.2C472.64,3203.27 472.66,3203.35 472.727,3203.4C472.794,3203.44 472.886,3203.43 472.94,3203.38C475.008,3201.16 479.577,3196.26 480.419,3195.36C480.452,3195.32 480.5,3195.3 480.549,3195.31C480.598,3195.31 480.643,3195.33 480.671,3195.37C481.806,3196.92 490.905,3209.36 492.127,3211.03C492.158,3211.07 492.208,3211.1 492.261,3211.09C492.314,3211.09 492.363,3211.07 492.393,3211.03C493.463,3209.47 500.817,3198.76 501.934,3197.13C501.964,3197.09 502.017,3197.06 502.072,3197.06C502.128,3197.07 502.179,3197.09 502.206,3197.14C503.3,3198.93 510.921,3211.43 511.965,3213.14C511.992,3213.19 512.039,3213.22 512.092,3213.22C512.145,3213.22 512.197,3213.2 512.23,3213.16C513.499,3211.63 522.655,3200.57 523.879,3199.09C523.911,3199.05 523.96,3199.03 524.011,3199.03C524.062,3199.03 524.109,3199.05 524.137,3199.09C525.291,3200.71 534.193,3213.16 535.431,3214.89C535.462,3214.94 535.514,3214.96 535.569,3214.96C535.623,3214.96 535.674,3214.93 535.701,3214.89C537.166,3212.5 550.764,3190.41 554.011,3185.13C554.052,3185.07 554.034,3184.98 553.969,3184.93C553.904,3184.89 553.813,3184.89 553.757,3184.95C550.957,3187.74 542.846,3195.83 541.689,3196.98C541.655,3197.01 541.608,3197.03 541.559,3197.03C541.511,3197.02 541.467,3197 541.44,3196.96C540.412,3195.49 532.571,3184.31 531.488,3182.77C531.46,3182.73 531.412,3182.7 531.361,3182.7C531.309,3182.7 531.26,3182.72 531.228,3182.76C530.072,3184.18 521.917,3194.24 520.801,3195.61C520.771,3195.65 520.724,3195.67 520.674,3195.67C520.625,3195.67 520.578,3195.65 520.548,3195.61C519.348,3194.14 510.012,3182.69 508.759,3181.16C508.727,3181.12 508.677,3181.1 508.625,3181.1C508.573,3181.1 508.526,3181.13 508.498,3181.17C507.527,3182.61 501.084,3192.16 500.12,3193.59C500.093,3193.63 500.046,3193.66 499.994,3193.66C499.943,3193.66 499.893,3193.64 499.861,3193.6C498.575,3192.08 488.799,3180.46 487.479,3178.89C487.445,3178.85 487.394,3178.83 487.341,3178.83C487.288,3178.84 487.241,3178.87 487.214,3178.91C485.996,3180.95 475.598,3198.32 472.681,3203.2Z" style="fill:rgb(115,102,75);"/>
                        </g>
                        <g transform="matrix(1.64032,0,0,1.64032,-8436.97,-8996)">
                            <circle cx="487.317" cy="3236.9" r="12.683" style="fill:rgb(115,102,75);"/>
                        </g>
                        <g transform="matrix(1.64032,0,0,1.64032,-8540.68,-8988.28)">
                            <circle cx="487.317" cy="3236.9" r="12.683" style="fill:rgb(115,102,75);"/>
                        </g>
                        <g transform="matrix(3.54135,0,0,3.88952,-9510.54,-16333.2)">
                            <path d="M503.556,3261.78C503.556,3276 523,3279.08 523,3261.78" style="fill:rgb(115,102,75);"/>
                        </g>
                    </g>
                    <g transform="matrix(1.41023,0,0,1.41023,1761.68,813.709)">
                        <g transform="matrix(1,0,0,1,3418.04,1951.88)">
                            <path d="M-7647.87,-3859.78L-7614.49,-3835.01" style="fill:none;stroke:rgb(250,154,106);stroke-width:25px;"/>
                        </g>
                        <g transform="matrix(-1,0,0,1,-11702.6,1951.88)">
                            <path d="M-7647.87,-3859.78L-7614.49,-3835.01" style="fill:none;stroke:rgb(250,154,106);stroke-width:25px;"/>
                        </g>
                        <g transform="matrix(1,0,0,1,3418.04,1951.88)">
                            <path d="M-7614.49,-3891.29L-7591.66,-3859.78" style="fill:none;stroke:rgb(250,154,106);stroke-width:25px;"/>
                        </g>
                        <g transform="matrix(-1,0,0,1,-11702.6,1951.88)">
                            <path d="M-7614.49,-3891.29L-7591.66,-3859.78" style="fill:none;stroke:rgb(250,154,106);stroke-width:25px;"/>
                        </g>
                        <g transform="matrix(1,0,0,1,3422.64,1951.88)">
                            <path d="M-7564.91,-3865.84L-7564.91,-3905.01" style="fill:none;stroke:rgb(250,154,106);stroke-width:25px;"/>
                        </g>
                    </g>
                    <g transform="matrix(0.734799,0,0,0.734799,1439.99,914.784)">
                        <g transform="matrix(146.383,0,0,146.383,-7212.15,-3959.32)">
                        </g>
                        <text x="-7792.42px" y="-3959.32px" style="font-family:'SeuratPro-B', 'FOT-Seurat Pro', serif;font-weight:700;font-stretch:extra-expanded;font-size:146.383px;fill:rgb(116,102,75);">4 Y<tspan x="-7551.62px " y="-3959.32px ">e</tspan>ars</text>
                    </g>
                </g>
            </g>
        </g>
    </g>
</svg>
