<?xml version="1.0" encoding="UTF-8" standalone="no"?><!DOCTYPE svg PUBLIC "-//W3C//DTD SVG 1.1//EN" "http://www.w3.org/Graphics/SVG/1.1/DTD/svg11.dtd"><svg width="100%" height="100%" viewBox="0 0 1001 1001" version="1.1" xmlns="http://www.w3.org/2000/svg" xmlns:xlink="http://www.w3.org/1999/xlink" xml:space="preserve" xmlns:serif="http://www.serif.com/" style="fill-rule:evenodd;clip-rule:evenodd;stroke-linecap:round;stroke-linejoin:round;stroke-miterlimit:1.5;"><rect id="nmp_year4" x="0.427" y="0.525" width="1000" height="1000" style="fill:none;"/><path d="M146.874,146.971c195.131,-195.131 511.975,-195.131 707.106,0c195.132,195.132 195.132,511.976 0,707.107c-195.131,195.131 -511.975,195.131 -707.106,-0c-195.132,-195.131 -195.132,-511.975 -0,-707.107Z" style="fill:#f2e69b;"/><clipPath id="_clip1"><path d="M146.874,146.971c195.131,-195.131 511.975,-195.131 707.106,0c195.132,195.132 195.132,511.976 0,707.107c-195.131,195.131 -511.975,195.131 -707.106,-0c-195.132,-195.131 -195.132,-511.975 -0,-707.107Z"/></clipPath><g clip-path="url(#_clip1)"><path d="M511.939,506.805c225.835,-225.835 498.821,-319.549 609.228,-209.142c110.407,110.407 16.693,383.393 -209.142,609.228c-225.835,225.836 -498.821,319.549 -609.228,209.142c-110.407,-110.407 -16.694,-383.393 209.142,-609.228Z" style="fill:#fac200;"/><g><path d="M575.76,855.517c-1.657,-1.299 -3.255,-2.711 -4.781,-4.238c-16.37,-16.37 -19.658,-40.887 -9.845,-60.467c0.487,-0.949 0.807,-1.949 0.966,-2.963c0.477,-3.043 -0.497,-6.207 -2.76,-8.47l0.063,-0.065c-69.634,-69.634 -75.992,-176.553 -14.656,-239.7c63.148,-61.337 170.067,-54.979 239.701,14.655l0.065,-0.063c2.263,2.263 5.427,3.237 8.47,2.76c1.013,-0.159 2.014,-0.479 2.963,-0.966c19.579,-9.813 44.097,-6.525 60.467,9.845c1.526,1.527 2.939,3.124 4.238,4.781c1.657,1.299 3.254,2.711 4.78,4.238c20.435,20.435 20.485,53.566 0.112,73.939c-3.747,3.747 -7.925,6.802 -12.376,9.168c-6.062,3.191 -9.683,9.647 -9.246,16.484c0.819,13.907 -0.101,27.726 -2.729,41.119c-0.373,1.787 -0.456,3.573 -0.279,5.306c0.682,6.645 5.197,12.511 11.852,14.679c2.513,0.922 4.497,1.568 5.004,1.733c0.093,0.032 0.144,0.131 0.116,0.225c0.284,1.201 8.271,1.124 17.384,-0.998c12.111,-2.821 26.21,-9.255 26.853,-21.101c7.822,-144.163 97.612,-11.931 37.892,47.551c-3.622,3.726 -5.377,8.884 -4.779,14.046c0.598,5.163 3.484,9.783 7.862,12.584c19.969,12.853 40.8,31.365 39.565,34.061c-14.174,30.966 -122.902,139.694 -153.868,153.869c-2.696,1.234 -21.208,-19.597 -34.062,-39.566c-2.8,-4.377 -7.421,-7.264 -12.583,-7.862c-5.162,-0.597 -10.32,1.157 -14.047,4.78c-59.481,59.719 -191.713,-30.07 -47.551,-37.892c11.847,-0.643 18.281,-14.742 21.101,-26.854c2.123,-9.113 2.2,-17.1 0.999,-17.383c-0.094,0.027 -0.193,-0.024 -0.225,-0.117c-0.165,-0.507 -0.811,-2.491 -1.733,-5.003c-2.168,-6.656 -8.034,-11.17 -14.679,-11.852c-1.733,-0.178 -3.519,-0.095 -5.307,0.279c-13.392,2.627 -27.211,3.547 -41.119,2.729c-6.836,-0.438 -13.292,3.183 -16.483,9.245c-2.366,4.452 -5.422,8.629 -9.168,12.376c-20.374,20.373 -53.505,20.323 -73.94,-0.111c-1.526,-1.527 -2.938,-3.124 -4.237,-4.781Z" style="fill:#f7f5e6;"/><path d="M536.176,700.607c0.058,0.211 0.266,0.345 0.482,0.309c0.217,-0.035 0.371,-0.229 0.358,-0.448c-0.492,-8.31 -1.58,-26.675 -1.781,-30.062c-0.008,-0.131 0.045,-0.259 0.143,-0.346c0.098,-0.087 0.231,-0.124 0.36,-0.101c5.228,0.934 47.124,8.425 52.752,9.432c0.14,0.025 0.284,-0.021 0.383,-0.123c0.099,-0.103 0.141,-0.247 0.112,-0.387c-1.071,-5.118 -8.431,-40.283 -9.549,-45.626c-0.03,-0.146 0.017,-0.296 0.125,-0.399c0.107,-0.102 0.261,-0.141 0.404,-0.103c5.627,1.494 44.861,11.908 50.235,13.334c0.137,0.037 0.283,0.003 0.39,-0.09c0.108,-0.093 0.162,-0.233 0.145,-0.374c-0.646,-5.448 -5.308,-44.728 -5.932,-49.982c-0.016,-0.136 0.034,-0.271 0.134,-0.364c0.099,-0.093 0.238,-0.133 0.372,-0.107c5.384,1.023 46.95,8.926 52.727,10.024c0.144,0.027 0.293,-0.021 0.393,-0.128c0.1,-0.108 0.138,-0.259 0.101,-0.401c-1.957,-7.497 -20.125,-77.083 -24.463,-93.697c-0.055,-0.21 -0.259,-0.346 -0.474,-0.316c-0.215,0.03 -0.373,0.217 -0.368,0.434c0.249,10.836 0.97,42.227 1.073,46.706c0.003,0.13 -0.053,0.255 -0.153,0.338c-0.099,0.084 -0.231,0.118 -0.359,0.092c-4.853,-0.968 -41.888,-8.351 -47,-9.371c-0.135,-0.027 -0.275,0.013 -0.376,0.107c-0.101,0.094 -0.15,0.231 -0.133,0.368c0.645,5.017 5.192,40.4 5.814,45.242c0.017,0.131 -0.028,0.263 -0.122,0.357c-0.093,0.094 -0.225,0.139 -0.356,0.122c-5.191,-0.653 -45.576,-5.737 -50.997,-6.42c-0.138,-0.017 -0.276,0.034 -0.37,0.136c-0.093,0.103 -0.132,0.245 -0.102,0.381c1.023,4.694 7.814,35.847 8.829,40.505c0.03,0.135 -0.008,0.275 -0.1,0.378c-0.092,0.102 -0.228,0.154 -0.365,0.139c-5.464,-0.603 -47.015,-5.189 -52.628,-5.808c-0.141,-0.016 -0.281,0.039 -0.373,0.147c-0.092,0.108 -0.125,0.255 -0.087,0.392c1.739,6.345 16.589,60.513 20.756,75.71Z" style="fill:#73664b;"/><path d="M710.301,583.714c12.73,-12.73 33.4,-12.73 46.13,0c12.73,12.73 12.73,33.4 0,46.13c-12.73,12.73 -33.4,12.73 -46.13,-0c-12.729,-12.73 -12.729,-33.4 0,-46.13Z" style="fill:#73664b;"/><path d="M603.88,707.245c12.73,-12.73 33.4,-12.73 46.13,-0c12.73,12.73 12.73,33.4 -0,46.13c-12.73,12.73 -33.4,12.73 -46.13,-0c-12.73,-12.73 -12.73,-33.4 -0,-46.13Z" style="fill:#73664b;"/><path d="M678.334,750.555c61.309,61.309 150.913,-1.766 76.339,-76.339" style="fill:#73664b;"/></g><g><path d="M356.277,626.931l89.854,-13.299" style="fill:none;stroke:#fa9a6a;stroke-width:54.63px;"/><path d="M626.833,356.375l-13.298,89.853" style="fill:none;stroke:#fa9a6a;stroke-width:54.63px;"/><path d="M359.169,526.67l83.947,13.422" style="fill:none;stroke:#fa9a6a;stroke-width:54.63px;"/><path d="M526.573,359.266l13.422,83.947" style="fill:none;stroke:#fa9a6a;stroke-width:54.63px;"/><path d="M482.19,482.287l-60.526,-60.525" style="fill:none;stroke:#fa9a6a;stroke-width:54.63px;"/></g><g transform="matrix(0.707107,-0.707107,0.707107,0.707107,4577.24,6055.38)"><g transform="matrix(247.558,0,0,247.558,1136.73,-7005.48)"></g><text x="975.815px" y="-7005.48px" style="font-family:'SeuratPro-B', 'FOT-Seurat Pro', serif;font-weight:700;font-stretch:extra-expanded;font-size:247.558px;fill:#74664b;">4</text></g></g></svg>