<?xml version="1.0" encoding="UTF-8" standalone="no"?><!DOCTYPE svg PUBLIC "-//W3C//DTD SVG 1.1//EN" "http://www.w3.org/Graphics/SVG/1.1/DTD/svg11.dtd"><svg width="100%" height="100%" viewBox="0 0 1001 1001" version="1.1" xmlns="http://www.w3.org/2000/svg" xmlns:xlink="http://www.w3.org/1999/xlink" xml:space="preserve" xmlns:serif="http://www.serif.com/" style="fill-rule:evenodd;clip-rule:evenodd;stroke-linecap:round;stroke-linejoin:round;stroke-miterlimit:1.5;"><rect id="nmp_year5" x="0.427" y="0.349" width="1000" height="1000" style="fill:none;"/><path d="M146.874,146.796c195.131,-195.132 511.975,-195.132 707.106,-0c195.132,195.131 195.132,511.975 0,707.106c-195.131,195.132 -511.975,195.132 -707.106,0c-195.132,-195.131 -195.132,-511.975 -0,-707.106Z" style="fill:#f2e69b;"/><clipPath id="_clip1"><path d="M146.874,146.796c195.131,-195.132 511.975,-195.132 707.106,-0c195.132,195.131 195.132,511.975 0,707.106c-195.131,195.132 -511.975,195.132 -707.106,0c-195.132,-195.131 -195.132,-511.975 -0,-707.106Z"/></clipPath><g clip-path="url(#_clip1)"><path d="M511.939,506.629c225.835,-225.835 498.821,-319.548 609.228,-209.141c110.407,110.406 16.693,383.392 -209.142,609.228c-225.835,225.835 -498.821,319.548 -609.228,209.141c-110.407,-110.406 -16.694,-383.392 209.142,-609.228Z" style="fill:#fac200;"/><g><path d="M575.76,855.342c-1.657,-1.299 -3.255,-2.712 -4.781,-4.238c-16.37,-16.37 -19.658,-40.888 -9.845,-60.468c0.487,-0.949 0.807,-1.949 0.966,-2.963c0.477,-3.042 -0.497,-6.207 -2.76,-8.47l0.063,-0.064c-69.634,-69.634 -75.992,-176.554 -14.656,-239.701c63.148,-61.337 170.067,-54.978 239.701,14.656l0.065,-0.063c2.263,2.263 5.427,3.236 8.47,2.759c1.013,-0.159 2.014,-0.479 2.963,-0.965c19.579,-9.814 44.097,-6.525 60.467,9.845c1.526,1.526 2.939,3.123 4.238,4.781c1.657,1.298 3.254,2.711 4.78,4.237c20.435,20.435 20.485,53.566 0.112,73.939c-3.747,3.747 -7.925,6.803 -12.376,9.168c-6.062,3.192 -9.683,9.647 -9.246,16.484c0.819,13.907 -0.101,27.726 -2.729,41.119c-0.373,1.787 -0.456,3.574 -0.279,5.307c0.682,6.644 5.197,12.511 11.852,14.678c2.513,0.922 4.497,1.569 5.004,1.734c0.093,0.031 0.144,0.131 0.116,0.225c0.284,1.201 8.271,1.123 17.384,-0.999c12.111,-2.821 26.21,-9.254 26.853,-21.101c7.822,-144.162 97.612,-11.931 37.892,47.551c-3.622,3.727 -5.377,8.884 -4.779,14.047c0.598,5.162 3.484,9.782 7.862,12.583c19.969,12.854 40.8,31.365 39.565,34.061c-14.174,30.967 -122.902,139.695 -153.868,153.869c-2.696,1.234 -21.208,-19.596 -34.062,-39.565c-2.8,-4.378 -7.421,-7.265 -12.583,-7.862c-5.162,-0.598 -10.32,1.157 -14.047,4.779c-59.481,59.719 -191.713,-30.07 -47.551,-37.892c11.847,-0.643 18.281,-14.742 21.101,-26.853c2.123,-9.113 2.2,-17.101 0.999,-17.384c-0.094,0.028 -0.193,-0.024 -0.225,-0.117c-0.165,-0.507 -0.811,-2.491 -1.733,-5.003c-2.168,-6.656 -8.034,-11.17 -14.679,-11.852c-1.733,-0.178 -3.519,-0.095 -5.307,0.279c-13.392,2.627 -27.211,3.548 -41.119,2.729c-6.836,-0.437 -13.292,3.184 -16.483,9.246c-2.366,4.451 -5.422,8.629 -9.168,12.375c-20.374,20.374 -53.505,20.324 -73.94,-0.111c-1.526,-1.526 -2.938,-3.123 -4.237,-4.78Z" style="fill:#f7f5e6;"/><path d="M536.176,700.431c0.058,0.212 0.266,0.345 0.482,0.31c0.217,-0.036 0.371,-0.229 0.358,-0.448c-0.492,-8.31 -1.58,-26.676 -1.781,-30.063c-0.008,-0.131 0.045,-0.258 0.143,-0.345c0.098,-0.088 0.231,-0.125 0.36,-0.102c5.228,0.935 47.124,8.426 52.752,9.432c0.14,0.025 0.284,-0.021 0.383,-0.123c0.099,-0.102 0.141,-0.247 0.112,-0.386c-1.071,-5.119 -8.431,-40.284 -9.549,-45.627c-0.03,-0.145 0.017,-0.296 0.125,-0.398c0.107,-0.102 0.261,-0.141 0.404,-0.103c5.627,1.493 44.861,11.907 50.235,13.334c0.137,0.036 0.283,0.002 0.39,-0.091c0.108,-0.093 0.162,-0.233 0.145,-0.374c-0.646,-5.447 -5.308,-44.728 -5.932,-49.982c-0.016,-0.135 0.034,-0.27 0.134,-0.363c0.099,-0.094 0.238,-0.133 0.372,-0.108c5.384,1.024 46.95,8.926 52.727,10.024c0.144,0.028 0.293,-0.021 0.393,-0.128c0.1,-0.107 0.138,-0.258 0.101,-0.401c-1.957,-7.496 -20.125,-77.082 -24.463,-93.697c-0.055,-0.21 -0.259,-0.346 -0.474,-0.316c-0.215,0.031 -0.373,0.217 -0.368,0.434c0.249,10.836 0.97,42.228 1.073,46.707c0.003,0.13 -0.053,0.254 -0.153,0.338c-0.099,0.083 -0.231,0.117 -0.359,0.092c-4.853,-0.968 -41.888,-8.352 -47,-9.371c-0.135,-0.027 -0.275,0.013 -0.376,0.107c-0.101,0.094 -0.15,0.231 -0.133,0.367c0.645,5.018 5.192,40.4 5.814,45.242c0.017,0.132 -0.028,0.263 -0.122,0.357c-0.093,0.094 -0.225,0.139 -0.356,0.123c-5.191,-0.654 -45.576,-5.738 -50.997,-6.42c-0.138,-0.018 -0.276,0.033 -0.37,0.136c-0.093,0.102 -0.132,0.244 -0.102,0.38c1.023,4.694 7.814,35.847 8.829,40.505c0.03,0.135 -0.008,0.276 -0.1,0.378c-0.092,0.103 -0.228,0.154 -0.365,0.139c-5.464,-0.603 -47.015,-5.188 -52.628,-5.808c-0.141,-0.016 -0.281,0.04 -0.373,0.148c-0.092,0.108 -0.125,0.254 -0.087,0.391c1.739,6.345 16.589,60.513 20.756,75.71Z" style="fill:#73664b;"/><path d="M710.301,583.538c12.73,-12.729 33.4,-12.729 46.13,0c12.73,12.73 12.73,33.4 0,46.13c-12.73,12.73 -33.4,12.73 -46.13,0c-12.729,-12.73 -12.729,-33.4 0,-46.13Z" style="fill:#73664b;"/><path d="M603.88,707.069c12.73,-12.73 33.4,-12.73 46.13,0c12.73,12.73 12.73,33.4 -0,46.13c-12.73,12.73 -33.4,12.73 -46.13,0c-12.73,-12.73 -12.73,-33.4 -0,-46.13Z" style="fill:#73664b;"/><path d="M678.334,750.38c61.309,61.309 150.913,-1.766 76.339,-76.34" style="fill:#73664b;"/></g><g><path d="M356.277,626.755l89.854,-13.298" style="fill:none;stroke:#fa9a6a;stroke-width:54.63px;"/><path d="M626.833,356.199l-13.298,89.854" style="fill:none;stroke:#fa9a6a;stroke-width:54.63px;"/><path d="M359.169,526.494l83.947,13.423" style="fill:none;stroke:#fa9a6a;stroke-width:54.63px;"/><path d="M526.573,359.091l13.422,83.947" style="fill:none;stroke:#fa9a6a;stroke-width:54.63px;"/><path d="M482.19,482.112l-60.526,-60.526" style="fill:none;stroke:#fa9a6a;stroke-width:54.63px;"/></g><g transform="matrix(0.707107,-0.707107,0.707107,0.707107,4577.37,6055.33)"><g transform="matrix(247.558,0,0,247.558,1136.73,-7005.65)"></g><text x="975.815px" y="-7005.65px" style="font-family:'SeuratPro-B', 'FOT-Seurat Pro', serif;font-weight:700;font-stretch:extra-expanded;font-size:247.558px;fill:#74664b;">5</text></g></g></svg>