<?xml version="1.0" encoding="UTF-8" standalone="no"?>
<!DOCTYPE svg PUBLIC "-//W3C//DTD SVG 1.1//EN" "http://www.w3.org/Graphics/SVG/1.1/DTD/svg11.dtd">
<svg width="100%" height="100%" viewBox="0 0 751 751" version="1.1" xmlns="http://www.w3.org/2000/svg" xmlns:xlink="http://www.w3.org/1999/xlink" xml:space="preserve" xmlns:serif="http://www.serif.com/" style="fill-rule:evenodd;clip-rule:evenodd;stroke-linejoin:round;stroke-miterlimit:2;">
    <g transform="matrix(1,0,0,1,-1987,-6142)">
        <g id="ytIcon" transform="matrix(0.571646,0,0,0.615258,333.077,6142.33)">
            <rect x="2894.42" y="0" width="1312" height="1219" style="fill:none;"/>
            <g transform="matrix(1.55737,0.346353,-0.372777,1.44698,3197.47,139.323)">
                <path d="M549.7,124.1C543.4,100.4 524.9,81.8 501.4,75.5C458.8,64 288,64 288,64C288,64 117.2,64 74.6,75.5C51.1,81.8 32.6,100.4 26.3,124.1C14.9,167 14.9,256.4 14.9,256.4C14.9,256.4 14.9,345.8 26.3,388.7C32.6,412.4 51.1,430.2 74.6,436.5C117.2,448 288,448 288,448C288,448 458.8,448 501.4,436.5C524.9,430.2 543.4,412.3 549.7,388.7C561.1,345.8 561.1,256.4 561.1,256.4C561.1,256.4 561.1,167 549.7,124.1Z" style="fill:rgb(237,28,36);fill-rule:nonzero;"/>
                <clipPath id="_clip1">
                    <path d="M549.7,124.1C543.4,100.4 524.9,81.8 501.4,75.5C458.8,64 288,64 288,64C288,64 117.2,64 74.6,75.5C51.1,81.8 32.6,100.4 26.3,124.1C14.9,167 14.9,256.4 14.9,256.4C14.9,256.4 14.9,345.8 26.3,388.7C32.6,412.4 51.1,430.2 74.6,436.5C117.2,448 288,448 288,448C288,448 458.8,448 501.4,436.5C524.9,430.2 543.4,412.3 549.7,388.7C561.1,345.8 561.1,256.4 561.1,256.4C561.1,256.4 561.1,167 549.7,124.1Z" clip-rule="nonzero"/>
                </clipPath>
                <g clip-path="url(#_clip1)">
                    <path d="M236.268,335.285C235.425,335.765 234.391,335.76 233.553,335.273C232.716,334.785 232.2,333.889 232.2,332.92C232.2,309.311 232.2,203.489 232.2,179.88C232.2,178.911 232.716,178.015 233.553,177.527C234.391,177.04 235.425,177.035 236.268,177.515C256.908,189.26 349.895,242.171 370.743,254.035C371.593,254.518 372.119,255.422 372.119,256.4C372.119,257.378 371.593,258.282 370.743,258.765C349.895,270.629 256.908,323.54 236.268,335.285Z" style="fill:rgb(247,245,230);fill-rule:nonzero;"/>
                    <g transform="matrix(1,0,0,1,-5.24352,-5.24352)">
                        <path d="M549.7,124.1C543.4,100.4 524.9,81.8 501.4,75.5C458.8,64 288,64 288,64C288,64 117.2,64 74.6,75.5C51.1,81.8 32.6,100.4 26.3,124.1C14.9,167 14.9,256.4 14.9,256.4C14.9,256.4 14.9,345.8 26.3,388.7C32.6,412.4 51.1,430.2 74.6,436.5C117.2,448 288,448 288,448C288,448 458.8,448 501.4,436.5C524.9,430.2 543.4,412.3 549.7,388.7C561.1,345.8 561.1,256.4 561.1,256.4C561.1,256.4 561.1,167 549.7,124.1Z" style="fill:none;fill-rule:nonzero;stroke:rgb(247,245,230);stroke-width:38.29px;"/>
                    </g>
                </g>
                <path d="M549.7,124.1C543.4,100.4 524.9,81.8 501.4,75.5C458.8,64 288,64 288,64C288,64 117.2,64 74.6,75.5C51.1,81.8 32.6,100.4 26.3,124.1C14.9,167 14.9,256.4 14.9,256.4C14.9,256.4 14.9,345.8 26.3,388.7C32.6,412.4 51.1,430.2 74.6,436.5C117.2,448 288,448 288,448C288,448 458.8,448 501.4,436.5C524.9,430.2 543.4,412.3 549.7,388.7C561.1,345.8 561.1,256.4 561.1,256.4C561.1,256.4 561.1,167 549.7,124.1Z" style="fill:none;fill-rule:nonzero;stroke:rgb(112,84,50);stroke-width:38.29px;"/>
            </g>
        </g>
    </g>
</svg>
